<svg width="63" height="72" viewBox="0 0 63 72" fill="none" xmlns="http://www.w3.org/2000/svg">
<path d="M49.5001 68.7273H3.68191C2.81393 68.7273 1.98149 68.3825 1.36774 67.7687C0.753984 67.155 0.40918 66.3225 0.40918 65.4545V3.27273C0.40918 2.40475 0.753984 1.57231 1.36774 0.958559C1.98149 0.344804 2.81393 0 3.68191 0H42.9546V6.54545C42.9546 7.41344 43.2994 8.24587 43.9132 8.85962C44.5269 9.47338 45.3594 9.81818 46.2274 9.81818H52.7728V65.4545C52.7728 66.3225 52.428 67.155 51.8143 67.7687C51.2005 68.3825 50.3681 68.7273 49.5001 68.7273Z" fill="#D3DBEF"/>
<path d="M49.5 9.81818V65.4545C49.5 66.3225 49.1552 67.1549 48.5415 67.7687C47.9277 68.3825 47.0953 68.7273 46.2273 68.7273H49.5C50.368 68.7273 51.2004 68.3825 51.8142 67.7687C52.4279 67.1549 52.7727 66.3225 52.7727 65.4545V9.81818H49.5Z" fill="#BFCAE2"/>
<path d="M52.773 9.81818H46.2276C45.3596 9.81818 44.5271 9.47338 43.9134 8.85962C43.2996 8.24587 42.9548 7.41344 42.9548 6.54545V0L52.773 9.81818Z" fill="#8491C1"/>
<path d="M47.8637 72C55.9974 72 62.591 65.4064 62.591 57.2727C62.591 49.1391 55.9974 42.5455 47.8637 42.5455C39.7301 42.5455 33.1365 49.1391 33.1365 57.2727C33.1365 65.4064 39.7301 72 47.8637 72Z" fill="#5C5F72"/>
<path d="M26.5909 21.2727H11.8637C11.4297 21.2727 11.0135 21.1003 10.7066 20.7934C10.3997 20.4866 10.2273 20.0704 10.2273 19.6364C10.2273 19.2024 10.3997 18.7862 10.7066 18.4793C11.0135 18.1724 11.4297 18 11.8637 18H26.5909C27.0249 18 27.4411 18.1724 27.748 18.4793C28.0549 18.7862 28.2273 19.2024 28.2273 19.6364C28.2273 20.0704 28.0549 20.4866 27.748 20.7934C27.4411 21.1003 27.0249 21.2727 26.5909 21.2727ZM41.3182 29.4545H11.8637C11.4297 29.4545 11.0135 29.2821 10.7066 28.9753C10.3997 28.6684 10.2273 28.2522 10.2273 27.8182C10.2273 27.3842 10.3997 26.968 10.7066 26.6611C11.0135 26.3542 11.4297 26.1818 11.8637 26.1818H41.3182C41.7522 26.1818 42.1684 26.3542 42.4753 26.6611C42.7822 26.968 42.9546 27.3842 42.9546 27.8182C42.9546 28.2522 42.7822 28.6684 42.4753 28.9753C42.1684 29.2821 41.7522 29.4545 41.3182 29.4545ZM34.7727 37.6364H11.8637C11.4297 37.6364 11.0135 37.464 10.7066 37.1571C10.3997 36.8502 10.2273 36.434 10.2273 36C10.2273 35.566 10.3997 35.1498 10.7066 34.8429C11.0135 34.536 11.4297 34.3636 11.8637 34.3636H34.7727C35.2067 34.3636 35.623 34.536 35.9298 34.8429C36.2367 35.1498 36.4091 35.566 36.4091 36C36.4091 36.434 36.2367 36.8502 35.9298 37.1571C35.623 37.464 35.2067 37.6364 34.7727 37.6364Z" fill="#8491C1"/>
<path d="M52.7727 56.5951C52.5578 56.5953 52.345 56.5531 52.1464 56.4708C51.9479 56.3886 51.7676 56.2678 51.6158 56.1157L47.8636 52.3636L44.1115 56.1158C43.8033 56.4163 43.3892 56.5832 42.9588 56.5805C42.5284 56.5778 42.1164 56.4056 41.812 56.1012C41.5077 55.7969 41.3355 55.3849 41.3328 54.9545C41.3301 54.5241 41.497 54.11 41.7975 53.8018L45.5497 50.0497C46.1636 49.4365 46.9958 49.092 47.8636 49.092C48.7313 49.092 49.5635 49.4365 50.1775 50.0497L53.9296 53.8018C54.1584 54.0307 54.3142 54.3222 54.3773 54.6396C54.4404 54.957 54.408 55.2859 54.2842 55.5849C54.1604 55.8839 53.9507 56.1394 53.6817 56.3192C53.4126 56.499 53.0963 56.595 52.7727 56.5951Z" fill="#FDFAFE"/>
<path d="M47.8637 65.4545C47.4297 65.4545 47.0135 65.2821 46.7066 64.9753C46.3997 64.6684 46.2273 64.2522 46.2273 63.8182V52.3636C46.2273 51.9296 46.3997 51.5134 46.7066 51.2065C47.0135 50.8997 47.4297 50.7273 47.8637 50.7273C48.2976 50.7273 48.7139 50.8997 49.0207 51.2065C49.3276 51.5134 49.5 51.9296 49.5 52.3636V63.8182C49.5 64.2522 49.3276 64.6684 49.0207 64.9753C48.7139 65.2821 48.2976 65.4545 47.8637 65.4545Z" fill="#FDFAFE"/>
</svg>
