<svg width="41" height="41" viewBox="0 0 41 41" fill="none" xmlns="http://www.w3.org/2000/svg">
<path fill-rule="evenodd" clip-rule="evenodd" d="M20.8486 0.848877C31.8956 0.848877 40.8486 9.80189 40.8486 20.8489C40.8486 31.8959 31.8956 40.8489 20.8486 40.8489C9.80165 40.8489 0.848633 31.8959 0.848633 20.8489C0.848633 9.80189 9.80165 0.848877 20.8486 0.848877Z" fill="#E60079"/>
<path d="M20.8485 6.53442C23.7009 6.53442 26.0095 7.87952 26.0095 9.53943C26.0095 11.1993 23.6961 12.5444 20.8485 12.5444C17.9961 12.5444 15.6875 11.1993 15.6875 9.53943C15.6875 7.87952 18.0009 6.53442 20.8485 6.53442Z" fill="white"/>
<path d="M20.8485 29.158C23.7009 29.158 26.0095 30.5031 26.0095 32.163C26.0095 33.8229 23.6961 35.168 20.8485 35.168C17.9961 35.168 15.6875 33.8229 15.6875 32.163C15.6875 30.5031 18.0009 29.158 20.8485 29.158Z" fill="white"/>
<path d="M8.4514 13.6892C9.87759 11.2184 12.1957 9.89239 13.6362 10.7223C15.072 11.5523 15.0815 14.2282 13.6553 16.6942C12.2291 19.165 9.91097 20.491 8.47048 19.6611C7.03475 18.8311 7.02521 16.1552 8.4514 13.6892Z" fill="white"/>
<path d="M28.0461 25.0033C29.4723 22.5325 31.7905 21.2065 33.2262 22.0317C34.6619 22.8617 34.6715 25.5328 33.2453 28.0036C31.8191 30.4744 29.5009 31.8004 28.0652 30.9752C26.6295 30.1452 26.6199 27.4741 28.0461 25.0033Z" fill="white"/>
<path d="M8.47048 22.0318C9.90621 21.2018 12.2291 22.5326 13.6553 24.9986C15.0815 27.4694 15.072 30.1405 13.6362 30.9705C12.2005 31.8004 9.87759 30.4696 8.4514 28.0036C7.02521 25.5328 7.03475 22.8617 8.47048 22.0318Z" fill="white"/>
<path d="M28.0652 10.7225C29.5009 9.8925 31.8191 11.2233 33.2453 13.6941C34.6715 16.1649 34.6619 18.836 33.2262 19.6659C31.7905 20.4959 29.4723 19.1651 28.0461 16.6943C26.6199 14.2235 26.6295 11.5524 28.0652 10.7225Z" fill="white"/>
</svg>
