<svg xmlns="http://www.w3.org/2000/svg" width="48" height="48" viewBox="0 0 48 48" fill="none">
  <path d="M38.2249 14.8009H42.9652C45.3403 14.8009 47.2656 12.8755 47.2656 10.5004V10.4775C47.2656 8.10238 45.3403 6.177 42.9652 6.177H38.2249C35.8498 6.177 33.9244 8.10238 33.9244 10.4775V10.5004C33.9244 12.8755 35.8498 14.8009 38.2249 14.8009ZM43.1781 31.3027H33.2407C30.8656 31.3027 28.9402 33.2281 28.9402 35.6032V35.6262C28.9402 38.0012 30.8656 39.9266 33.2407 39.9266H43.1781C45.5532 39.9266 47.4785 38.0012 47.4785 35.6262V35.6032C47.4785 33.2281 45.5532 31.3027 43.1781 31.3027ZM23.8213 18.9264H4.82237C2.44729 18.9264 0.521973 20.8518 0.521973 23.2269V23.2498C0.521973 25.6249 2.44729 27.5503 4.82237 27.5503H23.8213C26.1964 27.5503 28.1218 25.6249 28.1218 23.2498V23.2269C28.1218 20.8518 26.1964 18.9264 23.8213 18.9264Z" fill="#D4EBDF"/>
  <path d="M12.4977 38.1817H35.0767C38.1526 35.2197 40.0695 31.0624 40.0695 26.455C40.0695 17.4626 32.7797 10.1727 23.7872 10.1727C14.7947 10.1727 7.50488 17.4626 7.50488 26.455C7.50488 31.0624 9.42179 35.2197 12.4977 38.1817Z" fill="#66C190"/>
  <path d="M36.1844 30.8435C36.6757 29.4536 36.939 27.977 36.939 26.4549C36.939 19.203 31.0391 13.3032 23.7871 13.3032C16.5351 13.3032 10.6353 19.203 10.6353 26.4549C10.6353 27.977 10.8985 29.4536 11.3898 30.8435H36.1844Z" fill="white"/>
  <path d="M28.2459 30.8435C28.4226 30.3436 28.5173 29.8126 28.5173 29.2652C28.5173 26.657 26.3954 24.5352 23.7872 24.5352C21.179 24.5352 19.0571 26.657 19.0571 29.2652C19.0571 29.8126 19.1518 30.3436 19.3285 30.8435H28.2459Z" fill="#66C190"/>
  <path d="M31.9559 32.7047H15.6187V35.795H31.9559V32.7047Z" fill="white"/>
  <path d="M25.5676 26.2128C24.8932 25.0622 20.2622 21.938 20.2622 21.938C20.2622 21.938 20.7268 27.5049 21.4013 28.6554C22.0758 29.8059 23.5553 30.1917 24.7058 29.5173C25.8563 28.8427 26.2421 27.3632 25.5676 26.2128Z" fill="white"/>
  <path d="M40.4829 37.66H36.3004C39.0815 34.5764 40.5896 30.6423 40.5896 26.4527C40.5896 17.1866 33.0557 9.65271 23.7895 9.65271C14.5235 9.65271 6.98431 17.1866 6.98431 26.4527C6.98431 30.6423 8.49744 34.5762 11.2731 37.6597L7.09156 37.66C6.80343 37.66 6.56982 37.8936 6.56982 38.1818C6.56982 38.4699 6.80343 38.7035 7.09156 38.7035H40.4829C40.771 38.7035 41.0046 38.4699 41.0046 38.1818C41.0046 37.8936 40.771 37.66 40.4829 37.66ZM8.02779 26.4527C8.02779 17.7657 15.0974 10.6962 23.7895 10.6962C32.4765 10.6962 39.5461 17.7657 39.5461 26.4527C39.5461 30.7049 37.8869 34.6753 34.866 37.6597H12.7079C9.68702 34.6753 8.02779 30.7049 8.02779 26.4527Z" fill="#010101"/>
  <path d="M36.186 31.1067C36.2956 31.1067 36.3947 31.0336 36.4311 30.9293C36.9425 29.4841 37.1982 27.9815 37.1982 26.4527C37.1982 19.0597 31.1825 13.0441 23.7894 13.0441C16.3912 13.0441 10.3755 19.0597 10.3755 26.4527C10.3755 27.9815 10.6313 29.4841 11.1426 30.9293C11.179 31.0336 11.2781 31.1067 11.3876 31.1067C14.5088 31.1067 33.1801 31.1067 36.186 31.1067ZM19.5164 30.5849C19.3859 30.1571 19.3182 29.7136 19.3182 29.2649C19.3182 28.091 19.772 27.0267 20.513 26.2284C20.6955 27.3449 20.9198 28.3519 21.1756 28.7849C21.918 30.0519 23.5659 30.4966 24.8382 29.7397C26.1112 28.9936 26.539 27.3554 25.7929 26.0823C25.6104 25.7745 25.1773 25.3467 24.6294 24.8719C26.6903 25.2684 28.2555 27.0893 28.2555 29.2649C28.2555 29.7136 28.1877 30.1571 28.0573 30.5849L19.5164 30.5849ZM20.5703 22.4667C21.4625 23.0817 24.7819 25.4152 25.3442 26.3432C25.9442 27.371 25.5999 28.691 24.572 29.291C23.5349 29.9003 22.2183 29.5356 21.6242 28.5241C21.0925 27.6109 20.6717 23.4944 20.5703 22.4667ZM11.5755 30.5849C11.1268 29.2493 10.8972 27.8614 10.8972 26.4527C10.8972 19.3467 16.6781 13.5658 23.7894 13.5658C30.8955 13.5658 36.6764 19.3467 36.6764 26.4527C36.6764 27.8614 36.452 29.2493 35.9982 30.5849H28.5947C28.7199 30.1571 28.7772 29.7136 28.7772 29.2649C28.7772 26.5519 26.6016 24.3345 23.9043 24.2719C22.3859 23.0614 20.5339 21.8041 20.4085 21.7206C20.3251 21.6632 20.2155 21.6632 20.1321 21.7154C20.0433 21.7623 19.9963 21.8614 20.0017 21.9606C20.0121 22.091 20.1633 23.8597 20.4139 25.5919C19.4173 26.5049 18.7964 27.8145 18.7964 29.2649C18.7964 29.7136 18.8537 30.1571 18.9791 30.5849H11.5755Z" fill="#010101"/>
  <path d="M23.787 15.9763C23.9311 15.9763 24.0479 15.8596 24.0479 15.7154V14.1071C24.0479 13.9629 23.9311 13.8463 23.787 13.8463C23.6429 13.8463 23.5261 13.9629 23.5261 14.1071V15.7154C23.5261 15.8596 23.6429 15.9763 23.787 15.9763ZM17.8429 15.63C17.7708 15.505 17.6111 15.4622 17.4865 15.5345C17.3617 15.6066 17.319 15.7661 17.391 15.8909L18.1951 17.2837C18.2677 17.4093 18.4278 17.4506 18.5515 17.3792C18.6764 17.3071 18.719 17.1476 18.6471 17.0228L17.8429 15.63ZM14.6233 20.8553L13.2306 20.0513C13.1052 19.9792 12.9463 20.0223 12.8742 20.1469C12.8022 20.2717 12.845 20.4312 12.9697 20.5033L14.3625 21.3073C14.4873 21.3792 14.6466 21.3364 14.7189 21.2117C14.7908 21.0869 14.748 20.9274 14.6233 20.8553ZM13.0551 26.1864H11.4469C11.3028 26.1864 11.186 26.303 11.186 26.4472C11.186 26.5914 11.3028 26.7081 11.4469 26.7081H13.0551C13.1991 26.7081 13.3159 26.5914 13.3159 26.4472C13.3159 26.303 13.1991 26.1864 13.0551 26.1864ZM34.2582 26.4472C34.2582 26.5914 34.375 26.7081 34.5191 26.7081H36.1272C36.2713 26.7081 36.3881 26.5914 36.3881 26.4472C36.3881 26.303 36.2713 26.1864 36.1272 26.1864H34.5191C34.375 26.1864 34.2582 26.303 34.2582 26.4472ZM33.2117 21.3073L34.6043 20.5033C34.7291 20.4312 34.7718 20.2717 34.6998 20.1469C34.6276 20.0215 34.4684 19.9792 34.3434 20.0513L32.9508 20.8553C32.826 20.9274 32.7833 21.0869 32.8553 21.2117C32.9275 21.3367 33.0871 21.379 33.2117 21.3073ZM29.0226 17.3792C29.1475 17.4511 29.3068 17.4084 29.379 17.2837L30.183 15.8909C30.255 15.7661 30.2122 15.6066 30.0875 15.5345C29.962 15.4622 29.8031 15.5052 29.7311 15.63L28.9271 17.0228C28.8551 17.1476 28.8979 17.3071 29.0226 17.3792Z" fill="#010101"/>
  <path d="M23.5774 28.1494C23.9711 28.1494 24.2901 27.8303 24.2901 27.4367C24.2901 27.0431 23.9711 26.724 23.5774 26.724C23.1838 26.724 22.8647 27.0431 22.8647 27.4367C22.8647 27.8303 23.1838 28.1494 23.5774 28.1494Z" fill="#66C190"/>
  <path d="M14.8573 7.41964C15.8275 7.41964 16.614 6.63314 16.614 5.66295C16.614 4.69275 15.8275 3.90625 14.8573 3.90625C13.8871 3.90625 13.1006 4.69275 13.1006 5.66295C13.1006 6.63314 13.8871 7.41964 14.8573 7.41964Z" fill="#F6E2EE"/>
  <path d="M4.56676 13.8856C5.19636 13.8856 5.70676 13.3752 5.70676 12.7456C5.70676 12.116 5.19636 11.6056 4.56676 11.6056C3.93715 11.6056 3.42676 12.116 3.42676 12.7456C3.42676 13.3752 3.93715 13.8856 4.56676 13.8856Z" fill="#FDDDD6"/>
  <path d="M3.42662 34.8709C4.05623 34.8709 4.56662 34.3605 4.56662 33.7309C4.56662 33.1013 4.05623 32.5909 3.42662 32.5909C2.79702 32.5909 2.28662 33.1013 2.28662 33.7309C2.28662 34.3605 2.79702 34.8709 3.42662 34.8709Z" fill="#5DCAE7"/>
  <path d="M20.9676 44.0932C21.5972 44.0932 22.1076 43.5828 22.1076 42.9532C22.1076 42.3236 21.5972 41.8132 20.9676 41.8132C20.338 41.8132 19.8276 42.3236 19.8276 42.9532C19.8276 43.5828 20.338 44.0932 20.9676 44.0932Z" fill="#84B0DE"/>
  <path d="M45.4256 24.3783C46.0553 24.3783 46.5656 23.8679 46.5656 23.2383C46.5656 22.6087 46.0553 22.0983 45.4256 22.0983C44.796 22.0983 44.2856 22.6087 44.2856 23.2383C44.2856 23.8679 44.796 24.3783 45.4256 24.3783Z" fill="#FDBE5C"/>
</svg>