<svg xmlns="http://www.w3.org/2000/svg" width="48" height="48" viewBox="0 0 48 48" fill="none">
  <path d="M43.1781 27.6091H32.9751C30.6 27.6091 28.6746 29.5344 28.6746 31.9095V31.9324C28.6746 34.3075 30.6 36.2329 32.9751 36.2329H43.1781C45.5532 36.2329 47.4785 34.3075 47.4785 31.9324V31.9095C47.4785 29.5344 45.5532 27.6091 43.1781 27.6091ZM9.78781 32.0708H4.82237C2.44729 32.0708 0.521973 33.9962 0.521973 36.3713V36.3942C0.521973 38.7693 2.44729 40.6947 4.82237 40.6947H9.78781C12.1629 40.6947 14.0882 38.7693 14.0882 36.3942V36.3713C14.0882 33.9962 12.1629 32.0708 9.78781 32.0708ZM17.0975 9.29523H6.89455C4.51946 9.29523 2.59415 11.2206 2.59415 13.5957V13.6186C2.59415 15.9937 4.51947 17.9191 6.89455 17.9191H17.0975C19.4726 17.9191 21.398 15.9937 21.398 13.6186V13.5957C21.398 11.2206 19.4726 9.29523 17.0975 9.29523Z" fill="#FDDDD6"/>
  <path d="M37.6214 34.5932L39.4117 39.6006L34.3237 37.0045C32.8547 37.7111 31.206 38.1078 29.4642 38.1078C23.247 38.1078 18.2075 33.0684 18.2075 26.8513C18.2075 20.6403 23.247 15.6009 29.4642 15.6009C35.6751 15.6009 40.7145 20.6403 40.7145 26.8513C40.7145 29.8575 39.543 32.5787 37.6214 34.5932Z" fill="white"/>
  <path d="M35.2005 28.2797C35.0668 28.7583 34.8771 29.2153 34.6369 29.6379L35.7585 31.2707L33.9578 33.0715L32.325 31.9499C31.9023 32.1901 31.4453 32.3797 30.9667 32.5134L30.6055 34.4605H28.0587L27.6975 32.5134C27.2188 32.3797 26.7618 32.1901 26.3392 31.9499L24.7064 33.0715L22.9056 31.2707L24.0273 29.6379C23.7871 29.2153 23.5973 28.7583 23.4637 28.2797L21.5166 27.9184V25.3717L23.4637 25.0104C23.5973 24.5318 23.7871 24.0748 24.0273 23.6522L22.9056 22.0193L24.7064 20.2186L26.3392 21.3402C26.7618 21.1 27.2188 20.9103 27.6975 20.7767L28.0587 18.8296H30.6055L30.9667 20.7767C31.4453 20.9103 31.9023 21.1 32.325 21.3402L33.9578 20.2186L35.7585 22.0193L34.6369 23.6522C34.8771 24.0748 35.0668 24.5318 35.2005 25.0104L37.1475 25.3717V27.9184L35.2005 28.2797Z" fill="#F3765D"/>
  <path d="M29.3318 29.9771C31.1719 29.9771 32.6637 28.4854 32.6637 26.6452C32.6637 24.8051 31.1719 23.3134 29.3318 23.3134C27.4917 23.3134 26 24.8051 26 26.6452C26 28.4854 27.4917 29.9771 29.3318 29.9771Z" fill="white"/>
  <path d="M10.9133 25.9009L9.31395 30.4517L13.9387 28.113C15.2864 28.7613 16.799 29.1252 18.397 29.1252C24.1008 29.1252 28.7242 24.5019 28.7242 18.7982C28.7242 13.1001 24.1008 8.47675 18.397 8.47675C12.6989 8.47675 8.07568 13.1001 8.07568 18.7982C8.07568 21.5562 9.15041 24.0527 10.9133 25.9009Z" fill="#F3765D"/>
  <path d="M38.2211 34.7134C40.1671 32.5587 41.2367 29.7778 41.2367 26.8508C41.2367 20.3604 35.9567 15.0804 29.4663 15.0804C29.1741 15.0804 28.8871 15.0908 28.6053 15.1169C27.0923 10.943 23.0854 7.95343 18.395 7.95343C12.4159 7.95343 7.55322 12.8213 7.55322 18.8004C7.55322 21.4873 8.53416 24.0387 10.3185 26.0265L8.82101 30.2787C8.75325 30.4821 8.81057 30.7013 8.97234 30.8421C9.06634 30.9308 9.19143 30.9726 9.31677 30.9726C9.39498 30.9726 9.47319 30.9569 9.55153 30.9152L13.9497 28.6926C15.2332 29.2717 16.6053 29.5952 18.0193 29.6369C19.2715 34.7917 23.9306 38.6317 29.4663 38.6317C31.1567 38.6317 32.7897 38.2769 34.3132 37.583L39.1759 40.0665C39.52 40.2387 39.9428 40.0091 39.9428 39.6021C39.9428 39.503 39.9167 39.4091 39.8697 39.3308L38.2211 34.7134ZM14.1636 27.6439C14.0175 27.5708 13.8507 27.576 13.7045 27.6491L10.2349 29.4021L11.4037 26.0735C11.4715 25.8908 11.4245 25.6821 11.2888 25.5413C9.55153 23.7204 8.5967 21.3256 8.5967 18.8004C8.5967 13.3952 12.9949 8.99691 18.395 8.99691C23.8197 8.99691 28.2037 13.4161 28.2037 18.8004C28.2037 26.057 20.5961 30.7288 14.1636 27.6439ZM34.5637 36.5395C34.4853 36.503 34.4071 36.4821 34.3237 36.4821C34.2453 36.4821 34.1671 36.4978 34.0994 36.5343C32.6488 37.2334 31.0889 37.5882 29.4663 37.5882C24.4993 37.5882 20.3149 34.2021 19.094 29.6213C24.7549 29.2665 29.2472 24.5447 29.2472 18.8004C29.2472 17.8821 29.1324 16.99 28.9132 16.1395C29.0959 16.1291 29.2784 16.1239 29.4663 16.1239C35.3776 16.1239 40.1933 20.9343 40.1933 26.8508C40.1933 29.6161 39.1446 32.2404 37.2453 34.2334C37.1098 34.3743 37.0628 34.583 37.1306 34.7708L38.4767 38.5378L34.5637 36.5395Z" fill="#010101"/>
  <path d="M13.1344 20.1086C13.2571 20.5477 13.431 20.967 13.6514 21.3547L12.6224 22.8527L14.2745 24.5048L15.7725 23.4757C16.1603 23.6961 16.5795 23.8701 17.0186 23.9928L17.35 25.7791H19.6865L20.0179 23.9928C20.457 23.8701 20.8763 23.6961 21.264 23.4757L22.762 24.5048L24.414 22.8527L23.385 21.3547C23.6054 20.967 23.7794 20.5477 23.902 20.1086L25.6884 19.7772V17.4407L23.902 17.1093C23.7794 16.6702 23.6054 16.251 23.385 15.8632L24.414 14.3652L22.762 12.7131L21.264 13.7422C20.8763 13.5218 20.457 13.3478 20.0179 13.2252L19.6865 11.4388H17.35L17.0186 13.2252C16.5795 13.3478 16.1603 13.5218 15.7725 13.7422L14.2745 12.7131L12.6224 14.3652L13.6514 15.8632C13.431 16.251 13.2571 16.6702 13.1344 17.1093L11.3481 17.4407V19.7772L13.1344 20.1086Z" fill="white"/>
  <path d="M18.5183 21.6657C20.2066 21.6657 21.5752 20.2971 21.5752 18.6089C21.5752 16.9206 20.2066 15.552 18.5183 15.552C16.83 15.552 15.4614 16.9206 15.4614 18.6089C15.4614 20.2971 16.83 21.6657 18.5183 21.6657Z" fill="#F3765D"/>
  <path d="M33.0239 8.47669C34.3312 8.47669 35.391 7.41689 35.391 6.10956C35.391 4.80223 34.3312 3.74243 33.0239 3.74243C31.7165 3.74243 30.6567 4.80223 30.6567 6.10956C30.6567 7.41689 31.7165 8.47669 33.0239 8.47669Z" fill="#D4EBDF"/>
  <path d="M43.8413 15.9626C44.5515 15.9626 45.1273 15.3868 45.1273 14.6765C45.1273 13.9662 44.5515 13.3904 43.8413 13.3904C43.131 13.3904 42.5552 13.9662 42.5552 14.6765C42.5552 15.3868 43.131 15.9626 43.8413 15.9626Z" fill="#5DCAE7"/>
  <path d="M2.59419 24.2379C3.30448 24.2379 3.88028 23.6621 3.88028 22.9518C3.88028 22.2415 3.30448 21.6657 2.59419 21.6657C1.88391 21.6657 1.30811 22.2415 1.30811 22.9518C1.30811 23.6621 1.88391 24.2379 2.59419 24.2379Z" fill="#F6E2EE"/>
  <path d="M18.2075 42.0162C18.666 42.0162 19.0376 41.6446 19.0376 41.1861C19.0376 40.7277 18.666 40.356 18.2075 40.356C17.7491 40.356 17.3774 40.7277 17.3774 41.1861C17.3774 41.6446 17.7491 42.0162 18.2075 42.0162Z" fill="#5DCAE7"/>
  <path d="M31.834 44.2576C32.2924 44.2576 32.6641 43.8859 32.6641 43.4275C32.6641 42.9691 32.2924 42.5974 31.834 42.5974C31.3755 42.5974 31.0039 42.9691 31.0039 43.4275C31.0039 43.8859 31.3755 44.2576 31.834 44.2576Z" fill="#FDBE5C"/>
</svg>