<svg xmlns="http://www.w3.org/2000/svg" width="48" height="48" viewBox="0 0 48 48" fill="none">
  <path d="M21.5073 17.9317C21.5073 19.8151 19.9838 21.3438 18.0951 21.3438H3.93501C2.04639 21.3438 0.522949 19.8151 0.522949 17.9317C0.522949 16.0482 2.04639 14.5195 3.93501 14.5195H18.0951C19.9838 14.5195 21.5073 16.0482 21.5073 17.9317ZM47.4795 24.203C47.4795 26.3421 45.742 28.0795 43.603 28.0795H28.436C26.2968 28.0795 24.5646 26.3421 24.5646 24.203C24.5646 22.0638 26.2968 20.3317 28.436 20.3317H43.603C45.742 20.3316 47.4795 22.0638 47.4795 24.203ZM16.9212 39.5316C16.9212 41.6708 15.189 43.403 13.0499 43.403H7.24811C5.10893 43.403 3.37685 41.6708 3.37685 39.5316C3.37685 37.3925 5.10893 35.6603 7.24811 35.6603H13.0499C15.189 35.6603 16.9212 37.3925 16.9212 39.5316Z" fill="#D1ECF5"/>
  <path d="M39.0201 31.2332H8.66626C7.86898 31.2332 7.22266 30.5869 7.22266 29.7896V11.5065C7.22266 10.7092 7.86898 10.0629 8.66626 10.0629H39.0201C39.8174 10.0629 40.4637 10.7092 40.4637 11.5065V29.7896C40.4637 30.5869 39.8174 31.2332 39.0201 31.2332Z" fill="#5DC9E6"/>
  <path d="M40.4637 13.165H7.22266V16.9758H40.4637V13.165Z" fill="white"/>
  <path d="M39.433 42.1137C40.2986 42.1137 41.0003 41.412 41.0003 40.5464C41.0003 39.6808 40.2986 38.9791 39.433 38.9791C38.5674 38.9791 37.8657 39.6808 37.8657 40.5464C37.8657 41.412 38.5674 42.1137 39.433 42.1137Z" fill="#F2765D"/>
  <path d="M1.82068 32.5336C2.53875 32.5336 3.12086 31.9515 3.12086 31.2334C3.12086 30.5153 2.53875 29.9332 1.82068 29.9332C1.10262 29.9332 0.520508 30.5153 0.520508 31.2334C0.520508 31.9515 1.10262 32.5336 1.82068 32.5336Z" fill="#FDF1D7"/>
  <path d="M44.8384 13.2245C45.4908 13.2245 46.0197 12.6956 46.0197 12.0433C46.0197 11.3909 45.4908 10.8621 44.8384 10.8621C44.1861 10.8621 43.6572 11.3909 43.6572 12.0433C43.6572 12.6956 44.1861 13.2245 44.8384 13.2245Z" fill="#FCDCD5"/>
  <path d="M22.1763 6.95948C22.8287 6.95948 23.3576 6.43063 23.3576 5.77826C23.3576 5.12589 22.8287 4.59705 22.1763 4.59705C21.524 4.59705 20.9951 5.12589 20.9951 5.77826C20.9951 6.43063 21.524 6.95948 22.1763 6.95948Z" fill="#FCBD5B"/>
  <path d="M37.8654 25.8412C37.8464 31.793 35.0618 37.3907 30.3253 41.0028C25.5888 37.3907 22.8043 31.793 22.7852 25.8412C24.3784 25.8412 25.6653 24.5543 25.6653 22.9611H34.9852C34.9852 24.5543 36.277 25.8412 37.8654 25.8412Z" fill="white"/>
  <path d="M31.2567 31.1815L31.622 33.7485H29.029L29.3994 31.1815C28.815 30.8528 28.4185 30.2319 28.4185 29.512C28.4185 28.4633 29.2742 27.6076 30.3281 27.6076C31.382 27.6076 32.2324 28.4633 32.2324 29.512C32.2324 30.2319 31.8411 30.8528 31.2567 31.1815Z" fill="#5DC9E6"/>
  <path d="M39.0198 9.54114H8.66599C7.58226 9.54114 6.70068 10.4228 6.70068 11.5066V29.7896C6.70068 30.8733 7.58227 31.755 8.66599 31.755H23.3502C24.5671 35.5109 26.8999 38.8826 30.0881 41.314C30.1582 41.3675 30.2419 41.3942 30.3254 41.3942C30.409 41.3942 30.4927 41.3675 30.5627 41.314C33.751 38.8826 36.0838 35.5109 37.3006 31.755H39.0198C40.1036 31.755 40.9853 30.8733 40.9853 29.7896V11.5066C40.9853 10.4228 40.1036 9.54114 39.0198 9.54114ZM7.74416 13.5041H39.9418V16.6366H7.74416V13.5041ZM8.66599 10.5846H39.0198C39.5282 10.5846 39.9418 10.9981 39.9418 11.5066V12.826H7.74416V11.5066C7.74416 10.9981 8.15762 10.5846 8.66599 10.5846ZM30.3254 40.5077C25.958 37.0629 23.311 31.7622 23.1814 26.2085C24.6709 26.0279 25.855 24.8425 26.0334 23.3524H34.6173C34.7957 24.8425 35.9798 26.0279 37.4694 26.2085C37.3399 31.7622 34.6928 37.0629 30.3254 40.5077ZM39.0198 30.7116H37.6068C38.0236 29.1322 38.2515 27.4976 38.2569 25.8424C38.2572 25.7385 38.2161 25.6386 38.1427 25.565C38.0692 25.4914 37.9695 25.4499 37.8655 25.4499C36.4932 25.4499 35.3766 24.3335 35.3766 22.9611C35.3766 22.7451 35.2014 22.5698 34.9853 22.5698H25.6654C25.4493 22.5698 25.2741 22.7451 25.2741 22.9611C25.2741 24.3335 24.1577 25.4499 22.7853 25.4499C22.6814 25.4499 22.5816 25.4914 22.5081 25.565C22.4348 25.6386 22.3936 25.7385 22.394 25.8424C22.3993 27.4976 22.6272 29.1322 23.044 30.7116H8.66599C8.15763 30.7116 7.74416 30.2981 7.74416 29.7896V17.3147H39.9418V29.7896C39.9418 30.2981 39.5282 30.7116 39.0198 30.7116Z" fill="black"/>
  <path d="M10.5442 25.886H15.9848C16.1721 25.886 16.3239 25.7341 16.3239 25.5469C16.3239 25.3597 16.1721 25.2078 15.9848 25.2078H10.5442C10.3569 25.2078 10.2051 25.3597 10.2051 25.5469C10.2051 25.7341 10.3569 25.886 10.5442 25.886ZM18.7787 27.4107H10.5442C10.3569 27.4107 10.2051 27.5625 10.2051 27.7498C10.2051 27.937 10.3569 28.0888 10.5442 28.0888H18.7787C18.966 28.0888 19.1178 27.937 19.1178 27.7498C19.1178 27.5625 18.966 27.4107 18.7787 27.4107ZM32.6241 29.5119C32.6241 28.246 31.5942 27.2163 30.3285 27.2163C29.0597 27.2163 28.0275 28.246 28.0275 29.5119C28.0275 30.2507 28.3853 30.9419 28.9766 31.3737L28.6421 33.6927C28.6078 33.9292 28.7919 34.1398 29.0293 34.1398H31.6224C31.6259 34.1398 31.6292 34.1398 31.6328 34.1398C31.9077 34.1398 32.0972 33.8632 31.9974 33.6058L31.6797 31.3737C32.2682 30.9431 32.6241 30.252 32.6241 29.5119ZM31.0652 30.8402C30.9246 30.9194 30.8469 31.0766 30.8697 31.2364L31.1714 33.3572H29.4811L29.7871 31.2371C29.8102 31.0771 29.7325 30.9194 29.5916 30.8402C29.1096 30.5691 28.8101 30.0601 28.8101 29.5119C28.8101 28.6776 29.4912 27.9989 30.3285 27.9989C31.1628 27.9989 31.8415 28.6776 31.8415 29.5119C31.8415 30.0703 31.5513 30.5669 31.0652 30.8402Z" fill="black"/>
</svg>