<svg xmlns="http://www.w3.org/2000/svg" width="48" height="48" viewBox="0 0 48 48" fill="none">
  <path d="M13.8002 27.4982H4.9202C2.48881 27.4982 0.521973 25.5312 0.521973 23.0999C0.521973 20.6685 2.48881 18.7016 4.9202 18.7016H13.8002C16.2315 18.7016 18.2037 20.6685 18.2037 23.0999C18.2037 25.5312 16.2315 27.4982 13.8002 27.4982ZM47.4785 15.4825C47.4785 17.9086 45.5063 19.8807 43.0749 19.8807H32.9376C30.5115 19.8807 28.5393 17.9086 28.5393 15.4825C28.5393 13.0512 30.5115 11.079 32.9376 11.079H43.0749C45.5063 11.079 47.4785 13.0512 47.4785 15.4825ZM43.6228 34.1347C44.4158 34.9329 44.9114 36.0286 44.9114 37.2442C44.9114 39.6755 42.9394 41.6477 40.508 41.6477H20.0663C18.8506 41.6477 17.7497 41.152 16.9568 40.359C16.1585 39.5608 15.6681 38.4599 15.6681 37.2442C15.6681 34.8182 17.635 32.846 20.0663 32.846H40.508C41.7237 32.846 42.8245 33.3364 43.6228 34.1347Z" fill="#FCDCD5"/>
  <path d="M17.5267 10.0649H33.8279C34.7527 10.0649 35.5024 10.8147 35.5024 11.7395V41.26C35.5024 42.1848 34.7527 42.9345 33.8279 42.9345H12.5881C11.6633 42.9345 10.9136 42.1848 10.9136 41.26V16.2031L17.5267 10.0649Z" fill="white"/>
  <path d="M21.1487 21.46H14.8136C14.6695 21.46 14.5527 21.3433 14.5527 21.1991C14.5527 21.0549 14.6695 20.9382 14.8136 20.9382H21.1487C21.2928 20.9382 21.4096 21.0549 21.4096 21.1991C21.4096 21.3433 21.2928 21.46 21.1487 21.46ZM19.8641 25.7692H14.8136C14.6695 25.7692 14.5527 25.6525 14.5527 25.5083C14.5527 25.3641 14.6695 25.2474 14.8136 25.2474H19.8641C20.0082 25.2474 20.125 25.3641 20.125 25.5083C20.125 25.6525 20.0082 25.7692 19.8641 25.7692ZM31.6021 25.7692H22.08C21.9359 25.7692 21.8191 25.6525 21.8191 25.5083C21.8191 25.3641 21.9359 25.2474 22.08 25.2474H31.6021C31.7462 25.2474 31.863 25.3641 31.863 25.5083C31.863 25.6525 31.7462 25.7692 31.6021 25.7692ZM22.3727 30.0784H14.8136C14.6695 30.0784 14.5527 29.9617 14.5527 29.8175C14.5527 29.6733 14.6695 29.5566 14.8136 29.5566H22.3727C22.5168 29.5566 22.6336 29.6733 22.6336 29.8175C22.6336 29.9617 22.5168 30.0784 22.3727 30.0784ZM31.6021 30.0784H24.5884C24.4444 30.0784 24.3276 29.9617 24.3276 29.8175C24.3276 29.6733 24.4444 29.5566 24.5884 29.5566H31.6021C31.7462 29.5566 31.863 29.6733 31.863 29.8175C31.863 29.9617 31.7462 30.0784 31.6021 30.0784ZM18.0523 34.3875H14.8136C14.6695 34.3875 14.5527 34.2709 14.5527 34.1267C14.5527 33.9825 14.6695 33.8658 14.8136 33.8658H18.0523C18.1964 33.8658 18.3132 33.9825 18.3132 34.1267C18.3132 34.2709 18.1964 34.3875 18.0523 34.3875ZM31.6021 34.3875H20.2682C20.1241 34.3875 20.0073 34.2709 20.0073 34.1267C20.0073 33.9825 20.1241 33.8658 20.2682 33.8658H31.6021C31.7462 33.8658 31.863 33.9825 31.863 34.1267C31.863 34.2709 31.7462 34.3875 31.6021 34.3875ZM23.7995 38.6967H14.8136C14.6695 38.6967 14.5527 38.58 14.5527 38.4359C14.5527 38.2917 14.6695 38.175 14.8136 38.175H23.7995C23.9435 38.175 24.0603 38.2917 24.0603 38.4359C24.0603 38.58 23.9435 38.6967 23.7995 38.6967ZM31.6021 38.6967H26.0153C25.8713 38.6967 25.7545 38.58 25.7545 38.4359C25.7545 38.2917 25.8713 38.175 26.0153 38.175H31.6021C31.7462 38.175 31.863 38.2917 31.863 38.4359C31.863 38.58 31.7462 38.6967 31.6021 38.6967Z" fill="#F2765D"/>
  <path fill-rule="evenodd" clip-rule="evenodd" d="M31.6022 18.4973C31.6022 21.1073 29.4864 23.2232 26.8763 23.2232C24.2663 23.2232 22.1504 21.1073 22.1504 18.4973C22.1504 15.8872 24.2663 13.7714 26.8763 13.7714C29.4864 13.7714 31.6022 15.8872 31.6022 18.4973ZM26.6769 20.5597V21L27.0351 21V20.5658C27.7441 20.5284 28.3 20.0973 28.3 19.3444C28.3 18.5477 27.769 18.2806 27.0519 18.0989H27.0351V16.965C27.3224 17.0094 27.5892 17.126 27.8354 17.315L28.1993 16.7601C27.8336 16.4906 27.4455 16.3399 27.0351 16.3075V16H26.6769V16.3016C25.9893 16.3398 25.4567 16.7833 25.4567 17.517C25.4567 18.2852 25.9446 18.5439 26.6769 18.7323V19.9025C26.3447 19.846 26.022 19.6713 25.7086 19.3778L25.3 19.9025C25.7067 20.2843 26.1656 20.5035 26.6769 20.5597ZM26.6769 17.9904C26.3607 17.8809 26.1395 17.7761 26.1395 17.4446C26.1395 17.1369 26.3901 16.9745 26.6769 16.9468V17.9904ZM27.0351 18.8349C27.3685 18.9427 27.6173 19.0528 27.6173 19.4018C27.6173 19.7247 27.3359 19.887 27.0351 19.9204V18.8349Z" fill="#F2765D"/>
  <path d="M33.8277 9.54327H17.5265C17.3993 9.54327 17.2653 9.5958 17.1717 9.68263L10.5585 15.8207C10.556 15.8229 10.5553 15.8262 10.553 15.8283C10.4732 15.9052 10.3916 16.0444 10.3916 16.2031V41.2601C10.3916 42.4712 11.3769 43.4563 12.5878 43.4563H33.8277C35.0387 43.4563 36.0239 42.4712 36.0239 41.2601V11.7395C36.0239 10.5284 35.0387 9.54327 33.8277 9.54327ZM17.0048 11.2611V15.6814H12.2423L17.0048 11.2611ZM34.9805 41.2601C34.9805 41.8957 34.4633 42.4128 33.8277 42.4128H12.5878C11.9522 42.4128 11.4351 41.8957 11.4351 41.2601V16.7248H17.5265C17.8147 16.7248 18.0483 16.4912 18.0483 16.2031V10.5868H33.8277C34.4633 10.5868 34.9805 11.1039 34.9805 11.7395V41.2601Z" fill="black"/>
  <path d="M10.4379 11.0781C11.4675 11.0781 12.3021 10.2435 12.3021 9.21391C12.3021 8.18435 11.4675 7.34973 10.4379 7.34973C9.40835 7.34973 8.57373 8.18435 8.57373 9.21391C8.57373 10.2435 9.40835 11.0781 10.4379 11.0781Z" fill="#D1ECF5"/>
  <path d="M44.3201 30.084C45.0336 30.084 45.612 29.5056 45.612 28.7922C45.612 28.0787 45.0336 27.5004 44.3201 27.5004C43.6067 27.5004 43.0283 28.0787 43.0283 28.7922C43.0283 29.5056 43.6067 30.084 44.3201 30.084Z" fill="#82AFDD"/>
  <path d="M5.62554 39.9584C6.37876 39.9584 6.98937 39.3478 6.98937 38.5946C6.98937 37.8414 6.37876 37.2308 5.62554 37.2308C4.87232 37.2308 4.26172 37.8414 4.26172 38.5946C4.26172 39.3478 4.87232 39.9584 5.62554 39.9584Z" fill="#5DC9E6"/>
  <path d="M30.2881 6.72261C30.8898 6.72261 31.3775 6.23487 31.3775 5.63321C31.3775 5.03156 30.8898 4.54382 30.2881 4.54382C29.6865 4.54382 29.1987 5.03156 29.1987 5.63321C29.1987 6.23487 29.6865 6.72261 30.2881 6.72261Z" fill="#65C08E"/>
</svg>