<svg xmlns="http://www.w3.org/2000/svg" width="48" height="48" viewBox="0 0 48 48" fill="none">
  <path d="M20.8019 18.8308H4.92542C2.49926 18.8308 0.521973 16.8637 0.521973 14.4274C0.521973 12.0013 2.49404 10.0291 4.92542 10.0291H20.8019C23.244 10.0291 25.2001 12.0169 25.2001 14.4274C25.2001 16.8587 23.2281 18.8308 20.8019 18.8308ZM47.4785 25.1908C47.4785 27.6221 45.5115 29.5943 43.0801 29.5943H37.8523C35.3954 29.5943 33.4541 27.5985 33.4541 25.1908C33.4541 22.7648 35.421 20.7926 37.8523 20.7926H43.0801C45.5039 20.7926 47.4785 22.7595 47.4785 25.1908ZM31.5705 36.1943C31.5705 38.6256 29.6037 40.5978 27.1723 40.5978H9.86105C7.43482 40.5978 5.4576 38.6306 5.4576 36.1943C5.4576 33.7682 7.42979 31.7961 9.86105 31.7961H27.1723C29.6122 31.796 31.5705 33.7747 31.5705 36.1943Z" fill="#F5E1ED"/>
  <path d="M37.6864 11.1511C38.716 11.1511 39.5506 10.3165 39.5506 9.28696C39.5506 8.25741 38.716 7.42279 37.6864 7.42279C36.6569 7.42279 35.8223 8.25741 35.8223 9.28696C35.8223 10.3165 36.6569 11.1511 37.6864 11.1511Z" fill="#D2EADE"/>
  <path d="M5.7679 27.3793C6.48136 27.3793 7.05973 26.8009 7.05973 26.0875C7.05973 25.374 6.48136 24.7957 5.7679 24.7957C5.05444 24.7957 4.47607 25.374 4.47607 26.0875C4.47607 26.8009 5.05444 27.3793 5.7679 27.3793Z" fill="#82AFDD"/>
  <path d="M43.107 40.9336C43.8602 40.9336 44.4708 40.323 44.4708 39.5698C44.4708 38.8165 43.8602 38.2059 43.107 38.2059C42.3538 38.2059 41.7432 38.8165 41.7432 39.5698C41.7432 40.323 42.3538 40.9336 43.107 40.9336Z" fill="#F2765D"/>
  <path d="M16.5546 25.4317C21.4819 25.4317 25.4763 21.4373 25.4763 16.5099C25.4763 11.5826 21.4819 7.5882 16.5546 7.5882C11.6272 7.5882 7.63281 11.5826 7.63281 16.5099C7.63281 21.4373 11.6272 25.4317 16.5546 25.4317Z" fill="#CE93C1"/>
  <path d="M16.5551 22.6148C13.1888 22.6148 10.4502 19.8762 10.4502 16.5101C10.4502 13.1436 13.1888 10.405 16.5551 10.405C19.9214 10.405 22.6601 13.1436 22.6601 16.5101C22.6601 19.8762 19.9214 22.6148 16.5551 22.6148Z" fill="white"/>
  <path d="M16.5994 14.5636C16.3834 14.5636 16.2081 14.3883 16.2081 14.1723V13.2506C16.2081 13.0345 16.3834 12.8593 16.5994 12.8593C16.8154 12.8593 16.9907 13.0345 16.9907 13.2506V14.1723C16.9907 14.3883 16.8154 14.5636 16.5994 14.5636ZM15.3781 14.5636C15.1621 14.5636 14.9868 14.3883 14.9868 14.1723V13.2506C14.9868 13.0345 15.1621 12.8593 15.3781 12.8593C15.5942 12.8593 15.7694 13.0345 15.7694 13.2506V14.1723C15.7694 14.3883 15.5942 14.5636 15.3781 14.5636ZM16.5994 20.1605C16.3834 20.1605 16.2081 19.9853 16.2081 19.7692V18.8475C16.2081 18.6315 16.3834 18.4562 16.5994 18.4562C16.8154 18.4562 16.9907 18.6315 16.9907 18.8475V19.7692C16.9907 19.9853 16.8154 20.1605 16.5994 20.1605ZM15.3781 20.1605C15.1621 20.1605 14.9868 19.9853 14.9868 19.7692V18.8475C14.9868 18.6315 15.1621 18.4562 15.3781 18.4562C15.5942 18.4562 15.7694 18.6315 15.7694 18.8475V19.7692C15.7694 19.9853 15.5942 20.1605 15.3781 20.1605Z" fill="#CE93C1"/>
  <path d="M18.6233 17.5913C18.6233 17.0082 18.3168 16.498 17.8585 16.2051C18.0785 15.9477 18.2165 15.6181 18.2165 15.2537C18.2165 14.5261 17.685 13.9243 16.9908 13.8059V13.2506C16.9908 13.0345 16.8156 12.8593 16.5995 12.8593C16.3835 12.8593 16.2082 13.0345 16.2082 13.2506V13.781H15.7695V13.2506C15.7695 13.0345 15.5943 12.8593 15.3782 12.8593C15.1622 12.8593 14.9869 13.0345 14.9869 13.2506V13.781H14.8776C14.6616 13.781 14.4863 13.9562 14.4863 14.1723V18.8475C14.4863 19.0636 14.6616 19.2388 14.8776 19.2388H14.9869V19.7692C14.9869 19.9853 15.1622 20.1605 15.3782 20.1605C15.5943 20.1605 15.7695 19.9853 15.7695 19.7692V19.2388H16.2082V19.7692C16.2082 19.9853 16.3835 20.1605 16.5995 20.1605C16.8156 20.1605 16.9908 19.9853 16.9908 19.7692V19.2373C17.8922 19.229 18.6233 18.4946 18.6233 17.5913ZM17.4338 15.2537C17.4338 15.6343 17.1243 15.9438 16.7437 15.9438H15.2689V14.5636H16.7437C17.1243 14.5636 17.4338 14.8731 17.4338 15.2537ZM16.9758 18.4562H15.2689V16.7264H16.7437H16.9758C17.4527 16.7264 17.8407 17.1144 17.8407 17.5913C17.8407 18.0682 17.4527 18.4562 16.9758 18.4562Z" fill="#CE93C1"/>
  <path d="M31.5814 40.1953C36.5087 40.1953 40.5031 36.2009 40.5031 31.2735C40.5031 26.3462 36.5087 22.3518 31.5814 22.3518C26.6541 22.3518 22.6597 26.3462 22.6597 31.2735C22.6597 36.2009 26.6541 40.1953 31.5814 40.1953Z" fill="#CE93C1"/>
  <path d="M31.5815 37.3786C28.2152 37.3786 25.4766 34.64 25.4766 31.2739C25.4766 27.9074 28.2152 25.1688 31.5815 25.1688C34.9478 25.1688 37.6864 27.9074 37.6864 31.2739C37.6864 34.64 34.9478 37.3786 31.5815 37.3786Z" fill="white"/>
  <path d="M31.5813 30.8824C31.0723 30.8824 30.6581 30.4682 30.6581 29.9592C30.6581 29.45 31.0723 29.0357 31.5813 29.0357C32.0906 29.0357 32.5048 29.45 32.5048 29.9592C32.5048 30.1752 32.6801 30.3505 32.8961 30.3505C33.1122 30.3505 33.2874 30.1752 33.2874 29.9592C33.2874 29.1536 32.7247 28.4806 31.9726 28.3027V27.9838C31.9726 27.7678 31.7974 27.5925 31.5813 27.5925C31.3653 27.5925 31.19 27.7678 31.19 27.9838V28.3028C30.4382 28.4807 29.8755 29.1536 29.8755 29.9592C29.8755 30.8998 30.6408 31.6651 31.5813 31.6651C32.0906 31.6651 32.5048 32.0793 32.5048 32.5883C32.5048 33.0973 32.0906 33.5115 31.5813 33.5115C31.0723 33.5115 30.6581 33.0973 30.6581 32.5883C30.6581 32.3723 30.4828 32.197 30.2668 32.197C30.0508 32.197 29.8755 32.3723 29.8755 32.5883C29.8755 33.4177 30.4711 34.1091 31.2568 34.2613V34.5634C31.2568 34.7794 31.432 34.9547 31.6481 34.9547C31.8641 34.9547 32.0394 34.7794 32.0394 34.5634V34.2238C32.7569 34.0222 33.2874 33.3692 33.2874 32.5883C33.2874 31.6477 32.5221 30.8824 31.5813 30.8824Z" fill="#CE93C1"/>
  <path d="M25.9981 16.5099C25.9981 11.3029 21.7618 7.06659 16.5546 7.06659C11.3477 7.06659 7.11133 11.3029 7.11133 16.5099C7.11133 21.7168 11.3477 25.9531 16.5546 25.9531C21.7618 25.9531 25.9981 21.7168 25.9981 16.5099ZM8.15481 16.5099C8.15481 11.8782 11.9229 8.11007 16.5546 8.11007C21.1863 8.11007 24.9547 11.8782 24.9547 16.5099C24.9547 21.1416 21.1863 24.9097 16.5546 24.9097C11.9229 24.9097 8.15481 21.1416 8.15481 16.5099ZM31.5811 21.8304C26.3742 21.8304 22.1378 26.0668 22.1378 31.2737C22.1378 36.4807 26.3742 40.717 31.5811 40.717C36.788 40.717 41.0244 36.4807 41.0244 31.2737C41.0244 26.0668 36.788 21.8304 31.5811 21.8304ZM31.5811 39.6735C26.9494 39.6735 23.1813 35.9054 23.1813 31.2737C23.1813 26.642 26.9494 22.8739 31.5811 22.8739C36.2128 22.8739 39.9809 26.642 39.9809 31.2737C39.9809 35.9054 36.2128 39.6735 31.5811 39.6735ZM27.5389 12.9433H28.2596C31.3745 12.9433 33.9527 15.2569 34.3839 18.2545L33.6849 17.5554C33.532 17.4025 33.2844 17.4025 33.1315 17.5554C32.9787 17.7082 32.9787 17.9559 33.1315 18.1087L34.5691 19.5463C34.722 19.6991 34.9696 19.6992 35.1225 19.5463L36.56 18.1087C36.7129 17.9559 36.7129 17.7082 36.56 17.5554C36.4072 17.4025 36.1596 17.4025 36.0067 17.5554L35.1924 18.3697C34.8082 14.8829 31.8469 12.1607 28.2596 12.1607H27.5389C27.3229 12.1607 27.1476 12.336 27.1476 12.552C27.1476 12.768 27.3229 12.9433 27.5389 12.9433ZM20.2621 34.2411H19.5416C16.4265 34.2411 13.8481 31.9275 13.4169 28.9299L14.1161 29.629C14.2689 29.7819 14.5166 29.7819 14.6694 29.629C14.8223 29.4762 14.8223 29.2285 14.6694 29.0757L13.2318 27.6381C13.079 27.4852 12.8314 27.4852 12.6785 27.6381L11.2409 29.0757C11.0881 29.2285 11.0881 29.4762 11.2409 29.629C11.3938 29.7819 11.6414 29.7819 11.7943 29.629L12.6086 28.8147C12.9927 32.3015 15.954 35.0237 19.5416 35.0237H20.2621C20.4781 35.0237 20.6534 34.8484 20.6534 34.6324C20.6534 34.4164 20.4781 34.2411 20.2621 34.2411Z" fill="black"/>
</svg>