<svg xmlns="http://www.w3.org/2000/svg" width="48" height="48" viewBox="0 0 48 48" fill="none">
  <path d="M39.4431 17.1478H32.9579C30.528 17.1478 28.5581 15.1779 28.5581 12.748C28.5581 10.3181 30.528 8.34821 32.9579 8.34821H39.4431C41.8731 8.34821 43.8429 10.3181 43.8429 12.748C43.8429 15.1779 41.8731 17.1478 39.4431 17.1478ZM43.0622 38.9139H22.6186C20.1886 38.9139 18.2188 36.944 18.2188 34.5141C18.2188 32.0841 20.1886 30.1143 22.6186 30.1143H43.0622C45.4921 30.1143 47.462 32.0841 47.462 34.5141C47.462 36.944 45.4921 38.9139 43.0622 38.9139ZM10.1681 22.6815H4.93837C2.50843 22.6815 0.538574 20.7116 0.538574 18.2817C0.538574 15.8518 2.50843 13.8819 4.93837 13.8819H10.1681C12.598 13.8819 14.5679 15.8517 14.5679 18.2817C14.5679 20.7116 12.598 22.6815 10.1681 22.6815Z" fill="#DDECFF"/>
  <path d="M33.0659 32.1721C34.0243 32.1721 34.9463 31.7201 35.4711 30.9181C36.3554 29.5666 36.8728 27.9554 36.8728 26.2188C36.8728 23.4856 34.0416 18.9685 31.6189 15.6023H24.8306C22.4078 18.9685 19.5767 23.4856 19.5767 26.2188C19.5767 27.8917 20.0569 29.4482 20.8827 30.7684C21.425 31.6354 22.3671 32.1721 23.3898 32.1721L33.0659 32.1721Z" fill="#77B4FF"/>
  <path d="M31.6147 15.6023H24.835C23.9041 15.6023 23.1494 14.8476 23.1494 13.9166C23.1494 12.9857 23.9041 12.231 24.835 12.231H31.6147C32.5456 12.231 33.3003 12.9857 33.3003 13.9166C33.3003 14.8476 32.5456 15.6023 31.6147 15.6023Z" fill="white"/>
  <path d="M30.7813 12.231H25.8505L23.4946 7.34639C26.6486 4.41312 29.9827 9.14848 33.1372 7.34639L30.7813 12.231Z" fill="#77B4FF"/>
  <path d="M28.5101 29.5805C31.061 29.5805 33.129 27.5125 33.129 24.9615C33.129 22.4106 31.061 20.3426 28.5101 20.3426C25.9591 20.3426 23.8911 22.4106 23.8911 24.9615C23.8911 27.5125 25.9591 29.5805 28.5101 29.5805Z" fill="white"/>
  <path d="M28.51 25.2225C27.787 25.2225 27.1987 24.6343 27.1987 23.9113C27.1987 23.1883 27.787 22.6 28.51 22.6C29.2329 22.6 29.8212 23.1883 29.8212 23.9113C29.8212 24.0555 29.7045 24.1721 29.5603 24.1721C29.4161 24.1721 29.2994 24.0555 29.2994 23.9113C29.2994 23.4759 28.9453 23.1218 28.51 23.1218C28.0746 23.1218 27.7205 23.4759 27.7205 23.9113C27.7205 24.3466 28.0746 24.7007 28.51 24.7007C28.6541 24.7007 28.7708 24.8174 28.7708 24.9616C28.7708 25.1058 28.6541 25.2225 28.51 25.2225Z" fill="#77B4FF"/>
  <path d="M28.51 27.3232C27.787 27.3232 27.1987 26.735 27.1987 26.012C27.1987 25.8678 27.3154 25.7511 27.4596 25.7511C27.6038 25.7511 27.7205 25.8678 27.7205 26.012C27.7205 26.4473 28.0746 26.8015 28.51 26.8015C28.9453 26.8015 29.2994 26.4473 29.2994 26.012C29.2994 25.5766 28.9453 25.2225 28.51 25.2225C28.3658 25.2225 28.2491 25.1058 28.2491 24.9616C28.2491 24.8174 28.3658 24.7007 28.51 24.7007C29.2329 24.7007 29.8212 25.289 29.8212 26.012C29.8212 26.735 29.233 27.3232 28.51 27.3232Z" fill="#77B4FF"/>
  <path d="M28.5099 27.8697C28.3657 27.8697 28.249 27.753 28.249 27.6088V27.0623C28.249 26.9181 28.3657 26.8015 28.5099 26.8015C28.6541 26.8015 28.7708 26.9181 28.7708 27.0623V27.6088C28.7708 27.753 28.6541 27.8697 28.5099 27.8697ZM28.5099 23.1218C28.3657 23.1218 28.249 23.0051 28.249 22.8609V22.3142C28.249 22.17 28.3657 22.0533 28.5099 22.0533C28.6541 22.0533 28.7708 22.17 28.7708 22.3142V22.8609C28.7708 23.0051 28.6541 23.1218 28.5099 23.1218Z" fill="#77B4FF"/>
  <path d="M21.99 33.41H26.7887C27.5801 33.41 28.2217 32.7684 28.2217 31.9769C28.2217 31.1855 27.5801 30.5439 26.7887 30.5439H22.3106L20.2038 28.7733H13.9119L13.3901 36.55H15.688L19.9398 38.7426C21.2441 39.4152 22.7735 39.4991 24.1436 38.9733L39.2439 33.1772C40.1576 32.8689 40.6414 31.8716 40.318 30.9631C40.0247 30.1391 39.1612 29.6647 38.3084 29.8591L28.1096 32.5337" fill="white"/>
  <path d="M15.2988 27.9245H12.8545V37.4979H15.2988V27.9245Z" fill="white"/>
  <path d="M12.8544 26.6849H7.54883V38.7371H12.8544V26.6849Z" fill="#77B4FF"/>
  <path d="M40.8092 30.7881C40.4271 29.7151 39.3016 29.0971 38.1758 29.3544L36.5148 29.79C37.0042 28.6676 37.264 27.457 37.264 26.2188C37.264 23.5102 34.6394 19.1931 32.2905 15.871C32.7325 15.7175 33.1076 15.4249 33.3574 15.0381L34.903 16.0268C34.9684 16.0686 35.0413 16.0885 35.1137 16.0885C35.2426 16.0885 35.3689 16.0248 35.4436 15.9081C35.56 15.726 35.5067 15.4839 35.3248 15.3675L33.6528 14.2981C33.6759 14.1741 33.6914 14.0473 33.6914 13.9167C33.6914 13.7861 33.6759 13.6593 33.6528 13.5353L35.3248 12.4659C35.5067 12.3494 35.56 12.1074 35.4436 11.9253C35.3271 11.7429 35.0851 11.6904 34.903 11.8066L33.3574 12.7952C32.9873 12.2219 32.3461 11.8397 31.6146 11.8397H31.4043L33.4896 7.51622C33.5642 7.36184 33.5296 7.17715 33.4042 7.06021C33.2786 6.94328 33.0919 6.92137 32.9431 7.00646C31.6405 7.75094 30.2668 7.22941 28.8431 6.69999C26.6845 5.89694 24.9739 5.436 23.2283 7.0597C23.1027 7.17664 23.0678 7.36184 23.1422 7.51622L25.2272 11.8397H24.8348C23.6897 11.8397 22.758 12.7713 22.758 13.9167C22.758 14.8239 23.3465 15.5889 24.1589 15.871C21.8099 19.1931 19.1853 23.5102 19.1853 26.2188C19.1853 26.9073 19.2685 27.5882 19.4229 28.2515H15.8205V27.9244C15.8205 27.6363 15.5869 27.4027 15.2988 27.4027H13.3761V26.6848C13.3761 26.3967 13.1425 26.163 12.8544 26.163H7.54859C7.26046 26.163 7.02686 26.3967 7.02686 26.6848V38.7373C7.02686 39.0254 7.26046 39.259 7.54859 39.259H12.8544C13.1425 39.259 13.3761 39.0254 13.3761 38.7373V38.0194H15.2988C15.5869 38.0194 15.8205 37.7858 15.8205 37.4976V37.2054L19.7004 39.2063C21.1273 39.9418 22.8149 40.0423 24.3304 39.4603L39.4106 33.6717C40.6015 33.2693 41.2309 31.9725 40.8092 30.7881ZM12.3326 38.2155H8.07034V27.2065H12.3326C12.3326 29.7771 12.3326 35.7612 12.3326 38.2155ZM14.777 36.9759H13.3761V28.4462H14.777V36.9759ZM23.9768 7.44514C25.4021 6.28782 26.8502 6.79341 28.5703 7.43342C29.8001 7.89089 31.069 8.36138 32.3539 8.06981L30.5357 11.8397H26.0963L23.9768 7.44514ZM23.5406 13.9167C23.5406 13.2029 24.1212 12.6223 24.8348 12.6223C27.3573 12.6223 29.333 12.6223 31.6146 12.6223C32.3281 12.6223 32.9087 13.2029 32.9087 13.9167C32.9087 14.6303 32.3281 15.2109 31.6146 15.2109H24.8348C24.1212 15.2109 23.5406 14.6303 23.5406 13.9167ZM25.0312 15.9935H31.4182C34.7315 20.6224 36.4814 24.1558 36.4814 26.2188C36.4814 27.5627 36.1486 28.8715 35.5221 30.0503L28.7376 31.8296C28.662 30.8202 27.8167 30.0221 26.7885 30.0221H22.5004L20.5393 28.3738C20.4517 28.3002 20.3418 28.2613 20.2279 28.2558C20.0568 27.5939 19.9679 26.9102 19.9679 26.2188C19.9679 24.1558 21.7178 20.6224 25.0312 15.9935ZM39.0568 32.6901L23.9564 38.4861C22.7269 38.9581 21.3497 38.8827 20.1789 38.279L15.927 36.0863C15.893 36.0688 15.8571 36.0561 15.8205 36.0465V29.295H20.0135L21.9746 30.9433C22.0686 31.0223 22.1876 31.0656 22.3104 31.0656H26.7885C27.2909 31.0656 27.6998 31.4744 27.6998 31.9771C27.6998 32.4795 27.2909 32.8883 26.7885 32.8883H21.9897C21.7015 32.8883 21.4679 33.1219 21.4679 33.4101C21.4679 33.6982 21.7015 33.9318 21.9897 33.9318H26.7885C27.5003 33.9318 28.1242 33.5497 28.466 32.9795L38.4242 30.3678C39.0188 30.2318 39.6215 30.5634 39.8264 31.1382C40.0436 31.7488 39.7459 32.4565 39.0568 32.6901Z" fill="black"/>
  <path d="M18.0608 6.3621C18.589 6.3621 19.0172 5.93393 19.0172 5.40575C19.0172 4.87757 18.589 4.4494 18.0608 4.4494C17.5327 4.4494 17.1045 4.87757 17.1045 5.40575C17.1045 5.93393 17.5327 6.3621 18.0608 6.3621Z" fill="#48DA97"/>
  <path d="M6.55537 10.6858C7.32242 10.6858 7.94424 10.0639 7.94424 9.29689C7.94424 8.52984 7.32242 7.90802 6.55537 7.90802C5.78832 7.90802 5.1665 8.52984 5.1665 9.29689C5.1665 10.0639 5.78832 10.6858 6.55537 10.6858Z" fill="#FDE2FF"/>
  <path d="M45.2316 24.5379C45.9987 24.5379 46.6205 23.9161 46.6205 23.1491C46.6205 22.382 45.9987 21.7602 45.2316 21.7602C44.4646 21.7602 43.8428 22.382 43.8428 23.1491C43.8428 23.9161 44.4646 24.5379 45.2316 24.5379Z" fill="#3CDAF6"/>
  <path d="M16.6883 43.5506C17.2502 43.5506 17.7057 43.0951 17.7057 42.5332C17.7057 41.9713 17.2502 41.5158 16.6883 41.5158C16.1264 41.5158 15.6709 41.9713 15.6709 42.5332C15.6709 43.0951 16.1264 43.5506 16.6883 43.5506Z" fill="#FFBF5A"/>
</svg>