<svg xmlns="http://www.w3.org/2000/svg" width="48" height="48" viewBox="0 0 48 48" fill="none">
  <path d="M39.4281 21.6037H27.642C25.4716 21.6037 23.708 19.8402 23.708 17.6697C23.708 15.4993 25.4716 13.7358 27.642 13.7358H39.4281C41.5985 13.7358 43.3567 15.4993 43.3567 17.6697C43.3567 19.8402 41.5985 21.6037 39.4281 21.6037ZM13.7742 37.6262C13.7742 39.7967 12.0159 41.5602 9.84029 41.5602H4.45068C2.28017 41.5602 0.521973 39.7967 0.521973 37.6262C0.521973 35.4558 2.28017 33.6923 4.45068 33.6923H9.84029C12.0159 33.6923 13.7742 35.4558 13.7742 37.6262ZM47.4785 32.5915C47.4785 34.7619 45.7149 36.5254 43.5446 36.5254H40.2525C38.0767 36.5254 36.3186 34.7619 36.3186 32.5915C36.3186 30.421 38.0767 28.6575 40.2525 28.6575H43.5446C45.7149 28.6575 47.4785 30.421 47.4785 32.5915ZM23.5464 14.6489C23.5464 16.8193 21.7881 18.5776 19.6176 18.5776H11.1602C8.98979 18.5776 7.23159 16.8193 7.23159 14.6489C7.23159 12.4732 8.98978 10.715 11.1602 10.715H19.6175C21.7881 10.715 23.5464 12.4732 23.5464 14.6489Z" fill="#DEEAF7"/>
  <path d="M7.22859 25.2855C8.0282 25.2855 8.67641 24.6373 8.67641 23.8377C8.67641 23.0381 8.0282 22.3899 7.22859 22.3899C6.42898 22.3899 5.78076 23.0381 5.78076 23.8377C5.78076 24.6373 6.42898 25.2855 7.22859 25.2855Z" fill="#FDF1D7"/>
  <path d="M35.3992 40.5423C36.0579 40.5423 36.5919 40.0083 36.5919 39.3496C36.5919 38.6908 36.0579 38.1569 35.3992 38.1569C34.7405 38.1569 34.2065 38.6908 34.2065 39.3496C34.2065 40.0083 34.7405 40.5423 35.3992 40.5423Z" fill="#FCBD5B"/>
  <path d="M34.5656 8.74591C35.2024 8.74591 35.7187 8.22967 35.7187 7.59286C35.7187 6.95605 35.2024 6.43982 34.5656 6.43982C33.9288 6.43982 33.4126 6.95605 33.4126 7.59286C33.4126 8.22967 33.9288 8.74591 34.5656 8.74591Z" fill="#D1ECF5"/>
  <path d="M29.1404 40.5394C29.1287 37.9061 26.9915 35.7747 24.3554 35.7747C21.7194 35.7747 19.582 37.9061 19.5703 40.5394H29.1404Z" fill="white"/>
  <path d="M31.2238 31.0548C30.1258 32.1528 28.4119 32.6348 26.3428 32.2402C25.5536 28.1022 28.2712 25.3845 32.4092 26.1738C32.8039 28.2428 32.3218 29.9567 31.2238 31.0548ZM17.5264 28.6038C18.6244 29.7018 20.3383 30.1839 22.4074 29.7892C23.1966 25.6513 20.4789 22.9336 16.341 23.7228C15.9463 25.7919 16.4284 27.5058 17.5264 28.6038Z" fill="#82AFDD"/>
  <path d="M24.3474 23.04C28.4325 23.04 31.7441 19.7284 31.7441 15.6433C31.7441 11.5582 28.4325 8.24658 24.3474 8.24658C20.2623 8.24658 16.9507 11.5582 16.9507 15.6433C16.9507 19.7284 20.2623 23.04 24.3474 23.04Z" fill="#82AFDD"/>
  <path d="M31.2054 40.1481H29.5105C29.3084 37.615 27.2735 35.5908 24.7391 35.4029V34.2829L26.4779 32.6549C28.7377 33.0277 30.423 32.4086 31.5003 31.3313C32.7411 30.0909 33.2001 28.2332 32.7936 26.1004C32.7635 25.9427 32.6402 25.8194 32.4825 25.7894C30.1985 25.354 28.1597 25.9534 26.9628 27.3999C25.9834 28.5838 25.6233 30.247 25.9269 32.0987L24.7391 33.2108V23.542C28.9229 23.336 32.2659 19.8776 32.2659 15.6435C32.2659 11.2772 28.7139 7.72516 24.3478 7.72516C19.9816 7.72516 16.4295 11.2772 16.4295 15.6435C16.4295 19.8776 19.7726 23.336 23.9565 23.542V30.7092L22.8222 29.6533C23.1274 27.7993 22.7674 26.134 21.787 24.9489C20.5903 23.5024 18.5516 22.9037 16.2674 23.3384C16.1099 23.3684 15.9864 23.4917 15.9564 23.6494C15.5497 25.7822 16.009 27.6402 17.2496 28.8806C18.3318 29.9627 20.0165 30.574 22.2662 30.2047L23.9565 31.7782V35.4037C21.4294 35.5987 19.4023 37.6201 19.2008 40.1481H17.5058C17.2896 40.1481 17.1145 40.3234 17.1145 40.5394C17.1145 40.7555 17.2896 40.9308 17.5058 40.9308C20.7785 40.9308 28.4815 40.9308 31.2054 40.9308C31.4216 40.9308 31.5967 40.7555 31.5967 40.5394C31.5967 40.3234 31.4216 40.1481 31.2054 40.1481ZM27.5658 27.8987C28.5333 26.7292 30.1789 26.2189 32.0706 26.5124C32.3434 28.2691 31.9485 29.7765 30.947 30.778C29.9543 31.7705 28.436 32.1733 26.6812 31.9017C26.4343 30.3046 26.7448 28.8913 27.5658 27.8987ZM17.803 28.3272C16.8013 27.3255 16.4064 25.8181 16.6793 24.0613C18.5712 23.7679 20.2164 24.2784 21.184 25.4477C22.005 26.4403 22.3155 27.8536 22.0686 29.4507C20.5091 29.6924 18.9088 29.4331 17.803 28.3272ZM17.4729 15.6435C17.4729 11.8527 20.557 8.76864 24.3478 8.76864C28.1385 8.76864 31.2225 11.8527 31.2225 15.6435C31.2225 19.4342 28.1385 22.5183 24.3478 22.5183C20.557 22.5183 17.4729 19.4342 17.4729 15.6435ZM19.9811 40.1481C20.1902 37.9237 22.0689 36.1736 24.3422 36.1667C24.3441 36.1667 24.3457 36.1678 24.3478 36.1678C24.3508 36.1678 24.3534 36.1662 24.3564 36.1661C26.6356 36.1665 28.5207 37.9196 28.7301 40.1481H19.9811Z" fill="black"/>
  <path d="M24.3476 20.8197C21.4934 20.8197 19.1714 18.4975 19.1714 15.6433C19.1714 12.7891 21.4934 10.4673 24.3476 10.4673C27.2018 10.4673 29.5238 12.7891 29.5238 15.6433C29.5238 18.4975 27.2018 20.8197 24.3476 20.8197Z" fill="white"/>
  <path d="M24.3479 15.2522C23.8501 15.2522 23.4452 14.8474 23.4452 14.3496C23.4452 13.8518 23.8501 13.4467 24.3479 13.4467C24.8456 13.4467 25.2505 13.8518 25.2505 14.3496C25.2505 14.5656 25.4257 14.7409 25.6418 14.7409C25.858 14.7409 26.0331 14.5656 26.0331 14.3496C26.0331 13.5555 25.4796 12.8922 24.7392 12.7146V12.4053C24.7392 12.1893 24.5641 12.014 24.3479 12.014C24.1318 12.014 23.9566 12.1893 23.9566 12.4053V12.7146C23.2163 12.8922 22.6626 13.5555 22.6626 14.3496C22.6626 15.2789 23.4186 16.0348 24.3479 16.0348C24.8456 16.0348 25.2505 16.4396 25.2505 16.9374C25.2505 17.4352 24.8456 17.8402 24.3479 17.8402C23.8501 17.8402 23.4452 17.4352 23.4452 16.9374C23.4452 16.7214 23.2701 16.5461 23.0539 16.5461C22.8377 16.5461 22.6626 16.7214 22.6626 16.9374C22.6626 17.7551 23.2483 18.4375 24.0221 18.5899V18.8817C24.0221 19.0977 24.1972 19.273 24.4134 19.273C24.6296 19.273 24.8047 19.0977 24.8047 18.8817V18.552C25.5111 18.3513 26.0331 17.7073 26.0331 16.9374C26.0331 16.008 25.2772 15.2522 24.3479 15.2522Z" fill="#82AFDD"/>
</svg>