<svg xmlns="http://www.w3.org/2000/svg" width="48" height="48" viewBox="0 0 48 48" fill="none">
  <path d="M42.9525 23.0473H31.4254C29.2141 23.0473 27.4214 21.2547 27.4214 19.0433C27.4214 16.832 29.2141 15.0393 31.4254 15.0393H42.9525C45.1638 15.0393 46.9565 16.832 46.9565 19.0433C46.9565 21.2547 45.1638 23.0473 42.9525 23.0473ZM8.43076 17.2176H5.04745C2.83611 17.2176 1.04346 15.425 1.04346 13.2136C1.04346 11.0023 2.83611 9.20959 5.04745 9.20959H8.43076C10.6421 9.20959 12.4347 11.0022 12.4347 13.2136C12.4348 15.4249 10.6421 17.2176 8.43076 17.2176ZM19.4212 43.4858H5.13482C2.92347 43.4858 1.13082 41.6932 1.13082 39.4818C1.13082 37.2705 2.92347 35.4778 5.13482 35.4778H19.4212C21.6325 35.4778 23.4252 37.2705 23.4252 39.4818C23.4252 41.6932 21.6325 43.4858 19.4212 43.4858Z" fill="#D1F6E5"/>
  <path d="M41.2189 23.999V43.4859H7.82764V23.999L24.5233 10.0946L41.2189 23.999Z" fill="#48DA97"/>
  <path d="M16.0972 13.5798V30.8806L18.1841 32.618L19.5303 33.7398L24.5233 37.898L29.5164 33.7398L30.8625 32.618L32.9495 30.8806V13.5798H16.0972Z" fill="white"/>
  <path d="M30.8625 18.6667V32.618L29.5164 33.7397L24.5233 37.898L19.5302 33.7397L18.1841 32.618V18.6667C19.8381 18.6667 21.179 17.3206 21.179 15.6667H27.8676C27.8676 17.3206 29.2085 18.6667 30.8625 18.6667Z" fill="#48DA97"/>
  <path d="M41.2189 43.4859L29.5163 33.7398H19.5302L7.82764 43.4859H41.2189Z" fill="white"/>
  <path d="M41.7409 23.9988C41.7409 23.8709 41.638 23.6687 41.5532 23.5978L33.2887 16.715V13.5798C33.2887 13.3926 33.1368 13.2407 32.9496 13.2407H29.1169L24.8575 9.69351C24.6639 9.5325 24.3832 9.5325 24.1896 9.69351L19.9302 13.2407H16.0973C15.91 13.2407 15.7582 13.3926 15.7582 13.5798V16.7152C7.56451 23.65 7.30615 23.5243 7.30615 23.9988V43.4858C7.30615 43.4887 7.30768 43.4911 7.30781 43.494C7.31271 43.8064 7.58965 44.0075 7.82789 44.0075H41.2192C41.4571 44.0075 41.7343 43.8094 41.7393 43.494C41.7394 43.4911 41.7409 43.4887 41.7409 43.4858L41.7409 23.9988ZM40.6975 25.112V42.3722L30.3329 33.7406L40.6975 25.112ZM40.4037 23.9988L33.2887 29.9221V18.0732L40.4037 23.9988ZM24.5235 10.7734L27.4861 13.2407H21.561L24.5235 10.7734ZM32.6105 13.9189V30.4867L29.3295 33.2181H19.7176L16.4363 30.4865V13.9189H32.6105ZM8.34963 25.112L18.7141 33.7405L8.34963 42.3722V25.112ZM15.7582 29.9219L8.64336 23.9988L15.7582 18.0734V29.9219ZM9.26956 42.9641L19.7191 34.2616H29.3277L39.7773 42.9641H9.26956Z" fill="black"/>
  <path d="M24.2141 31.9549C26.5455 31.9549 28.4355 30.0649 28.4355 27.7335C28.4355 25.4021 26.5455 23.5121 24.2141 23.5121C21.8827 23.5121 19.9927 25.4021 19.9927 27.7335C19.9927 30.0649 21.8827 31.9549 24.2141 31.9549Z" fill="white"/>
  <path d="M23.1667 21.3524C22.9795 21.3524 22.8276 21.2005 22.8276 21.0133V17.799C22.8276 17.6118 22.9795 17.46 23.1667 17.46C23.354 17.46 23.5058 17.6118 23.5058 17.799V21.0133C23.5058 21.2005 23.354 21.3524 23.1667 21.3524ZM25.2613 21.3524C25.0741 21.3524 24.9222 21.2005 24.9222 21.0133V17.799C24.9222 17.6118 25.0741 17.46 25.2613 17.46C25.4486 17.46 25.6004 17.6118 25.6004 17.799V21.0133C25.6004 21.2005 25.4486 21.3524 25.2613 21.3524Z" fill="white"/>
  <path d="M23.1048 29.1813C22.3064 29.1813 21.6567 28.5316 21.6567 27.7332C21.6567 26.9348 22.3064 26.2855 23.1048 26.2855C23.292 26.2855 23.4438 26.4373 23.4438 26.6245C23.4438 26.8118 23.292 26.9636 23.1048 26.9636C22.6803 26.9636 22.3349 27.3088 22.3349 27.7332C22.3349 28.1577 22.6803 28.5031 23.1048 28.5031C23.5292 28.5031 23.8746 28.1577 23.8746 27.7332C23.8746 27.546 24.0265 27.3942 24.2137 27.3942C24.401 27.3942 24.5528 27.546 24.5528 27.7332C24.5528 28.5316 23.9032 29.1813 23.1048 29.1813Z" fill="#48DA97"/>
  <path d="M25.3227 29.1813C25.1354 29.1813 24.9836 29.0294 24.9836 28.8422C24.9836 28.6549 25.1354 28.5031 25.3227 28.5031C25.7471 28.5031 26.0925 28.1577 26.0925 27.7332C26.0925 27.3088 25.7471 26.9636 25.3227 26.9636C24.8982 26.9636 24.5528 27.3088 24.5528 27.7332C24.5528 27.9205 24.401 28.0723 24.2137 28.0723C24.0265 28.0723 23.8746 27.9205 23.8746 27.7332C23.8746 26.9348 24.5243 26.2855 25.3227 26.2855C26.1211 26.2855 26.7707 26.9348 26.7707 27.7332C26.7707 28.5316 26.1211 29.1813 25.3227 29.1813ZM21.9958 28.0723H21.4568C21.2695 28.0723 21.1177 27.9205 21.1177 27.7332C21.1177 27.546 21.2695 27.3942 21.4568 27.3942H21.9958C22.1831 27.3942 22.3349 27.546 22.3349 27.7332C22.3349 27.9205 22.1831 28.0723 21.9958 28.0723Z" fill="#48DA97"/>
  <path d="M26.9709 28.0723H26.4319C26.2446 28.0723 26.0928 27.9205 26.0928 27.7332C26.0928 27.546 26.2446 27.3942 26.4319 27.3942H26.9709C27.1582 27.3942 27.31 27.546 27.31 27.7332C27.31 27.9205 27.1582 28.0723 26.9709 28.0723Z" fill="#48DA97"/>
  <path d="M26.7082 6.31307C27.349 6.31307 27.8685 5.79356 27.8685 5.15272C27.8685 4.51188 27.349 3.99237 26.7082 3.99237C26.0674 3.99237 25.5479 4.51188 25.5479 5.15272C25.5479 5.79356 26.0674 6.31307 26.7082 6.31307Z" fill="#CEF6FD"/>
  <path d="M45.8315 36.1811C46.3989 36.1811 46.8588 35.7211 46.8588 35.1538C46.8588 34.5864 46.3989 34.1265 45.8315 34.1265C45.2641 34.1265 44.8042 34.5864 44.8042 35.1538C44.8042 35.7211 45.2641 36.1811 45.8315 36.1811Z" fill="#FFDDD6"/>
  <path d="M3.63811 27.3313C4.02855 27.3313 4.34507 27.0148 4.34507 26.6244C4.34507 26.2339 4.02855 25.9174 3.63811 25.9174C3.24767 25.9174 2.93115 26.2339 2.93115 26.6244C2.93115 27.0148 3.24767 27.3313 3.63811 27.3313Z" fill="#FFBF5A"/>
  <path d="M38.3032 11.9546C38.6896 11.9546 39.0028 11.6414 39.0028 11.2549C39.0028 10.8685 38.6896 10.5553 38.3032 10.5553C37.9168 10.5553 37.6035 10.8685 37.6035 11.2549C37.6035 11.6414 37.9168 11.9546 38.3032 11.9546Z" fill="#F68CFF"/>
</svg>