<svg width="315" height="175" viewBox="0 0 315 175" fill="none" xmlns="http://www.w3.org/2000/svg">
<defs>
<linearGradient id="paint0_linear_7739_72003" x1="157" y1="-96" x2="231.807" y2="244.433" gradientUnits="userSpaceOnUse">
<stop stop-color="#0073FF" stop-opacity="0"/>
<stop offset="1" stop-color="#CAD9ED"/>
</linearGradient>
<clipPath id="clip0_7739_72003">
<rect width="315" height="175" fill="white"/>
</clipPath>
</defs>
<g clip-path="url(#clip0_7739_72003)">
<path d="M19.3159 174.652C19.3159 174.652 -19.3852 133.041 12.7713 87.9899C41.3029 48.0188 74.5667 50.751 98.9724 66.9715C109.367 73.8803 139.336 67.823 164.844 27.1508C199.628 -28.3153 320.207 5.32457 298.222 90.6616C287.583 131.959 330.602 133.46 308.682 174.739L19.3159 174.652Z" fill="url(#paint0_linear_7739_72003)" fill-opacity="0.4"/>
<path d="M202.237 130.27L205.205 130.758C205.441 130.797 205.651 130.897 205.815 131.035C205.989 131.18 206.113 131.369 206.166 131.577C206.183 131.64 206.193 131.704 206.194 131.769C206.197 131.829 206.194 131.889 206.184 131.95L199.354 173.401C199.266 173.935 198.711 174.296 198.104 174.224C198.085 174.222 198.065 174.219 198.045 174.215L195.077 173.727C195.057 173.723 195.038 173.72 195.018 173.716C194.42 173.59 194.009 173.071 194.098 172.536L200.928 131.084C200.938 131.023 200.953 130.966 200.975 130.91C200.998 130.85 201.028 130.791 201.064 130.737C201.181 130.558 201.358 130.419 201.57 130.336C201.77 130.258 202 130.231 202.237 130.27Z" fill="#FFB93E"/>
<path d="M202.996 151.302L199.336 173.509C199.258 173.987 198.709 174.299 198.103 174.224C198.084 174.222 198.063 174.219 198.044 174.215L195.076 173.727C195.056 173.723 195.037 173.72 195.016 173.716C194.418 173.593 194 173.121 194.079 172.644L197.289 153.164C198.888 153.107 201.147 152.735 202.995 151.302H202.996Z" fill="#FFA412"/>
<path d="M200.249 135.111L200.171 135.582L205.427 136.451L205.504 135.98L200.249 135.111Z" fill="#FFA412"/>
<path d="M200.009 136.728L199.932 137.199L205.188 138.067L205.265 137.596L200.009 136.728Z" fill="#FFA412"/>
<path d="M199.674 138.622L199.597 139.093L204.853 139.961L204.93 139.49L199.674 138.622Z" fill="#FFA412"/>
<path d="M199.203 141.565L199.125 142.036L204.381 142.904L204.458 142.433L199.203 141.565Z" fill="#FFA412"/>
<path d="M198.689 144.661L198.611 145.132L203.867 146.001L203.945 145.53L198.689 144.661Z" fill="#FFA412"/>
<path d="M197.913 149.421L197.836 149.892L203.092 150.759L203.169 150.288L197.913 149.421Z" fill="#FFA412"/>
<path d="M197.161 153.849L197.083 154.32L202.339 155.189L202.416 154.718L197.161 153.849Z" fill="#FFA412"/>
<path d="M196.523 157.839L196.445 158.31L201.701 159.179L201.779 158.708L196.523 157.839Z" fill="#FFA412"/>
<path d="M200.519 133.612L200.441 134.083L205.697 134.951L205.775 134.48L200.519 133.612Z" fill="#FFA412"/>
<path d="M200.675 132.601L200.598 133.072L205.853 133.941L205.931 133.47L200.675 132.601Z" fill="#FFA412"/>
<path d="M200.842 131.642L200.765 132.113L206.021 132.98L206.098 132.509L200.842 131.642Z" fill="#FFA412"/>
<path d="M200.88 131.378L206.136 132.244L206.185 131.949C206.196 131.889 206.198 131.829 206.196 131.769L200.975 130.91C200.953 130.965 200.938 131.023 200.928 131.084L200.879 131.378H200.88Z" fill="#FFA412"/>
<path d="M201.064 130.737L206.166 131.577C206.113 131.371 205.989 131.182 205.815 131.035L201.569 130.335C201.358 130.418 201.179 130.556 201.062 130.735L201.064 130.737Z" fill="#FFA412"/>
<path d="M207.622 130.269L210.591 130.758C210.827 130.797 211.037 130.897 211.201 131.035C211.374 131.18 211.499 131.369 211.552 131.576C211.568 131.639 211.577 131.704 211.58 131.769C211.583 131.828 211.58 131.889 211.57 131.949L204.74 173.401C204.651 173.935 204.096 174.296 203.49 174.224C203.471 174.222 203.45 174.219 203.431 174.215L200.462 173.726C200.443 173.723 200.424 173.72 200.403 173.716C199.806 173.59 199.395 173.07 199.484 172.535L206.313 131.084C206.324 131.023 206.339 130.965 206.361 130.91C206.384 130.849 206.414 130.79 206.45 130.736C206.566 130.557 206.744 130.419 206.956 130.336C207.156 130.258 207.386 130.231 207.622 130.269Z" fill="#FFB93E"/>
<path d="M208.381 151.302L204.721 173.509C204.643 173.986 204.094 174.299 203.488 174.224C203.469 174.222 203.448 174.219 203.429 174.215L200.46 173.726C200.441 173.723 200.422 173.72 200.401 173.716C199.803 173.593 199.385 173.121 199.464 172.643L202.674 153.163C204.273 153.107 206.532 152.735 208.379 151.302H208.381Z" fill="#FFA412"/>
<path d="M205.632 135.111L205.555 135.582L210.81 136.451L210.888 135.98L205.632 135.111Z" fill="#FFA412"/>
<path d="M205.4 136.733L205.322 137.204L210.578 138.071L210.656 137.6L205.4 136.733Z" fill="#FFA412"/>
<path d="M205.057 138.62L204.979 139.091L210.235 139.96L210.313 139.489L205.057 138.62Z" fill="#FFA412"/>
<path d="M204.582 141.56L204.505 142.031L209.761 142.899L209.838 142.428L204.582 141.56Z" fill="#FFA412"/>
<path d="M204.074 144.66L203.996 145.131L209.252 145.999L209.33 145.528L204.074 144.66Z" fill="#FFA412"/>
<path d="M203.283 149.404L203.205 149.875L208.461 150.743L208.539 150.272L203.283 149.404Z" fill="#FFA412"/>
<path d="M202.556 153.86L202.479 154.331L207.734 155.2L207.812 154.729L202.556 153.86Z" fill="#FFA412"/>
<path d="M201.903 157.834L201.825 158.305L207.081 159.173L207.159 158.703L201.903 157.834Z" fill="#FFA412"/>
<path d="M205.886 133.597L205.809 134.068L211.064 134.936L211.142 134.465L205.886 133.597Z" fill="#FFA412"/>
<path d="M206.077 132.616L205.999 133.087L211.255 133.955L211.332 133.484L206.077 132.616Z" fill="#FFA412"/>
<path d="M206.227 131.641L206.149 132.112L211.405 132.98L211.483 132.509L206.227 131.641Z" fill="#FFA412"/>
<path d="M206.265 131.378L211.521 132.244L211.57 131.949C211.58 131.889 211.583 131.828 211.58 131.769L206.36 130.91C206.338 130.965 206.323 131.023 206.312 131.084L206.264 131.378H206.265Z" fill="#FFA412"/>
<path d="M206.45 130.736L211.552 131.576C211.499 131.37 211.374 131.181 211.201 131.035L206.954 130.335C206.744 130.417 206.565 130.556 206.448 130.735L206.45 130.736Z" fill="#FFA412"/>
<path d="M187.927 170.065L187.922 173.077C187.922 173.318 187.858 173.54 187.747 173.725C187.632 173.92 187.465 174.073 187.271 174.159C187.212 174.186 187.149 174.205 187.085 174.218C187.027 174.23 186.966 174.236 186.906 174.236L144.953 174.136C144.412 174.136 143.967 173.643 143.94 173.032C143.94 173.012 143.94 172.992 143.94 172.973L143.946 169.96C143.946 169.941 143.946 169.921 143.946 169.901C143.974 169.29 144.421 168.801 144.962 168.803L186.915 168.903C186.975 168.903 187.036 168.909 187.094 168.922C187.158 168.935 187.22 168.956 187.28 168.983C187.474 169.069 187.641 169.223 187.755 169.419C187.864 169.604 187.929 169.828 187.929 170.067L187.927 170.065Z" fill="#FFB93E"/>
<path d="M167.319 174.19L144.842 174.136C144.359 174.136 143.963 173.643 143.939 173.032C143.939 173.012 143.939 172.992 143.939 172.973L143.945 169.96C143.945 169.941 143.945 169.921 143.945 169.901C143.97 169.29 144.368 168.801 144.851 168.803L164.567 168.849C164.88 170.421 165.609 172.594 167.318 174.19H167.319Z" fill="#FFA412"/>
<path d="M182.364 168.904L182.351 174.239L182.827 174.24L182.84 168.906L182.364 168.904Z" fill="#FFA412"/>
<path d="M180.747 168.899L180.734 174.233L181.211 174.235L181.224 168.9L180.747 168.899Z" fill="#FFA412"/>
<path d="M178.795 168.879L178.781 174.213L179.258 174.215L179.272 168.88L178.795 168.879Z" fill="#FFA412"/>
<path d="M175.82 168.864L175.808 174.198L176.284 174.2L176.296 168.865L175.82 168.864Z" fill="#FFA412"/>
<path d="M172.708 168.881L172.695 174.215L173.172 174.216L173.185 168.882L172.708 168.881Z" fill="#FFA412"/>
<path d="M167.9 168.869L167.887 174.204L168.363 174.205L168.376 168.871L167.9 168.869Z" fill="#FFA412"/>
<path d="M163.397 168.859L163.384 174.193L163.86 174.195L163.873 168.86L163.397 168.859Z" fill="#FFA412"/>
<path d="M159.362 168.838L159.349 174.172L159.825 174.173L159.839 168.839L159.362 168.838Z" fill="#FFA412"/>
<path d="M183.899 168.908L183.886 174.243L184.362 174.244L184.375 168.909L183.899 168.908Z" fill="#FFA412"/>
<path d="M184.899 168.896L184.888 174.23L185.364 174.231L185.375 168.897L184.899 168.896Z" fill="#FFA412"/>
<path d="M185.895 168.912L185.882 174.247L186.358 174.248L186.371 168.913L185.895 168.912Z" fill="#FFA412"/>
<path d="M186.616 168.901L186.605 174.235H186.903C186.965 174.235 187.024 174.23 187.082 174.217L187.092 168.92C187.034 168.907 186.974 168.901 186.914 168.901H186.616Z" fill="#FFA412"/>
<path d="M187.279 168.98L187.27 174.159C187.465 174.074 187.63 173.921 187.746 173.726L187.754 169.417C187.638 169.221 187.472 169.068 187.279 168.98Z" fill="#FFA412"/>
<path d="M183.453 164.72L183.448 167.733C183.448 167.973 183.383 168.196 183.273 168.381C183.157 168.575 182.99 168.728 182.796 168.815C182.737 168.842 182.674 168.861 182.61 168.874C182.552 168.885 182.492 168.892 182.432 168.892L140.478 168.791C139.937 168.791 139.493 168.299 139.466 167.688C139.466 167.667 139.466 167.648 139.466 167.629L139.471 164.616C139.471 164.597 139.471 164.576 139.471 164.557C139.499 163.946 139.946 163.457 140.487 163.458L182.441 163.559C182.467 163.559 182.494 163.56 182.52 163.562C182.532 163.562 182.543 163.564 182.555 163.566C182.568 163.566 182.581 163.57 182.592 163.571C182.601 163.571 182.61 163.575 182.619 163.577C182.683 163.589 182.745 163.61 182.804 163.637C182.813 163.641 182.822 163.645 182.831 163.65C182.84 163.654 182.849 163.658 182.857 163.663C182.873 163.672 182.891 163.682 182.908 163.691C182.917 163.698 182.927 163.704 182.938 163.71C182.947 163.717 182.954 163.721 182.963 163.728C182.98 163.739 182.995 163.75 183.011 163.763C183.029 163.777 183.046 163.793 183.063 163.808C183.076 163.82 183.089 163.833 183.103 163.845C183.103 163.845 183.105 163.845 183.106 163.848C183.115 163.857 183.123 163.866 183.132 163.875C183.157 163.902 183.182 163.932 183.205 163.961C183.212 163.97 183.219 163.979 183.225 163.988C183.232 163.997 183.238 164.006 183.245 164.017C183.257 164.036 183.27 164.055 183.282 164.076C183.391 164.262 183.455 164.485 183.455 164.724L183.453 164.72Z" fill="#FFB93E"/>
<path d="M162.842 168.844L140.366 168.79C139.883 168.79 139.486 168.297 139.463 167.686C139.463 167.666 139.463 167.646 139.463 167.627L139.468 164.615C139.468 164.595 139.468 164.575 139.468 164.555C139.494 163.944 139.892 163.456 140.375 163.456L160.09 163.503C160.099 163.547 160.108 163.591 160.117 163.634C160.443 165.193 161.179 167.293 162.84 168.844H162.842Z" fill="#FFA412"/>
<path d="M177.861 163.533L177.849 168.867L178.325 168.868L178.337 163.534L177.861 163.533Z" fill="#FFA412"/>
<path d="M176.247 163.53L176.235 168.864L176.712 168.865L176.724 163.531L176.247 163.53Z" fill="#FFA412"/>
<path d="M174.337 163.549L174.324 168.883L174.801 168.884L174.814 163.55L174.337 163.549Z" fill="#FFA412"/>
<path d="M171.37 163.542L171.357 168.877L171.834 168.878L171.847 163.544L171.37 163.542Z" fill="#FFA412"/>
<path d="M168.218 163.52L168.207 168.854L168.684 168.855L168.695 163.521L168.218 163.52Z" fill="#FFA412"/>
<path d="M163.412 163.512L163.398 168.846L163.875 168.848L163.889 163.513L163.412 163.512Z" fill="#FFA412"/>
<path d="M158.918 163.511L158.905 168.846L159.382 168.847L159.395 163.513L158.918 163.511Z" fill="#FFA412"/>
<path d="M154.885 163.489L154.874 168.824L155.351 168.825L155.362 163.49L154.885 163.489Z" fill="#FFA412"/>
<path d="M179.396 163.537L179.384 168.871L179.86 168.872L179.872 163.538L179.396 163.537Z" fill="#FFA412"/>
<path d="M180.439 163.563L180.426 168.897L180.902 168.899L180.915 163.564L180.439 163.563Z" fill="#FFA412"/>
<path d="M181.419 163.566L181.406 168.9L181.883 168.901L181.896 163.567L181.419 163.566Z" fill="#FFA412"/>
<path d="M182.141 163.554L182.131 168.889H182.429C182.49 168.889 182.55 168.884 182.607 168.871L182.618 163.574C182.56 163.561 182.499 163.554 182.439 163.554H182.141Z" fill="#FFA412"/>
<path d="M182.804 163.635L182.795 168.813C182.99 168.728 183.156 168.575 183.271 168.379L183.279 164.07C183.164 163.875 182.998 163.722 182.804 163.634V163.635Z" fill="#FFA412"/>
<path d="M185.628 159.522L185.623 162.534C185.623 162.775 185.559 162.998 185.449 163.183C185.333 163.377 185.166 163.531 184.972 163.616C184.913 163.643 184.85 163.663 184.786 163.675C184.728 163.687 184.668 163.693 184.607 163.693L142.654 163.593C142.486 163.593 142.326 163.544 142.186 163.461C141.89 163.282 141.678 162.94 141.645 162.541C141.644 162.524 141.643 162.506 141.642 162.489C141.642 162.47 141.642 162.45 141.642 162.43L141.647 159.418C141.647 159.398 141.647 159.378 141.647 159.359C141.675 158.748 142.122 158.259 142.663 158.26L184.616 158.359C184.678 158.359 184.737 158.365 184.795 158.378C184.859 158.391 184.921 158.412 184.981 158.439C185.175 158.525 185.341 158.679 185.456 158.875C185.566 159.06 185.63 159.284 185.628 159.523V159.522Z" fill="#FFB93E"/>
<path d="M165.019 163.646L142.543 163.592C142.393 163.592 142.25 163.543 142.125 163.459C141.861 163.281 141.672 162.938 141.643 162.541C141.641 162.524 141.64 162.506 141.639 162.489C141.639 162.47 141.639 162.45 141.639 162.43L141.644 159.418C141.644 159.398 141.644 159.378 141.644 159.359C141.669 158.748 142.068 158.259 142.551 158.26L162.267 158.306C162.57 159.834 163.269 161.932 164.879 163.516C164.924 163.56 164.971 163.605 165.017 163.648L165.019 163.646Z" fill="#FFA412"/>
<path d="M186.644 154.189L186.639 157.201C186.639 157.442 186.575 157.664 186.464 157.85C186.349 158.044 186.182 158.198 185.988 158.283C185.929 158.31 185.866 158.329 185.801 158.342C185.742 158.354 185.683 158.36 185.623 158.36L143.669 158.26C143.129 158.26 142.684 157.767 142.657 157.156C142.657 157.136 142.657 157.116 142.657 157.097L142.662 154.084C142.662 154.065 142.662 154.045 142.662 154.025C142.688 153.459 143.072 152.999 143.558 152.934C143.597 152.929 143.637 152.927 143.678 152.927L185.632 153.027C185.694 153.027 185.753 153.034 185.81 153.046C185.875 153.059 185.936 153.08 185.997 153.107C186.191 153.193 186.358 153.347 186.472 153.543C186.581 153.728 186.645 153.952 186.644 154.191V154.189Z" fill="#FFB93E"/>
<path d="M166.035 158.314L143.558 158.26C143.075 158.26 142.678 157.767 142.655 157.156C142.655 157.136 142.655 157.116 142.655 157.097L142.66 154.084C142.66 154.065 142.66 154.045 142.66 154.025C142.684 153.461 143.027 152.999 143.461 152.934C143.495 152.929 143.531 152.927 143.567 152.927L163.283 152.973C163.283 152.973 163.283 152.98 163.285 152.982C163.598 154.551 164.328 156.721 166.033 158.315L166.035 158.314Z" fill="#FFA412"/>
<path d="M183.569 148.854L183.564 151.867C183.564 152.108 183.5 152.33 183.389 152.515C183.274 152.71 183.107 152.863 182.913 152.949C182.854 152.976 182.791 152.995 182.727 153.008C182.707 153.012 182.687 153.016 182.667 153.018C182.657 153.018 182.646 153.021 182.634 153.022C182.624 153.023 182.612 153.025 182.601 153.025C182.583 153.025 182.565 153.026 182.547 153.026L140.593 152.926C140.052 152.924 139.608 152.433 139.581 151.822C139.581 151.803 139.581 151.782 139.581 151.763L139.586 148.75C139.586 148.73 139.586 148.71 139.586 148.691C139.586 148.674 139.587 148.659 139.589 148.642C139.63 148.151 139.943 147.746 140.352 147.627C140.362 147.623 140.372 147.622 140.383 147.618C140.453 147.6 140.526 147.591 140.602 147.591L182.556 147.692C182.587 147.692 182.617 147.694 182.647 147.697C182.661 147.699 182.674 147.701 182.688 147.702C182.703 147.705 182.719 147.708 182.736 147.711C182.8 147.724 182.861 147.744 182.922 147.771C183.116 147.858 183.283 148.012 183.397 148.207C183.506 148.393 183.57 148.616 183.57 148.856L183.569 148.854Z" fill="#FFB93E"/>
<path d="M162.96 152.98L140.484 152.926C140.001 152.926 139.604 152.433 139.581 151.822C139.581 151.803 139.581 151.782 139.581 151.763L139.586 148.75C139.586 148.73 139.586 148.71 139.586 148.691C139.586 148.674 139.587 148.659 139.589 148.642C139.626 148.139 139.918 147.729 140.294 147.62C140.307 147.614 140.32 147.612 140.332 147.609C140.385 147.598 140.438 147.591 140.493 147.591L160.209 147.638C160.212 147.65 160.214 147.662 160.217 147.676C160.533 149.242 161.262 151.389 162.95 152.972C162.953 152.975 162.957 152.977 162.959 152.98H162.96Z" fill="#FFA412"/>
<path d="M183.489 143.557L183.484 146.57C183.484 146.81 183.419 147.033 183.309 147.218C183.193 147.414 183.026 147.565 182.831 147.652C182.785 147.672 182.736 147.689 182.686 147.702C182.672 147.706 182.659 147.708 182.646 147.711C182.588 147.722 182.528 147.729 182.468 147.729L140.514 147.63C140.47 147.63 140.426 147.626 140.383 147.619C140.366 147.618 140.35 147.614 140.333 147.61C139.877 147.515 139.525 147.068 139.502 146.526C139.502 146.505 139.502 146.486 139.502 146.467L139.507 143.454C139.507 143.434 139.507 143.414 139.507 143.395C139.535 142.784 139.982 142.295 140.523 142.297L182.477 142.397C182.504 142.397 182.531 142.398 182.556 142.401C182.568 142.401 182.579 142.403 182.591 142.405C182.604 142.406 182.617 142.409 182.628 142.411C182.637 142.411 182.646 142.415 182.655 142.416C182.719 142.429 182.781 142.45 182.841 142.477C182.85 142.481 182.858 142.484 182.868 142.49C182.877 142.493 182.885 142.497 182.894 142.502C182.911 142.511 182.929 142.522 182.945 142.531C182.963 142.542 182.983 142.554 183.001 142.567C183.017 142.578 183.033 142.59 183.048 142.601C183.066 142.616 183.083 142.631 183.1 142.647C183.114 142.658 183.127 142.67 183.139 142.684C183.139 142.684 183.141 142.684 183.142 142.686C183.151 142.694 183.16 142.704 183.168 142.713C183.193 142.74 183.218 142.77 183.241 142.8C183.249 142.809 183.255 142.818 183.261 142.827C183.268 142.837 183.274 142.845 183.281 142.855C183.294 142.874 183.306 142.893 183.318 142.914C183.427 143.099 183.491 143.323 183.49 143.562L183.489 143.557Z" fill="#FFB93E"/>
<path d="M162.88 147.683L140.404 147.629C140.386 147.629 140.368 147.629 140.35 147.626C140.331 147.625 140.311 147.622 140.292 147.618C139.861 147.549 139.522 147.088 139.501 146.524C139.501 146.503 139.501 146.484 139.501 146.465L139.506 143.452C139.506 143.431 139.506 143.412 139.506 143.393C139.532 142.782 139.93 142.293 140.413 142.293L160.128 142.339C160.137 142.383 160.146 142.427 160.155 142.47C160.478 144.017 161.204 146.094 162.838 147.643C162.851 147.656 162.865 147.667 162.878 147.68L162.88 147.683Z" fill="#FFA412"/>
<path d="M185.667 138.36L185.661 141.372C185.661 141.613 185.597 141.835 185.487 142.02C185.371 142.215 185.204 142.368 185.01 142.454C184.951 142.481 184.888 142.5 184.824 142.513C184.766 142.525 184.706 142.531 184.645 142.531L142.692 142.431C142.524 142.431 142.364 142.382 142.224 142.298C141.928 142.119 141.717 141.777 141.684 141.379C141.682 141.362 141.681 141.344 141.68 141.327C141.68 141.308 141.68 141.287 141.68 141.268L141.685 138.255C141.685 138.236 141.685 138.215 141.685 138.196C141.713 137.585 142.16 137.096 142.701 137.098L184.654 137.197C184.716 137.197 184.775 137.203 184.833 137.216C184.897 137.229 184.959 137.249 185.019 137.276C185.213 137.363 185.38 137.517 185.494 137.713C185.604 137.898 185.668 138.122 185.668 138.361L185.667 138.36Z" fill="#FFB93E"/>
<path d="M165.058 142.485L142.581 142.432C142.431 142.432 142.289 142.383 142.164 142.299C141.899 142.121 141.71 141.78 141.681 141.381C141.679 141.364 141.678 141.346 141.677 141.33C141.677 141.31 141.677 141.29 141.677 141.27L141.682 138.258C141.682 138.239 141.682 138.218 141.682 138.199C141.708 137.588 142.107 137.099 142.589 137.099L162.305 137.145C162.608 138.673 163.307 140.773 164.917 142.355C164.962 142.399 165.009 142.444 165.055 142.486L165.058 142.485Z" fill="#FFA412"/>
<path d="M189.105 133.033L189.1 136.045C189.1 136.286 189.036 136.509 188.925 136.694C188.81 136.888 188.643 137.041 188.449 137.127C188.39 137.154 188.327 137.174 188.262 137.186C188.205 137.198 188.144 137.204 188.084 137.204L146.13 137.104C145.59 137.104 145.145 136.611 145.118 136C145.118 135.981 145.118 135.961 145.118 135.941L145.123 132.929C145.123 132.909 145.123 132.889 145.123 132.87C145.149 132.305 145.533 131.843 146.019 131.779C146.058 131.774 146.098 131.771 146.138 131.771L188.092 131.871C188.153 131.871 188.212 131.878 188.27 131.891C188.334 131.903 188.396 131.924 188.455 131.951C188.649 132.037 188.816 132.192 188.93 132.387C189.04 132.572 189.104 132.796 189.102 133.035L189.105 133.033Z" fill="#FFB93E"/>
<path d="M168.498 137.158L146.021 137.104C145.538 137.104 145.141 136.611 145.118 136C145.118 135.981 145.118 135.961 145.118 135.941L145.123 132.929C145.123 132.909 145.123 132.889 145.123 132.87C145.146 132.305 145.489 131.843 145.924 131.779C145.958 131.774 145.994 131.771 146.03 131.771L165.746 131.817C165.746 131.817 165.746 131.822 165.747 131.826C166.061 133.397 166.79 135.566 168.496 137.159L168.498 137.158Z" fill="#FFA412"/>
<path d="M183.608 127.693L183.603 130.706C183.603 130.946 183.539 131.169 183.428 131.354C183.313 131.548 183.146 131.701 182.952 131.788C182.892 131.815 182.83 131.834 182.765 131.847C182.746 131.851 182.726 131.855 182.706 131.857C182.691 131.86 182.674 131.861 182.659 131.862C182.651 131.862 182.643 131.862 182.636 131.865C182.619 131.865 182.603 131.865 182.587 131.865L140.633 131.764C140.093 131.764 139.648 131.272 139.621 130.661C139.621 130.642 139.621 130.621 139.621 130.602L139.626 127.589C139.626 127.57 139.626 127.549 139.626 127.53C139.654 126.919 140.102 126.43 140.642 126.431L182.596 126.532C182.614 126.532 182.632 126.532 182.65 126.534C182.692 126.537 182.735 126.543 182.774 126.551C182.839 126.564 182.9 126.584 182.961 126.611C182.991 126.626 183.021 126.64 183.048 126.657C183.066 126.667 183.084 126.677 183.101 126.689C183.102 126.689 183.104 126.69 183.106 126.693C183.122 126.704 183.14 126.717 183.157 126.73C183.161 126.731 183.164 126.734 183.166 126.736C183.182 126.748 183.197 126.761 183.211 126.775C183.247 126.806 183.28 126.839 183.313 126.876C183.323 126.887 183.332 126.898 183.341 126.91C183.342 126.911 183.345 126.914 183.346 126.916C183.352 126.923 183.357 126.93 183.364 126.938C183.364 126.938 183.366 126.941 183.368 126.943C183.378 126.956 183.388 126.97 183.397 126.986C183.411 127.006 183.424 127.027 183.437 127.049C183.546 127.234 183.611 127.458 183.609 127.697L183.608 127.693Z" fill="#FFB93E"/>
<path d="M162.998 131.818L140.521 131.764C140.038 131.764 139.641 131.272 139.618 130.661C139.618 130.641 139.618 130.621 139.618 130.601L139.623 127.589C139.623 127.57 139.623 127.549 139.623 127.53C139.649 126.919 140.048 126.43 140.53 126.43L160.246 126.478C160.254 126.517 160.263 126.559 160.272 126.601C160.596 128.159 161.329 130.257 162.987 131.811C162.99 131.813 162.994 131.817 162.996 131.82L162.998 131.818Z" fill="#FFA412"/>
<path d="M186.701 122.489L186.696 125.501C186.696 125.742 186.631 125.964 186.521 126.15C186.405 126.344 186.238 126.497 186.044 126.583C185.985 126.61 185.922 126.629 185.858 126.642C185.799 126.654 185.74 126.66 185.68 126.66L143.726 126.56C143.563 126.56 143.409 126.515 143.273 126.435C142.967 126.259 142.749 125.91 142.716 125.503C142.716 125.487 142.714 125.472 142.714 125.455C142.714 125.436 142.714 125.415 142.714 125.396L142.719 122.383C142.719 122.363 142.719 122.343 142.719 122.324C142.745 121.758 143.129 121.298 143.614 121.233C143.654 121.228 143.694 121.226 143.735 121.226L185.689 121.326C185.75 121.326 185.809 121.332 185.867 121.345C185.931 121.358 185.993 121.379 186.053 121.406C186.247 121.492 186.413 121.646 186.529 121.842C186.638 122.027 186.702 122.251 186.701 122.49V122.489Z" fill="#FFB93E"/>
<path d="M166.092 126.614L143.616 126.56C143.471 126.56 143.333 126.515 143.211 126.435C142.939 126.259 142.744 125.91 142.715 125.504C142.715 125.488 142.713 125.473 142.713 125.456C142.713 125.437 142.713 125.416 142.713 125.397L142.718 122.384C142.718 122.364 142.718 122.345 142.718 122.325C142.741 121.761 143.084 121.299 143.518 121.235C143.553 121.229 143.589 121.227 143.625 121.227L163.341 121.273C163.341 121.273 163.341 121.28 163.342 121.282C163.647 122.813 164.348 124.911 165.963 126.492C166.005 126.534 166.047 126.574 166.091 126.615L166.092 126.614Z" fill="#FFA412"/>
<path d="M183.626 117.156L183.621 120.168C183.621 120.409 183.556 120.631 183.446 120.817C183.33 121.012 183.163 121.164 182.969 121.25C182.91 121.277 182.847 121.296 182.783 121.309C182.764 121.313 182.743 121.317 182.724 121.319C182.714 121.319 182.702 121.322 182.691 121.323C182.68 121.323 182.669 121.325 182.657 121.326C182.639 121.326 182.621 121.327 182.603 121.327L140.65 121.227C140.109 121.227 139.665 120.734 139.638 120.123C139.638 120.103 139.638 120.083 139.638 120.064L139.643 117.051C139.643 117.032 139.643 117.012 139.643 116.992C139.671 116.381 140.118 115.893 140.659 115.894L182.612 115.994C182.674 115.994 182.733 116.001 182.791 116.013C182.855 116.026 182.917 116.047 182.977 116.074C183.171 116.16 183.338 116.314 183.452 116.51C183.562 116.695 183.626 116.919 183.626 117.158V117.156Z" fill="#FFB93E"/>
<path d="M163.018 121.28L140.542 121.227C140.059 121.227 139.662 120.734 139.639 120.123C139.639 120.103 139.639 120.083 139.639 120.064L139.644 117.051C139.644 117.032 139.644 117.012 139.644 116.992C139.67 116.381 140.068 115.893 140.551 115.894L160.267 115.94C160.578 117.509 161.306 119.677 163.008 121.273C163.01 121.276 163.014 121.278 163.017 121.281L163.018 121.28Z" fill="#FFA412"/>
<path d="M180.064 158.359L180.051 163.693L180.527 163.694L180.54 158.36L180.064 158.359Z" fill="#FFA412"/>
<path d="M178.435 158.343L178.424 163.677L178.9 163.678L178.912 158.344L178.435 158.343Z" fill="#FFA412"/>
<path d="M176.495 158.333L176.483 163.668L176.96 163.669L176.971 158.334L176.495 158.333Z" fill="#FFA412"/>
<path d="M173.548 158.343L173.535 163.678L174.012 163.679L174.025 158.345L173.548 158.343Z" fill="#FFA412"/>
<path d="M170.41 158.337L170.397 163.671L170.874 163.673L170.887 158.338L170.41 158.337Z" fill="#FFA412"/>
<path d="M165.599 158.325L165.586 163.66L166.062 163.661L166.076 158.326L165.599 158.325Z" fill="#FFA412"/>
<path d="M161.082 158.301L161.071 163.636L161.548 163.637L161.559 158.302L161.082 158.301Z" fill="#FFA412"/>
<path d="M157.076 158.305L157.062 163.639L157.539 163.64L157.552 158.306L157.076 158.305Z" fill="#FFA412"/>
<path d="M181.602 158.363L181.589 163.697L182.065 163.698L182.078 158.364L181.602 158.363Z" fill="#FFA412"/>
<path d="M182.6 158.353L182.589 163.687L183.065 163.688L183.077 158.354L182.6 158.353Z" fill="#FFA412"/>
<path d="M183.597 158.368L183.584 163.702L184.061 163.704L184.074 158.369L183.597 158.368Z" fill="#FFA412"/>
<path d="M184.319 158.357L184.31 163.691H184.608C184.669 163.691 184.728 163.686 184.786 163.673L184.796 158.376C184.739 158.363 184.678 158.357 184.618 158.357H184.32H184.319Z" fill="#FFA412"/>
<path d="M184.981 158.436L184.972 163.615C185.167 163.529 185.333 163.377 185.448 163.182L185.456 158.872C185.34 158.677 185.175 158.524 184.981 158.436Z" fill="#FFA412"/>
<path d="M166.616 152.992L166.603 158.327L167.079 158.328L167.092 152.993L166.616 152.992Z" fill="#FFA412"/>
<path d="M162.086 152.958L162.074 158.293L162.551 158.294L162.563 152.959L162.086 152.958Z" fill="#FFA412"/>
<path d="M158.089 152.971L158.076 158.306L158.553 158.307L158.566 152.972L158.089 152.971Z" fill="#FFA412"/>
<path d="M183.067 158.354L183.078 153.02H182.659C182.681 153.016 182.704 153.013 182.726 153.008L182.736 147.711C182.707 147.705 182.677 147.701 182.647 147.697L182.656 142.527H182.843L182.834 147.652C183.029 147.567 183.195 147.414 183.31 147.218L183.318 142.909C183.223 142.748 183.092 142.617 182.94 142.527H183.107L183.118 137.193H182.641L182.632 142.409C182.582 142.4 182.532 142.395 182.479 142.395H182.181L182.171 147.729H182.26L182.249 153.026H182.547C182.565 153.026 182.583 153.026 182.601 153.025L182.591 158.354H183.067Z" fill="#FFA412"/>
<path d="M183.631 153.032L183.618 158.366L184.095 158.368L184.108 153.033L183.631 153.032Z" fill="#FFA412"/>
<path d="M184.598 153.023L184.584 158.358L185.061 158.359L185.074 153.025L184.598 153.023Z" fill="#FFA412"/>
<path d="M185.333 153.025L185.322 158.359H185.62C185.682 158.359 185.741 158.354 185.799 158.341L185.808 153.044C185.75 153.031 185.69 153.025 185.629 153.025H185.331H185.333Z" fill="#FFA412"/>
<path d="M185.993 153.105L185.984 158.283C186.18 158.197 186.345 158.045 186.461 157.85L186.469 153.541C186.353 153.345 186.187 153.192 185.993 153.105Z" fill="#FFA412"/>
<path d="M178.455 153.017L178.466 147.681H178.377L178.387 142.384H177.911L177.901 147.719H177.989L177.979 153.007L177.514 153.005L177.505 158.341L177.981 158.342L177.99 153.016L178.455 153.017Z" fill="#FFA412"/>
<path d="M174.917 147.674H174.828L174.838 142.377L174.361 142.375L174.352 147.71H174.439L174.43 153.007H174.548L174.538 158.334L175.014 158.335L175.025 153H174.906L174.917 147.674Z" fill="#FFA412"/>
<path d="M182.92 147.77L182.911 152.949C183.106 152.864 183.272 152.709 183.388 152.515L183.395 148.206C183.28 148.011 183.114 147.857 182.92 147.77Z" fill="#FFA412"/>
<path d="M171.872 142.369H171.395L171.385 147.703H171.473L171.463 152.991H171.41L171.401 158.325L171.878 158.327L171.887 153L171.941 153.001L171.95 147.666H171.861L171.872 142.369Z" fill="#FFA412"/>
<path d="M168.735 142.362L168.257 142.361L168.248 147.695H168.337L168.326 152.993L168.803 152.994L168.813 147.658H168.725L168.735 142.362Z" fill="#FFA412"/>
<path d="M163.923 142.351L163.446 142.35L163.438 147.684H163.525L163.516 152.981L163.992 152.983L164.001 147.648L163.914 147.647L163.923 142.351Z" fill="#FFA412"/>
<path d="M159.421 142.339L158.944 142.338L158.935 147.674H159.023L159.013 152.971L159.489 152.972L159.5 147.636H159.411L159.421 142.339Z" fill="#FFA412"/>
<path d="M155.4 142.33L154.923 142.329L154.913 147.663L155.002 147.665L154.993 152.961L155.469 152.962L155.478 147.627H155.391L155.4 142.33Z" fill="#FFA412"/>
<path d="M179.924 142.388L179.448 142.387L179.438 147.722H179.526L179.516 153.01H179.45L179.44 158.345L179.918 158.346L179.927 153.019H179.994L180.003 147.685H179.914L179.924 142.388Z" fill="#FFA412"/>
<path d="M180.939 142.391L180.555 142.389L180.565 137.186H180.088L180.078 142.521L180.462 142.522L180.452 147.725H180.541L180.532 153.021L181.008 153.022L181.017 147.688H180.93L180.939 142.391Z" fill="#FFA412"/>
<path d="M178.489 137.192L178.476 142.527L178.952 142.528L178.965 137.193L178.489 137.192Z" fill="#FFA412"/>
<path d="M176.529 142.38H176.296L176.287 147.715H176.374L176.365 153.012L176.842 153.013L176.852 147.677H176.764L176.773 142.513H177.005L177.014 137.179L176.538 137.177L176.529 142.38Z" fill="#FFA412"/>
<path d="M173.571 137.168L173.557 142.502L174.033 142.503L174.047 137.169L173.571 137.168Z" fill="#FFA412"/>
<path d="M170.448 137.174L170.435 142.509L170.911 142.51L170.924 137.175L170.448 137.174Z" fill="#FFA412"/>
<path d="M165.613 137.142L165.601 142.476L166.077 142.477L166.089 137.143L165.613 137.142Z" fill="#FFA412"/>
<path d="M161.116 137.136L161.104 142.47L161.581 142.471L161.592 137.137L161.116 137.136Z" fill="#FFA412"/>
<path d="M157.116 137.142L157.103 142.476L157.579 142.477L157.592 137.143L157.116 137.142Z" fill="#FFA412"/>
<path d="M181.615 142.392H181.443L181.432 147.726L181.521 147.728L181.512 153.016L181.065 153.015L181.055 158.349L181.531 158.35L181.542 153.024L181.989 153.025L181.998 147.69H181.91L181.919 142.525L182.091 142.526L182.102 137.19L181.625 137.189L181.615 142.392Z" fill="#FFA412"/>
<path d="M183.634 137.205L183.621 142.54L184.098 142.541L184.111 137.206L183.634 137.205Z" fill="#FFA412"/>
<path d="M184.824 142.513L184.834 137.216C184.777 137.203 184.716 137.197 184.656 137.197H184.358L184.348 142.531H184.646C184.707 142.531 184.766 142.526 184.824 142.513Z" fill="#FFA412"/>
<path d="M185.487 142.02L185.495 137.711C185.379 137.516 185.214 137.363 185.02 137.275L185.011 142.454C185.206 142.368 185.372 142.216 185.487 142.02Z" fill="#FFA412"/>
<path d="M183.54 131.87L183.527 137.204L184.004 137.205L184.017 131.871L183.54 131.87Z" fill="#FFA412"/>
<path d="M177.026 131.854L177.013 137.188L177.489 137.189L177.502 131.855L177.026 131.854Z" fill="#FFA412"/>
<path d="M173.887 131.846L173.874 137.18L174.351 137.182L174.364 131.847L173.887 131.846Z" fill="#FFA412"/>
<path d="M169.077 131.835L169.064 137.169L169.541 137.17L169.554 131.836L169.077 131.835Z" fill="#FFA412"/>
<path d="M164.574 131.824L164.561 137.159L165.037 137.16L165.05 131.826L164.574 131.824Z" fill="#FFA412"/>
<path d="M160.538 131.804L160.526 137.139L161.003 137.14L161.014 131.805L160.538 131.804Z" fill="#FFA412"/>
<path d="M185.077 131.872L185.064 137.206L185.541 137.207L185.554 131.873L185.077 131.872Z" fill="#FFA412"/>
<path d="M186.095 131.875L186.082 137.209L186.559 137.21L186.572 131.876L186.095 131.875Z" fill="#FFA412"/>
<path d="M187.044 131.858L187.032 137.192L187.509 137.193L187.521 131.859L187.044 131.858Z" fill="#FFA412"/>
<path d="M187.794 131.869L187.785 137.203H188.083C188.145 137.203 188.204 137.198 188.262 137.185L188.272 131.888C188.214 131.876 188.154 131.869 188.093 131.869H187.795H187.794Z" fill="#FFA412"/>
<path d="M188.457 131.948L188.448 137.127C188.643 137.041 188.809 136.888 188.925 136.694L188.932 132.385C188.817 132.189 188.651 132.036 188.457 131.948Z" fill="#FFA412"/>
<path d="M178.018 131.854L178.495 131.856L178.505 126.52L178.04 126.519L178.049 121.316L178.514 121.317L178.524 115.982L178.048 115.981L178.037 121.308L177.572 121.307L177.563 126.641L178.028 126.642L178.018 131.854Z" fill="#FFA412"/>
<path d="M176.412 126.514L176.398 131.848L176.875 131.849L176.889 126.515L176.412 126.514Z" fill="#FFA412"/>
<path d="M168.388 126.506L168.375 131.841L168.852 131.842L168.865 126.508L168.388 126.506Z" fill="#FFA412"/>
<path d="M163.554 126.476L163.542 131.811L164.019 131.812L164.031 126.477L163.554 126.476Z" fill="#FFA412"/>
<path d="M159.075 126.483L159.062 131.818L159.538 131.819L159.551 126.484L159.075 126.483Z" fill="#FFA412"/>
<path d="M155.03 126.455L155.018 131.79L155.494 131.791L155.506 126.456L155.03 126.455Z" fill="#FFA412"/>
<path d="M179.554 131.858H179.976L179.966 137.185L180.444 137.186L180.453 131.852L180.031 131.851L180.04 126.524H179.975L179.984 121.321H180.049L180.06 115.986L179.583 115.985L179.573 121.312L179.507 121.31L179.497 126.646H179.564L179.554 131.858Z" fill="#FFA412"/>
<path d="M180.595 126.538L180.585 131.872L181.062 131.873L181.072 126.539L180.595 126.538Z" fill="#FFA412"/>
<path d="M183.042 126.654H183.125L183.135 121.319H182.717C182.739 121.316 182.762 121.313 182.783 121.308L182.794 116.011C182.736 115.998 182.676 115.991 182.615 115.991H182.317L182.307 121.326H182.605C182.623 121.326 182.641 121.326 182.659 121.323L182.65 126.533C182.632 126.533 182.614 126.53 182.596 126.53H182.298L182.288 131.856H182.027L182.037 126.529H181.59L181.599 121.325H182.046L182.056 115.991H181.58L181.57 121.317H181.123L181.112 126.65H181.559L181.55 131.862H181.913L181.902 137.19H182.379L182.389 131.865H182.584C182.646 131.865 182.705 131.86 182.763 131.847L182.772 126.654H182.958L182.949 131.787C183.144 131.703 183.31 131.55 183.426 131.354L183.433 127.045C183.335 126.878 183.198 126.744 183.04 126.654H183.042Z" fill="#FFA412"/>
<path d="M166.658 121.281L166.646 126.615L167.123 126.616L167.134 121.282L166.658 121.281Z" fill="#FFA412"/>
<path d="M162.169 121.28L162.156 126.614L162.633 126.615L162.646 121.281L162.169 121.28Z" fill="#FFA412"/>
<path d="M158.148 121.27L158.135 126.604L158.611 126.605L158.624 121.271L158.148 121.27Z" fill="#FFA412"/>
<path d="M183.661 121.311L183.649 126.646L184.126 126.647L184.138 121.312L183.661 121.311Z" fill="#FFA412"/>
<path d="M184.668 121.333L184.655 126.668L185.132 126.669L185.145 121.335L184.668 121.333Z" fill="#FFA412"/>
<path d="M185.39 121.325L185.38 126.659H185.678C185.74 126.659 185.799 126.654 185.856 126.641L185.865 121.344C185.808 121.331 185.747 121.325 185.687 121.325H185.389H185.39Z" fill="#FFA412"/>
<path d="M186.521 126.15L186.528 121.841C186.413 121.645 186.247 121.492 186.053 121.405L186.044 126.583C186.239 126.497 186.405 126.345 186.521 126.15Z" fill="#FFA412"/>
<path d="M176.446 115.987L176.433 121.321L176.909 121.322L176.922 115.988L176.446 115.987Z" fill="#FFA412"/>
<path d="M174.975 115.973L174.497 115.972L174.488 121.308H174.605L174.596 126.511H174.478L174.469 131.845L174.945 131.847L174.954 126.634L175.072 126.636L175.083 121.3H174.965L174.975 115.973Z" fill="#FFA412"/>
<path d="M171.521 121.292H171.468L171.459 126.627H171.512L171.501 131.839L171.978 131.84L171.988 126.505H171.936L171.945 121.301H171.997L172.007 115.967L171.531 115.966L171.521 121.292Z" fill="#FFA412"/>
<path d="M168.409 115.968L168.396 121.302L168.872 121.303L168.885 115.969L168.409 115.968Z" fill="#FFA412"/>
<path d="M163.598 115.956L163.585 121.29L164.061 121.291L164.074 115.957L163.598 115.956Z" fill="#FFA412"/>
<path d="M159.083 115.937L159.069 121.271L159.546 121.272L159.56 115.938L159.083 115.937Z" fill="#FFA412"/>
<path d="M155.06 115.926L155.049 121.26L155.525 121.261L155.537 115.927L155.06 115.926Z" fill="#FFA412"/>
<path d="M180.596 115.985L180.582 121.319L181.059 121.32L181.073 115.986L180.596 115.985Z" fill="#FFA412"/>
<path d="M182.979 116.071L182.97 121.25C183.165 121.164 183.331 121.012 183.446 120.817L183.454 116.507C183.338 116.312 183.173 116.159 182.979 116.071Z" fill="#FFA412"/>
<path d="M196.957 130.294L199.919 130.82C200.155 130.862 200.363 130.964 200.525 131.104C200.697 131.252 200.818 131.442 200.869 131.65C200.885 131.713 200.894 131.778 200.895 131.843C200.896 131.902 200.892 131.962 200.882 132.023L193.523 173.383C193.428 173.917 192.868 174.269 192.263 174.189C192.244 174.187 192.223 174.184 192.204 174.18L189.242 173.653C189.223 173.649 189.203 173.645 189.183 173.642C188.587 173.508 188.183 172.983 188.277 172.449L195.636 131.089C195.641 131.062 195.646 131.036 195.654 131.01C195.657 130.999 195.661 130.988 195.664 130.977C195.668 130.965 195.672 130.952 195.677 130.941C195.68 130.932 195.684 130.924 195.688 130.915C195.712 130.855 195.742 130.797 195.779 130.743C195.784 130.735 195.789 130.727 195.795 130.718C195.801 130.711 195.807 130.703 195.812 130.695C195.824 130.68 195.837 130.664 195.849 130.65C195.857 130.641 195.865 130.633 195.873 130.624C195.88 130.617 195.887 130.609 195.894 130.603C195.909 130.588 195.923 130.576 195.937 130.561C195.953 130.546 195.971 130.532 195.989 130.518C196.004 130.506 196.018 130.496 196.032 130.485C196.032 130.485 196.033 130.484 196.034 130.484C196.045 130.478 196.055 130.47 196.065 130.464C196.096 130.443 196.129 130.424 196.163 130.406C196.173 130.401 196.183 130.395 196.192 130.39C196.203 130.385 196.213 130.381 196.223 130.376C196.244 130.367 196.266 130.358 196.287 130.349C196.489 130.273 196.719 130.249 196.955 130.291L196.957 130.294Z" fill="#FFB93E"/>
<path d="M197.446 151.334L193.504 173.492C193.419 173.968 192.868 174.274 192.262 174.192C192.243 174.189 192.222 174.187 192.203 174.183L189.241 173.656C189.222 173.652 189.202 173.648 189.182 173.644C188.586 173.513 188.173 173.036 188.258 172.558L191.716 153.122C191.761 153.122 191.805 153.119 191.851 153.118C193.441 153.065 195.633 152.704 197.446 151.333V151.334Z" fill="#FFA412"/>
<path d="M194.919 135.119L194.835 135.589L200.079 136.526L200.163 136.056L194.919 135.119Z" fill="#FFA412"/>
<path d="M194.631 136.709L194.548 137.178L199.792 138.113L199.876 137.643L194.631 136.709Z" fill="#FFA412"/>
<path d="M194.286 138.608L194.202 139.078L199.446 140.014L199.53 139.544L194.286 138.608Z" fill="#FFA412"/>
<path d="M193.765 141.533L193.682 142.003L198.926 142.938L199.01 142.469L193.765 141.533Z" fill="#FFA412"/>
<path d="M193.221 144.634L193.138 145.104L198.382 146.039L198.466 145.569L193.221 144.634Z" fill="#FFA412"/>
<path d="M192.395 149.394L192.312 149.864L197.556 150.8L197.639 150.331L192.395 149.394Z" fill="#FFA412"/>
<path d="M191.587 153.815L191.504 154.285L196.748 155.219L196.832 154.749L191.587 153.815Z" fill="#FFA412"/>
<path d="M190.894 157.789L190.811 158.259L196.055 159.196L196.138 158.726L190.894 157.789Z" fill="#FFA412"/>
<path d="M195.177 133.596L195.094 134.065L200.338 135.001L200.422 134.531L195.177 133.596Z" fill="#FFA412"/>
<path d="M195.381 132.619L195.297 133.089L200.541 134.025L200.625 133.556L195.381 132.619Z" fill="#FFA412"/>
<path d="M195.528 131.628L195.444 132.098L200.689 133.033L200.772 132.563L195.528 131.628Z" fill="#FFA412"/>
<path d="M195.585 131.384L200.83 132.317L200.883 132.024C200.893 131.963 200.898 131.904 200.895 131.844L195.687 130.917C195.665 130.973 195.648 131.031 195.637 131.091L195.584 131.384H195.585Z" fill="#FFA412"/>
<path d="M195.778 130.745L200.87 131.651C200.82 131.444 200.698 131.253 200.526 131.105L196.29 130.352C196.078 130.431 195.898 130.568 195.778 130.745Z" fill="#FFA412"/>
<path d="M296.945 174.187H278.917C277.951 173.366 279.586 171.503 281.293 171.378C282.036 171.321 282.973 171.477 284.045 171.705C284.293 168.405 285.709 153.571 291.049 154.167C297.053 154.834 291.049 160.7 289.352 164.172C288.095 166.744 286.769 170.432 286.163 172.173C286.65 172.278 287.154 172.382 287.67 172.478C288.466 170.031 291.427 161.801 295.192 162.28C299.613 162.842 297.835 166.141 294.702 168.1C292.403 169.541 289.581 171.587 288.239 172.577C289.375 172.762 290.561 172.888 291.765 172.86C294.852 172.786 296.361 173.697 296.945 174.188V174.187Z" fill="#82B378"/>
<path d="M61.8749 173.588C61.1594 172.461 59.004 169.538 56.1344 169.924C53.0066 170.346 59.5884 172.411 61.6025 173.595C61.1555 173.602 60.7702 173.566 60.4876 173.465C59.1401 172.984 56.8344 173.907 56.0958 174.231H68.9191C68.8305 173.923 68.5993 173.422 68.002 173.056C67.7913 172.928 67.3687 172.91 66.8215 172.951C67.5845 172.05 68.1137 169.175 65.9904 169.915C64.44 170.455 64.4439 172.212 64.5967 173.252C64.2666 173.303 63.9327 173.356 63.6012 173.404C62.9628 170.145 60.7047 160.596 56.1279 160.341C51.4883 160.082 60.0624 170.244 62.9179 173.495C62.5518 173.539 62.1998 173.572 61.8736 173.588H61.8749Z" fill="#82B378"/>
<path d="M189.028 92.4802C196.24 85.2586 196.24 73.55 189.028 66.3284C181.817 59.1068 170.125 59.1068 162.913 66.3284C155.702 73.55 155.702 85.2586 162.913 92.4802C170.125 99.7018 181.817 99.7018 189.028 92.4802Z" fill="#E2810E"/>
<path d="M192.43 84.8903C195.021 75.0125 189.126 64.9013 179.262 62.3063C169.398 59.7112 159.301 65.615 156.71 75.4927C154.118 85.3704 160.014 95.4816 169.878 98.0767C179.742 100.672 189.838 94.768 192.43 84.8903Z" fill="#FFB93E"/>
<path d="M174.693 97.2198C168.756 97.2198 162.994 94.0722 159.93 88.5075C157.761 84.5663 157.253 80.0153 158.503 75.6919C159.752 71.3686 162.607 67.7914 166.543 65.6188C170.479 63.4462 175.023 62.9381 179.34 64.1884C183.658 65.4387 187.23 68.2982 189.399 72.2395C193.879 80.3754 190.913 90.6428 182.788 95.1282C180.22 96.5458 177.438 97.2185 174.694 97.2185L174.693 97.2198ZM174.642 64.5241C172.006 64.5241 169.398 65.1904 167.027 66.4999C163.326 68.5426 160.642 71.9063 159.466 75.9724C158.292 80.0371 158.769 84.318 160.809 88.0239C163.689 93.2554 169.109 96.2165 174.691 96.2165C177.271 96.2165 179.886 95.5836 182.301 94.251C189.942 90.0331 192.73 80.378 188.518 72.7283C186.478 69.0224 183.119 66.334 179.059 65.157C177.601 64.7351 176.116 64.5254 174.64 64.5254L174.642 64.5241Z" fill="#FFA412"/>
<path d="M179.051 83.5372C178.913 83.1976 178.745 82.9197 178.545 82.6998C178.344 82.4798 178.094 82.31 177.792 82.1878C177.49 82.0669 177.132 81.9859 176.717 81.9486C176.302 81.91 175.814 81.9074 175.25 81.9383C174.279 81.9859 173.38 81.9859 172.552 81.9421C171.725 81.8971 170.979 81.7621 170.31 81.5344C169.642 81.308 169.055 80.9633 168.549 80.5015C168.043 80.0397 167.63 79.4132 167.309 78.6221C167.03 77.9365 166.898 77.2612 166.912 76.5975C166.926 75.9337 167.074 75.3009 167.354 74.6976C167.635 74.0943 168.037 73.5335 168.56 73.0151C169.083 72.4967 169.72 72.0426 170.472 71.6529L169.421 69.0622L171.503 68.2158L172.568 70.8425C173.353 70.6367 174.111 70.5582 174.839 70.6097C175.567 70.6611 176.24 70.8386 176.859 71.1422C177.477 71.4458 178.033 71.8754 178.527 72.4324C179.02 72.9894 179.431 73.6711 179.757 74.4776L175.996 76.0071C175.603 75.0385 175.095 74.4017 174.47 74.0956C173.846 73.7907 173.174 73.783 172.454 74.0763C172.063 74.2345 171.748 74.4262 171.511 74.65C171.273 74.8738 171.101 75.1169 170.996 75.3806C170.89 75.6443 170.847 75.9235 170.865 76.2167C170.883 76.51 170.952 76.8059 171.073 77.1056C171.193 77.404 171.346 77.6574 171.531 77.8632C171.716 78.0703 171.956 78.2337 172.253 78.3533C172.549 78.4729 172.91 78.5514 173.335 78.59C173.76 78.6286 174.272 78.6389 174.871 78.6209C175.84 78.5939 176.737 78.6054 177.561 78.6556C178.384 78.7058 179.132 78.8473 179.801 79.0775C180.47 79.3078 181.059 79.6551 181.565 80.1169C182.071 80.5786 182.482 81.2012 182.799 81.9846C183.087 82.6946 183.222 83.3828 183.204 84.0479C183.186 84.7142 183.034 85.3445 182.75 85.9387C182.466 86.5343 182.055 87.0861 181.52 87.5955C180.984 88.1049 180.339 88.5551 179.588 88.9449L180.565 91.3542L178.496 92.1954L177.524 89.7977C176.773 90.0177 176.014 90.1437 175.244 90.1746C174.473 90.2055 173.734 90.1 173.029 89.8556C172.324 89.6112 171.674 89.206 171.08 88.6387C170.487 88.0715 169.994 87.3035 169.601 86.3349L173.363 84.8055C173.595 85.3779 173.869 85.8243 174.185 86.142C174.501 86.4597 174.84 86.6797 175.202 86.8006C175.565 86.9215 175.936 86.9588 176.316 86.9112C176.696 86.8649 177.065 86.7684 177.421 86.6244C177.828 86.4584 178.166 86.2603 178.43 86.0301C178.696 85.7998 178.895 85.549 179.028 85.2789C179.161 85.0087 179.228 84.7257 179.228 84.4286C179.228 84.1315 179.169 83.8343 179.048 83.5359L179.051 83.5372Z" fill="#FFA412"/>
<path d="M192.934 69.4525C192.162 68.9058 190.41 67.7044 190.319 67.9719C190.253 68.1649 190.347 68.4916 190.557 68.8325C189.497 68.4363 188.42 68.1765 185.877 68.6653C185.367 68.763 184.906 69.0537 184.626 69.4898C184.366 69.8937 184.27 70.4005 184.919 70.8044C186.217 71.6135 185.841 71.1286 187.646 72.3055C189.451 73.4825 191.66 73.7835 192.979 72.9577L194.751 72.6619L194.97 69.7445C194.97 69.7445 193.961 69.6236 192.935 69.4525H192.934Z" fill="#FFB27D"/>
<path d="M239.354 44.9803C239.354 44.9803 235.178 49.9417 229.86 47.8668C229.86 47.8668 228.716 45.0961 228.7 43.0534C228.699 42.8026 228.695 42.5582 228.691 42.3266C228.663 40.0267 228.586 38.7365 228.586 38.7365C228.586 38.7365 228.587 38.7365 228.591 38.7365C228.833 38.6349 236.721 35.3921 236.714 35.6622C236.579 41.8829 239.355 44.9829 239.355 44.9829L239.354 44.9803Z" fill="#FFB27D"/>
<path d="M235.922 37.1426C235.161 38.5549 232.551 41.3167 228.691 42.3251C228.663 40.0252 228.586 38.735 228.586 38.735C228.586 38.735 228.587 38.735 228.591 38.735C228.809 38.6758 236.149 36.7271 235.922 37.1438V37.1426Z" fill="#ED975D"/>
<path d="M226.933 38.4958C226.933 38.4958 235.804 40.5847 237.018 35.0317C238.232 29.4799 240.194 26.0107 234.581 24.4427C228.969 22.8747 227.402 24.7514 226.547 26.506C225.691 28.2605 224.657 37.8102 226.933 38.4958Z" fill="#FFB27D"/>
<path d="M236.713 36.5445C236.833 36.6217 238.742 37.2095 242.357 29.9984C242.925 28.8664 243.311 26.4173 241.988 24.2537C240.665 22.0901 235.975 20.3883 232.078 19.6487C228.181 18.9077 227.246 21.1035 226.329 23.3108C225.365 25.6275 222.583 27.5338 222.583 27.5338C225.943 29.4131 229.991 26.7247 231.392 27.1672C232.795 27.6097 233.289 29.8222 233.395 30.5309C233.5 31.2397 233.662 31.8301 235.424 31.196C237.188 30.5631 236.222 33.6979 235.939 34.2973C235.939 34.2973 235.699 35.8949 236.711 36.5432L236.713 36.5445Z" fill="#A9453D"/>
<path d="M259.566 175H264.938C266.064 175 267.315 173.871 267.627 171.803C267.941 169.735 270.255 168.607 270.756 166.915C271.257 165.223 268.691 162.842 268.691 162.842L268.262 162.29L267.816 161.715L263.562 162.717C263.562 162.717 263.457 163.732 263.391 165.023C263.346 165.956 263.32 167.035 263.374 167.981C263.499 170.237 262.744 172.667 260.742 173.105C258.74 173.544 259.568 175 259.568 175H259.566Z" fill="#2C3A64"/>
<path d="M222.173 175H236.41C236.547 174.973 236.651 174.943 236.712 174.913C237.663 174.435 237.365 170.791 237.25 169.666C237.229 169.457 237.213 169.335 237.213 169.335C237.213 169.335 232.206 165.326 231.518 168.396C231.496 168.491 231.47 168.586 231.444 168.679C230.575 171.554 226.69 172.858 224.446 173.222C222.732 173.501 222.287 174.502 222.173 175.003V175Z" fill="#2C3A64"/>
<path d="M225.042 92.7784C225.042 92.7784 225.802 102.278 226.696 113.698C227.912 129.21 229.372 148.264 229.516 151.875C229.766 158.143 230.768 168.168 230.768 168.168C230.768 168.168 233.145 170.551 237.903 169.546C237.903 169.546 242.141 155.233 243.353 140.089C243.372 139.841 243.39 139.591 243.409 139.341C244.536 123.924 246.288 91.4612 246.288 91.4612L225.043 92.7771L225.042 92.7784Z" fill="#2B478B"/>
<path d="M225.042 92.7786C225.042 92.7786 225.802 102.278 226.696 113.698L243.353 140.091C243.372 139.842 243.39 139.593 243.409 139.342C244.536 123.926 246.288 91.4626 246.288 91.4626L225.043 92.7786H225.042Z" fill="#233862"/>
<path d="M228.515 93.9066C228.515 93.9066 242.219 128.312 251.231 144.48C260.243 160.647 263.059 165.16 263.059 165.16C263.059 165.16 268.222 163.091 268.692 161.681C268.692 161.681 265.245 130.468 259.211 122.859C255.8 118.559 251.795 105.657 251.608 101.145C251.42 96.6323 250.387 87.7026 250.387 87.7026L228.516 93.9066H228.515Z" fill="#2B478B"/>
<path d="M259.768 87.655L259.913 89.8675C259.913 89.8675 258.456 93.7985 262.538 95.8142C262.538 95.8142 264.287 96.5204 264.357 95.1582C264.428 93.7959 264.204 94.3079 264.347 92.39C264.489 90.4708 263.735 88.6584 262.469 88.0474L261.429 86.8459L259.769 87.655H259.768Z" fill="#FFB27D"/>
<path d="M261.364 89.267C259.847 89.7545 259.604 89.6439 259.604 89.6439C259.604 89.6439 252.221 76.1826 251.473 74.9503C250.726 73.718 235.797 59.8553 235.797 59.8553L239.634 45.5295C239.634 45.5295 256.612 67.5475 258.447 70.7067C261.477 75.9279 263.252 88.0527 263.252 88.0527C263.252 88.0527 262.557 88.8824 261.365 89.2657L261.364 89.267Z" fill="#1E3D70"/>
<path d="M222.149 65.4802C222.202 68.422 222.372 71.7292 222.604 75.089C222.618 75.2884 222.632 75.4878 222.646 75.6872C222.794 77.7684 222.953 79.8536 223.137 81.8872C223.21 82.7028 223.288 83.5093 223.371 84.3004L223.383 84.4071C223.39 84.703 223.426 85.0246 223.459 85.3179C224.208 92.9367 224.992 98.9554 225.138 99.048C225.311 99.1638 225.508 99.2217 225.722 99.1973C227.717 98.9464 233.67 99.3992 238.543 98.338C242.655 97.4697 246.196 95.8219 249.948 93.6018C250.447 93.3072 251.582 92.5264 251.49 91.9424C251.399 91.3005 251.232 90.3744 251.018 89.209C250.28 85.1571 249.003 78.1865 248.568 70.0287C248.483 68.5095 248.359 67.0084 248.199 65.533C247.78 61.6894 247.111 58.0389 246.212 54.7961C244.541 48.7709 242.086 44.1569 239.006 42.3522C238.604 42.1258 236.438 43.506 234.448 44.7846C232.611 45.9642 230.677 46.2896 228.796 46.125L227.141 47.958C225.137 50.2914 223.002 53.3978 222.419 57.8138C222.375 58.1405 222.338 58.4865 222.306 58.8544C222.144 60.6527 222.105 62.9307 222.15 65.4802H222.149Z" fill="#2A4E96"/>
<path d="M222.149 65.4802C222.202 68.422 222.373 71.7292 222.604 75.089C222.618 75.2884 222.632 75.4878 222.646 75.6872C234.043 68.5442 235.797 55.4727 235.797 55.4727C230.19 55.7183 225.737 57.0098 222.305 58.8557C222.143 60.654 222.104 62.932 222.149 65.4815V65.4802Z" fill="#1E3D70"/>
<path d="M193.355 71.1067C193.239 69.4139 194.113 69.1322 194.113 69.1322C194.113 69.1322 211.295 66.0142 212.755 65.5536C214.216 65.0931 226.705 52.0833 226.705 52.0833C226.705 52.0833 231.493 46.6769 235.413 47.8706C238.82 48.9087 240.15 51.5688 240.604 54.1041C241.145 57.1244 239.753 60.164 237.141 61.7693C231.277 65.371 219.538 72.4663 216.773 73.278C210.621 75.084 194.088 73.4234 194.088 73.4234C194.088 73.4234 193.445 72.4367 193.353 71.108L193.355 71.1067Z" fill="#2A4E96"/>
<path opacity="0.2" d="M213.572 104.155V168.11C213.572 171.841 210.524 174.894 206.799 174.894H141.15C140.581 174.894 140.026 174.824 139.496 174.692C138.359 174.411 137.33 173.846 136.489 173.077C135.887 172.528 135.384 171.874 135.005 171.147C134.984 171.109 134.965 171.07 134.946 171.03C134.553 170.239 134.306 169.363 134.243 168.44C134.232 168.281 134.227 168.123 134.227 167.962V104.567C134.227 100.98 136.078 97.6625 139.097 95.7317C139.097 95.7317 139.1 95.7317 139.105 95.7278C141.62 94.1161 143.288 91.2913 143.288 88.0794C143.288 87.1262 143.141 86.2091 142.869 85.3459H204.929C204.656 86.2091 204.51 87.1262 204.51 88.0794C204.51 91.1601 206.042 93.882 208.385 95.522C208.385 95.522 208.385 95.522 208.388 95.522C208.545 95.6314 208.704 95.7356 208.867 95.8346C211.774 97.6084 213.571 100.75 213.571 104.158L213.572 104.155Z" fill="#ED9F4A"/>
<path opacity="0.2" d="M213.573 104.155V168.111C213.573 171.68 210.782 174.63 207.278 174.877C207.12 174.888 206.961 174.893 206.8 174.893H177.893C174.085 174.893 170.97 171.773 170.97 167.96V104.565C170.97 100.978 172.821 97.6601 175.841 95.7293C178.361 94.1188 180.032 91.2928 180.032 88.0757C180.032 87.1226 179.886 86.2054 179.613 85.3423H204.93C204.657 86.2054 204.511 87.1226 204.511 88.0757C204.511 90.6008 205.54 92.884 207.202 94.5279C207.704 95.0257 208.263 95.4643 208.869 95.8322C211.776 97.6048 213.573 100.746 213.573 104.155Z" fill="#ED9F4A"/>
<path opacity="0.6" d="M208.387 95.5183C206.36 94.3027 197.578 89.9948 175.246 90.1775C149.666 90.3872 139.42 95.5646 139.106 95.7254C141.622 94.1136 143.289 91.2889 143.289 88.0769C143.289 87.1238 143.142 86.2066 142.87 85.3435H204.93C204.658 86.2066 204.511 87.1238 204.511 88.0769C204.511 91.1577 206.044 93.8795 208.387 95.5196V95.5183Z" fill="#ED9F4A"/>
<path d="M206.335 84.8947V87.7953C206.335 88.0822 206.102 88.315 205.817 88.315H141.982C141.695 88.315 141.463 88.0822 141.463 87.7953V84.8947C141.463 84.6091 141.695 84.375 141.982 84.375H205.817C206.102 84.375 206.335 84.6091 206.335 84.8947Z" fill="#2B478B"/>
<path d="M206.335 84.8947V87.7953C206.335 88.0822 206.103 88.315 205.818 88.315H181.655C181.37 88.315 181.136 88.0822 181.136 87.7953V84.8947C181.136 84.6091 181.37 84.375 181.655 84.375H205.818C206.103 84.375 206.335 84.6091 206.335 84.8947Z" fill="#233862"/>
<path d="M163.747 99.2576C163.747 99.2576 162.101 101.577 160.593 101.609C159.085 101.641 156.79 100.534 156.79 100.534C156.79 100.534 155.405 97.4426 156.344 96.2335C156.344 96.2335 157.286 95.8193 158.271 96.5512C158.44 96.6772 158.611 96.8355 158.781 97.04C159.02 97.3281 159.288 97.4915 159.572 97.5777C160.649 97.9057 161.927 97.1339 162.404 97.8787C162.683 98.3109 162.986 98.6363 163.237 98.8653C163.532 99.129 163.747 99.2576 163.747 99.2576Z" fill="#F9DDBF"/>
<path d="M142.296 115.989C142.296 115.989 148.111 101.878 158.579 101.609C158.579 101.609 168.241 102.684 168.778 115.989H142.295H142.296Z" fill="#F9DDBF"/>
<path d="M155.712 102.041C155.712 102.041 159.907 102.975 161.202 102.426C161.202 102.426 161.397 100.669 159.631 100.916C158.422 101.084 157.634 100.503 157.17 100.266C156.515 99.9317 155.537 101.306 155.712 102.041Z" fill="#F1A34F"/>
<path d="M159.363 99.3925C159.095 99.5945 158.271 96.551 158.271 96.551C158.441 96.6771 158.612 96.8353 158.781 97.0398C159.02 97.328 159.289 97.4913 159.573 97.5775C159.575 97.6663 159.624 99.1957 159.363 99.3912V99.3925Z" fill="#E5C1A1"/>
<path d="M163.237 98.8653C163.178 98.9 161.237 100.064 160.975 100.064C160.713 100.064 162.406 97.8787 162.406 97.8787C162.685 98.3109 162.988 98.6363 163.238 98.8653H163.237Z" fill="#E5C1A1"/>
<path d="M147.977 112.048C147.869 111.956 152.092 105.82 153.255 105.777C154.417 105.732 157.031 107.121 158.923 107.3C160.815 107.479 162.65 106.941 163.007 108.061C163.365 109.182 164.349 113.151 163.745 113.787C163.142 114.422 150.299 114.035 147.977 112.048Z" fill="#E5C1A1"/>
<path opacity="0.5" d="M143.274 170.062C142.937 170.239 142.598 170.406 142.258 170.568C141.933 170.756 141.603 170.942 141.266 171.118C139.714 171.935 138.115 172.585 136.488 173.077C135.886 172.528 135.383 171.874 135.004 171.147C134.745 171.286 134.486 171.419 134.226 171.549V123.295C135.421 123.454 136.606 123.694 137.766 124.008C144.276 125.77 150.073 129.917 153.599 136.018C160.603 148.139 155.98 163.382 143.274 170.063V170.062Z" fill="#E2810E"/>
<path d="M147.676 134.116C140.671 121.391 124.693 116.763 111.987 123.777C99.2804 130.792 94.6587 146.792 101.662 159.517C108.666 172.241 124.644 176.869 137.351 169.856C150.057 162.842 154.679 146.841 147.674 134.117L147.676 134.116Z" fill="#E2810E"/>
<path d="M136.332 170.389C136.008 170.587 135.68 170.777 135.344 170.962C135.231 171.025 135.118 171.087 135.004 171.146C134.744 171.285 134.486 171.418 134.225 171.547C121.716 177.7 106.456 172.978 99.6553 160.624C93.1685 148.84 96.6547 134.245 107.299 126.582C108.149 125.971 109.041 125.403 109.98 124.885C110.317 124.698 110.657 124.521 110.998 124.352C111.329 124.186 111.663 124.03 111.998 123.88C113.026 123.421 114.071 123.034 115.127 122.717C116.696 122.244 118.288 121.925 119.884 121.757C124.833 121.232 129.812 122.137 134.225 124.3C138.91 126.593 142.96 130.303 145.669 135.223C152.489 147.613 148.287 163.107 136.332 170.389Z" fill="#FFB93E"/>
<path d="M122.845 172.175C120.612 172.175 118.365 171.859 116.159 171.221C110.018 169.442 104.935 165.374 101.85 159.767C98.7632 154.16 98.0426 147.685 99.8191 141.535C101.596 135.385 105.657 130.295 111.256 127.205C116.856 124.114 123.321 123.393 129.463 125.172C135.604 126.951 140.687 131.018 143.774 136.625C146.861 142.232 147.581 148.706 145.805 154.857C144.028 161.007 139.967 166.097 134.367 169.187C130.778 171.168 126.834 172.176 122.847 172.176L122.845 172.175ZM103.1 159.077C106.001 164.349 110.781 168.173 116.556 169.847C122.331 171.52 128.411 170.841 133.676 167.934C138.942 165.028 142.76 160.242 144.432 154.459C146.103 148.675 145.424 142.587 142.521 137.315C139.62 132.042 134.84 128.218 129.065 126.544C123.29 124.872 117.21 125.55 111.945 128.457C106.68 131.363 102.861 136.149 101.19 141.933C99.5185 147.716 100.197 153.804 103.1 159.077Z" fill="#FFA412"/>
<path d="M134.389 150.485C134.337 150.355 134.282 150.23 134.226 150.107C133.799 149.169 133.269 148.409 132.631 147.828C131.912 147.17 131.076 146.678 130.123 146.35C129.17 146.022 128.107 145.821 126.936 145.75C125.763 145.678 124.488 145.661 123.108 145.7C122.255 145.726 121.527 145.71 120.922 145.656C120.318 145.601 119.804 145.489 119.383 145.319C118.962 145.15 118.619 144.918 118.355 144.622C118.092 144.329 117.875 143.969 117.703 143.544C117.531 143.12 117.432 142.698 117.406 142.28C117.38 141.863 117.443 141.467 117.592 141.09C117.743 140.716 117.987 140.368 118.325 140.051C118.662 139.732 119.109 139.46 119.664 139.234C120.689 138.817 121.646 138.826 122.534 139.261C123.422 139.696 124.145 140.602 124.703 141.98L130.056 139.804C129.59 138.656 129.007 137.686 128.304 136.894C127.603 136.103 126.811 135.492 125.931 135.06C125.053 134.629 124.095 134.375 123.057 134.302C122.021 134.229 120.944 134.339 119.826 134.633L118.31 130.895L115.348 132.099L116.842 135.785C115.774 136.341 114.867 136.987 114.123 137.724C113.379 138.462 112.808 139.259 112.408 140.116C112.007 140.975 111.799 141.876 111.779 142.82C111.759 143.764 111.947 144.725 112.343 145.7C112.799 146.826 113.387 147.717 114.106 148.374C114.826 149.032 115.66 149.522 116.611 149.843C117.562 150.166 118.624 150.359 119.8 150.422C120.977 150.486 122.256 150.485 123.639 150.418C124.44 150.373 125.136 150.377 125.726 150.432C126.316 150.486 126.825 150.6 127.256 150.773C127.685 150.947 128.042 151.189 128.327 151.501C128.612 151.814 128.852 152.211 129.048 152.693C129.22 153.118 129.306 153.54 129.303 153.963C129.303 154.385 129.207 154.789 129.017 155.174C128.828 155.558 128.544 155.915 128.167 156.243C127.789 156.569 127.31 156.851 126.729 157.088C126.223 157.294 125.7 157.429 125.158 157.496C124.617 157.561 124.089 157.509 123.573 157.337C123.058 157.165 122.575 156.854 122.127 156.401C121.677 155.949 121.287 155.315 120.957 154.5L115.605 156.676C116.163 158.054 116.865 159.147 117.711 159.953C118.556 160.759 119.479 161.338 120.484 161.684C121.488 162.031 122.538 162.184 123.635 162.139C124.73 162.096 125.813 161.917 126.879 161.603L128.262 165.014L131.206 163.817L129.816 160.39C130.885 159.834 131.8 159.194 132.563 158.469C133.27 157.798 133.822 157.076 134.222 156.301C134.254 156.238 134.285 156.176 134.315 156.112C134.719 155.265 134.935 154.369 134.96 153.422C134.986 152.475 134.795 151.496 134.385 150.486L134.389 150.485Z" fill="#FFA412"/>
<path d="M103.144 55.3065C103.223 54.9836 96.1471 58.5094 95.7874 58.9082C92.4683 62.5948 93.415 67.4069 95.3135 67.4532C96.5312 67.4828 96.2961 69.5113 96.2961 69.5113L109.866 63.7628C109.866 63.7628 108.232 54.2221 103.144 55.3078V55.3065Z" fill="#2C3A64"/>
<path d="M104.815 56.0513C104.815 56.0513 105.3 50.7581 99.3927 50.7581C99.3927 50.7581 101.182 51.2443 102.108 52.2167C102.108 52.2167 98.3406 50.0017 94.2418 53.4053C90.1416 56.8089 92.6901 65.3436 91.4428 66.9644C90.1968 68.5852 85.3414 68.9093 85.9348 74.1485C86.5283 79.3877 101.343 85.9505 100.391 90.2867C100.391 90.2867 106.197 81.7404 102.045 77.8402C102.045 77.8402 104.068 79.7491 104.275 82.0182C104.275 82.0182 104.825 77.5881 102.009 76.1719C99.5185 74.9177 97.4774 70.3333 97.6945 69.5139C97.9103 68.6945 104.815 56.0538 104.815 56.0538V56.0513Z" fill="#2C3A64"/>
<path d="M99.4505 80.9556C98.5398 76.5641 92.8533 75.2019 90.1622 78.7882C89.6779 79.4326 89.3375 80.1954 89.2271 81.0958C88.6131 86.0816 96.5732 106.387 97.7126 108.226C99.7883 111.573 112.008 123.048 112.008 123.048L114.26 121.681C114.26 121.681 105.592 106.986 104.249 105.611C102.698 104.021 101.178 89.2948 99.4492 80.9556H99.4505Z" fill="#ED985F"/>
<path d="M111.152 121.687C111.152 121.687 114.439 119.526 115.684 119.665C116.929 119.804 120.531 120.842 120.574 121.372C120.618 121.902 116.561 122.232 116.289 122.523C116.017 122.813 113.262 124.655 112.263 124.077C111.265 123.499 111.154 121.687 111.154 121.687H111.152Z" fill="#ED985F"/>
<path d="M88.2229 170.516L85.2865 170.083C85.2865 170.083 75.4125 162.227 73.943 147.564C73.7927 146.072 73.7619 144.558 73.8724 143.031C73.8852 142.855 73.8659 142.678 73.7696 142.53C73.7696 142.53 73.7696 142.528 73.7657 142.527C73.4498 142.042 72.6636 140.826 71.5988 139.097C70.5493 137.394 68.7523 134.175 66.7767 130.563C63.216 124.056 59.0722 116.275 57.6502 113.798C53.1198 105.9 55.3034 100.589 55.3034 100.589C55.3034 100.589 67.9405 99.3371 71.4035 96.304L72.6508 98.2296C72.6508 98.2296 75.3894 110.369 75.2596 110.425C75.3945 110.838 75.5319 111.259 75.6707 111.686C77.8312 118.364 80.3168 126.713 81.6719 133.511C82.4336 137.336 82.837 140.669 82.6199 142.939C82.5454 143.719 82.6353 144.915 82.8434 146.393C84.0663 155.105 88.2229 170.516 88.2229 170.516Z" fill="#2B478B"/>
<path d="M94.3835 174.236H82.1318C82.1318 174.236 81.8377 172.365 82.4786 170.948C83.0914 169.587 83.9661 169.543 82.5904 167.409C83.3688 168.212 85.871 168.544 87.6424 168.306C87.8595 168.658 89.0412 171.022 89.767 171.543C90.5672 172.12 94.1382 171.914 94.3848 174.236H94.3835Z" fill="#233862"/>
<path d="M75.6707 111.684C74.6007 117.595 72.0728 127.432 66.7767 130.563C63.216 124.056 59.0722 116.275 57.6502 113.798C53.1198 105.9 55.3034 100.589 55.3034 100.589C55.3034 100.589 67.9405 99.3371 71.4035 96.304L72.6508 98.2296C72.6508 98.2296 75.3894 110.369 75.2596 110.425C75.3945 110.838 75.5319 111.259 75.6707 111.686V111.684Z" fill="#233862"/>
<path d="M98.1401 78.2312C98.1401 78.2312 99.8729 80.0346 100.663 82.1956C100.663 82.1956 97.8999 90.1425 91.4414 91.1381C91.4414 91.1381 96.5512 78.2273 98.1389 78.2312H98.1401Z" fill="#ED7D2B"/>
<path d="M67.0799 101.501L67.121 99.2059C62.5559 99.7822 51.3793 93.7429 51.3793 93.7429C51.3793 93.7429 46.6035 96.924 45.9497 106.009C45.6311 110.443 43.6119 129.196 43.3884 134.796C43.3074 136.826 43.2804 138.274 43.2702 138.853C43.2702 138.855 43.2702 138.857 43.2702 138.858C43.2676 139.034 43.1841 139.19 43.0762 139.33C42.1321 140.533 41.3126 141.806 40.6022 143.127C33.6363 156.106 37.2792 173.743 37.2792 173.743L38.8964 173.331C38.8964 173.331 44.7872 155.049 48.6369 147.141C49.2907 145.799 49.8841 144.756 50.38 144.153C51.8276 142.392 53.3536 139.402 54.8578 135.804C57.7017 129.001 60.4621 120.025 62.4313 113.074C62.57 113.099 67.0773 101.502 67.0773 101.502L67.0799 101.501Z" fill="#2B478B"/>
<path d="M93.7947 86.1858C86.3317 84.4711 91.0998 73.9683 91.5314 74.1535C92.5654 73.9426 94.8364 72.1237 96.8685 68.5735L97.1434 68.8115L101.727 72.8364C101.727 72.8364 100.667 74.4018 99.7754 75.9351C99.0792 77.1352 98.487 78.3187 98.5808 78.7238C98.9495 79.0146 95.7844 86.645 93.7934 86.1871L93.7947 86.1858Z" fill="#FFB27D"/>
<path d="M101.729 72.8378C101.729 72.8378 100.669 74.4007 99.7776 75.9366C96.9273 74.1769 96.9247 70.6446 97.1443 68.8142L101.729 72.8391V72.8378Z" fill="#ED985F"/>
<path d="M101.854 74.8536C101.854 74.8536 94.9348 70.9972 97.3985 66.7189C99.8622 62.4406 100.629 59.0614 105.152 61.3421C109.675 63.6227 109.585 65.7477 109.109 67.3749C108.634 69.0034 103.718 75.745 101.854 74.8523V74.8536Z" fill="#FFB27D"/>
<path d="M110.278 64.8805C109.961 62.9806 108.997 62.7992 108.326 62.9266C105.769 58.6946 101.595 60.3462 101.595 60.3462C99.3648 63.1491 96.1406 63.6263 96.1406 63.6263C96.1406 63.6263 96.9434 65.1223 100.252 66.0485C101.263 66.3314 102.41 66.1604 103.516 65.7873C101.221 67.0685 98.8201 67.5599 98.8201 67.5599C103.18 67.9599 107.329 63.9685 107.759 63.5414C107.961 64.1601 108.313 65.4555 108.102 66.4022C107.816 67.6885 106.675 70.0193 107.371 70.3203C107.371 70.3203 110.753 67.7297 110.278 64.8805Z" fill="#2C3A64"/>
<path d="M47.0232 174.236H34.7715C34.7715 174.236 34.4773 172.366 35.1183 170.948C35.731 169.587 36.6918 168.968 36.4619 167.321C37.2403 168.123 38.5094 169.022 40.2808 168.783C40.4978 169.136 41.6822 171.021 42.4066 171.542C43.2069 172.119 46.7778 171.913 47.0245 174.235L47.0232 174.236Z" fill="#233862"/>
<path d="M94.6734 94.5123C93.0973 95.0628 90.8841 95.3651 88.6208 95.6108C85.3992 95.9632 82.0736 96.2038 80.3306 96.8997C79.6947 97.1531 79.2695 97.4669 79.1372 97.867C78.382 100.141 75.0538 103.65 75.0538 103.65C53.7206 102.678 51.3789 93.7418 51.3789 93.7418C65.7321 77.0286 90.0338 72.1908 90.0338 72.1908C90.0338 72.1908 91.7691 71.4537 96.1403 74.9332C99.0575 77.2563 98.6734 78.1477 98.6734 78.1477C98.6734 78.1477 99.3105 92.8915 94.6721 94.5123H94.6734Z" fill="#F99746"/>
<path d="M88.6201 95.6107C85.3985 95.9631 82.0729 96.2037 80.3298 96.8996C79.6182 86.245 84.6394 78.2312 84.6394 78.2312C84.6394 78.2312 87.9149 91.5793 88.6201 95.6107Z" fill="#ED7D2B"/>
<path d="M91.9358 76.1692C91.9358 76.1692 83.8614 76.968 83.2153 82.2213C82.5679 87.4747 90.9557 108.873 92.1568 110.811C94.3443 114.338 107.222 126.43 107.222 126.43L109.595 124.989C109.595 124.989 100.461 109.504 99.0469 108.054C96.8273 105.779 94.6706 77.9893 91.9371 76.1692H91.9358Z" fill="#FFB27D"/>
<path d="M83.4476 85.383C83.4681 85.5026 90.899 87.8141 95.68 85.383C95.68 85.383 96.7037 74.3348 90.9941 74.9342C85.2857 75.5336 81.9049 77.3345 81.761 80.0717C81.6171 82.809 83.4463 85.383 83.4463 85.383H83.4476Z" fill="#F99746"/>
<path d="M106.489 124.894C106.489 124.894 109.386 122.23 110.636 122.167C111.887 122.104 115.608 122.546 115.736 123.062C115.865 123.578 111.915 124.559 111.693 124.89C111.471 125.22 109.048 127.482 107.97 127.073C106.891 126.664 106.491 124.894 106.491 124.894H106.489Z" fill="#FFB27D"/>
</g>
</svg>
