<?xml version="1.0" encoding="utf-8"?>
<!-- Generator: Adobe Illustrator 26.5.0, SVG Export Plug-In . SVG Version: 6.00 Build 0)  -->
<svg version="1.1"
	 id="svg8" xmlns:cc="http://creativecommons.org/ns#" xmlns:dc="http://purl.org/dc/elements/1.1/" xmlns:svg="http://www.w3.org/2000/svg" xmlns:rdf="http://www.w3.org/1999/02/22-rdf-syntax-ns#"
	 xmlns="http://www.w3.org/2000/svg" xmlns:xlink="http://www.w3.org/1999/xlink" x="0px" y="0px" viewBox="0 0 1024 589.6"
	 style="enable-background:new 0 0 1024 589.6;" xml:space="preserve">
<style type="text/css">
	.st0{fill:#1A42E8;}
</style>
<g id="logo-group">
	<g id="title">
		<path id="path13830" class="st0" d="M144.8,470.2c38.7,0,75.1-15,102.5-42.3c27.2-27.2,42.3-63.6,42.3-102.5V143.9h-86.9v181.7
			c0,31.9-26,57.9-57.9,57.9s-57.9-26-57.9-57.9V143.9H0v181.7c0,38.7,15,75.1,42.3,102.5C69.5,455.3,105.9,470.2,144.8,470.2z"/>
		<path id="path13832" class="st0" d="M537.1,224.9v-81H445V40.3l-86.9,29v224.5c0,24.2,4.6,47.5,13.8,69.5
			c8.6,21.5,22,40.5,38.2,56.8c16.3,16.8,35.3,29.4,56.8,38.7c22,9.3,45.7,13.8,69.9,13.8v-86.7c-50.9,0-92.1-41.2-92.1-92.1v-68.8
			H537.1z"/>
		<path id="path13834" class="st0" d="M824.3,188c-30.7-30.7-71.7-47.5-114.5-47.5c-43.4,0-84.4,16.8-115.2,47.5
			s-47.5,71.1-47.5,114.5c0,43.4,16.8,83.9,47.5,114.5c30.7,30.7,71.7,47.5,115.2,47.5c25.5,0,50.3-5.9,72.4-16.8
			c-8.6,31.9-38.2,55-72.4,55c-19.7,0-38.2-7.5-52-20.8L597.6,545c30.7,29,69.9,44.6,111.6,44.6c43.4,0,84.4-16.8,115.2-47.5
			c30.7-30.7,47.5-71.1,47.5-114.5V302.7C871.7,259.1,854.9,218.6,824.3,188L824.3,188z M709.7,377.7c-41.6,0-75.8-33.5-75.8-75.1
			s34.2-75.8,75.8-75.8s75.1,34.2,75.1,75.8S750.8,377.7,709.7,377.7z"/>
		<path id="path13836" class="st0" d="M936.6,466.3h87.3V0l-87.3,29V466.3z"/>
	</g>
</g>
</svg>
