<?xml version="1.0" encoding="utf-8"?>
<!-- Generator: Adobe Illustrator 26.4.1, SVG Export Plug-In . SVG Version: 6.00 Build 0)  -->
<svg version="1.1" id="Layer_1" xmlns="http://www.w3.org/2000/svg" xmlns:xlink="http://www.w3.org/1999/xlink" x="0px" y="0px"
	 viewBox="0 0 1010.1 582.3" style="enable-background:new 0 0 1010.1 582.3;" xml:space="preserve">
<style type="text/css">
	.st0{fill:#FFFFFF;}
</style>
<g id="svg8" xmlns:svg="http://www.w3.org/2000/svg" xmlns:rdf="http://www.w3.org/1999/02/22-rdf-syntax-ns#" xmlns:cc="http://creativecommons.org/ns#" xmlns:dc="http://purl.org/dc/elements/1.1/">
	<g id="logo-group">
		<g id="title">
			<path id="path13830" class="st0" d="M147.7,461.9c37.7,0,73.1-14.6,99.7-41.1c26.4-26.4,41.1-61.9,41.1-99.7V144.4h-84.5v176.8
				c0,31-25.3,56.3-56.3,56.3s-56.3-25.3-56.3-56.3V144.4H6.9v176.8c0,37.7,14.6,73.1,41.1,99.7C74.4,447.3,109.9,461.9,147.7,461.9
				z"/>
			<path id="path13832" class="st0" d="M529.4,223.2v-78.8h-89.6V43.6l-84.5,28.2v218.4c0,23.6,4.4,46.2,13.5,67.6
				c8.4,20.9,21.4,39.4,37.2,55.2c15.8,16.3,34.3,28.6,55.2,37.7c21.4,9,44.5,13.5,68.1,13.5v-84.4c-49.5,0-89.6-40-89.6-89.6v-66.9
				H529.4z"/>
			<path id="path13834" class="st0" d="M808.9,187.3c-29.9-29.9-69.8-46.2-111.4-46.2c-42.3,0-82.1,16.3-112,46.2
				s-46.2,69.2-46.2,111.4s16.3,81.7,46.2,111.4c29.9,29.9,69.8,46.2,112,46.2c24.8,0,48.9-5.7,70.4-16.3
				c-8.4,31-37.2,53.5-70.4,53.5c-19.1,0-37.2-7.3-50.6-20.3l-58.6,61.4c29.9,28.2,68.1,43.4,108.6,43.4c42.3,0,82.1-16.3,112-46.2
				c29.9-29.9,46.2-69.2,46.2-111.4V298.9C855,256.5,838.7,217.1,808.9,187.3L808.9,187.3z M697.3,371.9
				c-40.5,0-73.7-32.6-73.7-73.1s33.2-73.7,73.7-73.7c40.5,0,73.1,33.2,73.1,73.7S737.4,371.9,697.3,371.9z"/>
			<path id="path13836" class="st0" d="M918.1,458.1h85V4.4l-85,28.2V458.1z"/>
		</g>
	</g>
</g>
</svg>
