<svg width="121" height="140" viewBox="0 0 121 140" fill="none" xmlns="http://www.w3.org/2000/svg">
<g clip-path="url(#clip0_5_521)">
<path fill-rule="evenodd" clip-rule="evenodd" d="M57.9299 1.24384C72.8019 1.24384 71.1098 28.1907 81.8476 36.4073C96.061 47.275 120.518 41.891 120.518 60.5486C120.518 93.297 92.4939 124.938 57.9299 124.938C23.3659 124.938 0.46344 87.0869 0.46344 54.3385C0.46344 21.5811 23.3659 1.24384 57.9299 1.24384Z" fill="#E9EFF8"/>
<path fill-rule="evenodd" clip-rule="evenodd" d="M57.628 140C73.0854 140 85.6982 137.422 85.6982 134.253C85.6982 131.084 73.0945 128.506 57.628 128.506C42.1707 128.506 29.5579 131.084 29.5579 134.253C29.5671 137.422 42.1707 140 57.628 140Z" fill="#DCE6F2"/>
<path fill-rule="evenodd" clip-rule="evenodd" d="M76.6707 57.2529C76.9908 57.1712 77.3292 57.1803 77.6402 57.2802C77.3933 55.3735 79.25 53.358 81.1798 54.4929C81.317 53.6394 81.7378 52.7951 82.4695 52.3048C83.192 51.8236 84.2347 51.7782 84.9207 52.323C84.939 51.3787 85.5426 50.5071 86.3475 50.0169C87.1524 49.5266 88.1402 49.3722 89.0914 49.4358C90.1341 49.5084 91.1677 49.9079 91.9451 50.607C92.8597 51.4332 93.0244 52.5136 92.9512 53.7121C93.4451 53.6122 93.9664 53.585 94.4512 53.7302C95.8231 54.1479 96.0701 56.0182 95.7225 57.1984C96.5914 57.0259 97.5061 56.8807 98.3384 57.1712C99.1707 57.4708 99.8475 58.3606 99.5914 59.2049C100.085 59.0052 100.579 58.8054 101.11 58.7782C101.64 58.751 102.207 58.9326 102.518 59.3593C102.93 59.9313 102.747 60.7665 102.335 61.3385C101.777 62.1102 100.89 62.5914 99.9573 62.8003C98.3475 63.1543 96.5823 62.6913 95.3567 61.5927C95.5853 61.8016 93.6555 62.882 93.4725 62.9455C92.6951 63.1997 91.9085 63.463 91.0853 63.2633C90.1981 63.0454 89.439 62.4643 88.8994 61.7289C87.0335 63.2088 84.0975 63.1453 82.3048 61.5837C80.567 63 77.7683 62.9001 76.1402 61.3567C75.4634 61.62 74.6128 61.738 74.0823 61.2568C73.6707 60.8846 73.5884 60.2036 73.9085 59.7497C74.2286 59.2957 74.8963 59.1323 75.3902 59.3865C75.2347 58.7782 75.4359 58.0973 75.8933 57.6706C76.1036 57.4708 76.378 57.3255 76.6707 57.2529Z" fill="white"/>
<path fill-rule="evenodd" clip-rule="evenodd" d="M92.9604 53.712C93.0244 52.5136 92.8689 51.4332 91.9543 50.607C91.1768 49.9079 90.1433 49.5084 89.1006 49.4358C88.1585 49.3722 87.1707 49.5175 86.3567 50.0169C87.9573 49.7899 89.7226 49.8625 91.0031 50.843C91.3323 51.0973 91.6159 51.3969 91.8079 51.76C92.0275 52.1686 92.1189 52.6316 92.1098 53.0947C92.0915 54.166 91.5061 55.1829 90.6646 55.8456C89.8232 56.5084 88.7348 56.8353 87.6555 56.8534C88.7531 57.1076 89.9512 56.9261 90.9207 56.3632C91.8994 55.8093 92.8964 54.8288 92.9604 53.712ZM84.9207 52.3229C84.2439 51.7782 83.2012 51.8236 82.4695 52.3048C81.747 52.786 81.3171 53.6303 81.1799 54.4929C81.0884 55.0648 81.6555 55.5642 82.1677 55.8366C82.689 56.1089 83.3018 56.1725 83.8781 56.0908C83.3018 56.0363 82.8445 55.5733 82.6159 55.0467C82.3323 54.3748 82.3872 53.5577 82.8079 52.9585C83.2378 52.3593 84.2073 52.1504 84.9207 52.3229Z" fill="#F7FBFD"/>
<path fill-rule="evenodd" clip-rule="evenodd" d="M77.6403 57.2802C77.3293 57.1803 76.9909 57.1712 76.6708 57.2529C76.3781 57.3255 76.1037 57.4617 75.8842 57.6706C75.4268 58.0973 75.2256 58.7782 75.3811 59.3865C74.8872 59.1323 74.2195 59.2957 73.8994 59.7497C73.5793 60.2036 73.6616 60.8846 74.0732 61.2568C74.6128 61.738 75.4634 61.62 76.1311 61.3567C77.7592 62.9001 80.5579 63 82.2958 61.5837C84.0884 63.1453 87.0244 63.2088 88.8903 61.7289C89.4207 62.4643 90.189 63.0454 91.0762 63.2633C91.8994 63.463 92.686 63.1997 93.4634 62.9455C93.6464 62.882 95.5762 61.7925 95.3476 61.5927C96.5732 62.6913 98.3384 63.1543 99.9482 62.8003C100.881 62.6005 101.777 62.1102 102.326 61.3385C102.738 60.7574 102.93 59.9313 102.509 59.3593C102.198 58.9325 101.631 58.751 101.101 58.7782C100.57 58.8054 100.067 59.0052 99.5823 59.2049C99.8384 58.3696 99.1616 57.4708 98.3293 57.1712C97.497 56.8716 96.5823 57.0169 95.7134 57.1984C96.061 56.0182 95.814 54.1569 94.4421 53.7302C94.1586 53.6394 93.8567 53.6213 93.564 53.6303C93.7653 54.629 93.6647 55.7276 93.0884 56.572C92.4848 57.4617 91.2775 57.9883 90.2622 57.6161C89.2378 58.5331 87.8018 58.9779 86.4299 58.7964C85.0579 58.6148 83.7957 57.8067 83.0549 56.6446C82.2866 57.1621 81.125 57.1076 80.5031 56.4267C79.8628 55.7185 80.1738 55.0013 80.5305 54.284C80.5396 54.2659 80.5488 54.2477 80.5579 54.2296C78.875 53.8028 77.4207 55.5824 77.6403 57.2802Z" fill="#F6F9FC"/>
<path fill-rule="evenodd" clip-rule="evenodd" d="M76.6708 57.2529C76.9909 57.1712 77.3293 57.1803 77.6403 57.2802C77.4207 55.5733 78.875 53.7938 80.5579 54.2296C79.9177 54.2659 79.3049 54.5837 78.8933 55.0739C78.4909 55.5642 78.2805 56.1997 78.2622 56.8353C78.2622 57.0804 78.2805 57.3346 78.3811 57.5616C78.6281 58.1699 79.2775 58.4968 79.8903 58.7328C79.314 58.8599 78.7195 58.5603 78.2439 58.2062C77.7775 57.8612 77.247 57.4073 76.6708 57.2529ZM95.3476 61.5927C96.5732 62.6913 98.3384 63.1544 99.9482 62.8003C100.881 62.6005 101.777 62.1103 102.326 61.3385C102.738 60.7575 102.93 59.9313 102.509 59.3593C102.518 60.4851 101.412 61.4293 100.323 61.7289C99.2348 62.0376 98.0549 61.7743 97.0305 61.2841C96.5366 61.048 96.061 60.7575 95.7226 60.3398C95.3842 59.9222 95.1921 59.3502 95.3293 58.8327C94.936 59.6589 95.0823 60.7212 95.3476 61.5927ZM88.8903 61.7289C87.0244 63.2088 84.0884 63.1453 82.2958 61.5837C80.5579 63 77.7592 62.9001 76.1311 61.3567C75.4543 61.62 74.6037 61.738 74.0732 61.2568C73.6616 60.8846 73.5793 60.2036 73.8994 59.7497C74.1829 60.6758 75.5275 61.0662 76.3232 60.4942C76.0854 60.1401 75.9573 59.7134 75.9665 59.2866C76.8354 60.2672 78.2073 60.7756 79.5061 60.6031C80.8049 60.4306 81.9939 59.5772 82.5701 58.406C82.6067 59.1686 82.497 59.9403 82.25 60.6667C83.9604 62.3735 86.7317 62.8184 88.8903 61.7289Z" fill="#EBF4F8"/>
<path fill-rule="evenodd" clip-rule="evenodd" d="M67.186 15.3528C72.189 16.1063 75.628 20.6913 74.878 25.594C74.128 30.4967 69.4725 33.8651 64.4695 33.1115C59.4664 32.358 56.0274 27.773 56.7774 22.8703C57.5274 17.9585 62.1829 14.5992 67.186 15.3528Z" fill="#D5A884"/>
<path fill-rule="evenodd" clip-rule="evenodd" d="M44.7043 26.5473C56.2653 21.1543 72.6555 23.5694 85.4238 33.2477L85.9268 66.8223C87.5 74.3943 97.6525 78.6524 95.7866 92.843L95.3842 92.7795C95.5671 92.5707 95.686 92.3528 95.7134 92.1167C96.2622 88.5486 79.1951 83.0194 57.6098 79.7691C36.5915 76.6096 19.0214 76.7639 17.6128 80.0687L17.5762 80.0597C19.7622 67.2036 26.5305 65.6783 35.0092 59.6316L44.7043 26.5473Z" fill="#E3BB9B"/>
<path fill-rule="evenodd" clip-rule="evenodd" d="M94.4787 81.6213C95.7226 84.6083 96.4085 88.1945 95.7866 92.8431L17.5762 80.0687C18.3079 75.7562 19.561 72.7147 21.2165 70.3541C47.0823 71.0078 68.0366 74.0947 94.4787 81.6213Z" fill="#EDCEB7"/>
<path fill-rule="evenodd" clip-rule="evenodd" d="M57.6098 79.7691C79.2043 83.0194 96.2622 88.5486 95.7134 92.1167C95.1647 95.6848 77.2195 95.939 55.6342 92.6887C34.0397 89.4384 16.9817 83.9092 17.5305 80.3502C18.0793 76.7821 36.0244 76.5188 57.6098 79.7691Z" fill="#D5A884"/>
<path fill-rule="evenodd" clip-rule="evenodd" d="M67.0945 81.3761C65.9695 86.6329 60.8933 90.1738 55.4787 89.3567C50.0915 88.5486 46.314 83.7276 46.753 78.4254C54.1341 79.1881 60.9116 80.1777 67.0945 81.3761Z" fill="white"/>
<path fill-rule="evenodd" clip-rule="evenodd" d="M46.8354 27.5461C33.811 55.8003 36.9848 69.7367 56.3659 69.3463C46.5701 64.2348 43.3964 50.2983 46.8354 27.5461Z" fill="#EDCEB7"/>
<path fill-rule="evenodd" clip-rule="evenodd" d="M63.5183 26.6835H84.9025C88.3049 26.6835 91.0854 29.4436 91.0854 32.8119V42.5992C91.0854 45.9767 88.3049 48.7367 84.9025 48.7367H63.5183C60.1159 48.7367 57.3354 45.9767 57.3354 42.5992V32.821C57.3445 29.4436 60.125 26.6835 63.5183 26.6835Z" fill="#5C5F72"/>
<path fill-rule="evenodd" clip-rule="evenodd" d="M70.5884 45.1959V42.7899H72.6829V32.6304H70.4603V30.2244H75.9847V42.7899H77.9695V45.1959H70.5884Z" fill="white"/>
<path fill-rule="evenodd" clip-rule="evenodd" d="M57.6281 136.132C62.686 136.132 66.8018 135.288 66.8018 134.253C66.8018 133.218 62.6768 132.374 57.6281 132.374C52.5701 132.374 48.4543 133.218 48.4543 134.253C48.4543 135.288 52.5793 136.132 57.6281 136.132Z" fill="#D2DAE6"/>
<path fill-rule="evenodd" clip-rule="evenodd" d="M3.59129 43.2528C3.91141 43.1711 4.24983 43.1802 4.5608 43.2801C4.31385 41.3735 6.17056 39.3579 8.10044 40.4928C8.23763 39.6394 8.65836 38.795 9.39007 38.3138C10.1126 37.8326 11.1553 37.7872 11.8413 38.332C11.8596 37.3877 12.4632 36.5161 13.2681 36.0259C14.073 35.5356 15.0608 35.3812 16.012 35.4448C17.0547 35.5174 18.0882 35.9169 18.8657 36.616C19.7803 37.4422 19.9449 38.5226 19.8718 39.7211C20.3657 39.6212 20.887 39.594 21.3718 39.7392C22.7437 40.1569 22.9907 42.0272 22.6431 43.2074C23.512 43.0349 24.4267 42.8897 25.259 43.1802C26.0913 43.4798 26.7681 44.3696 26.512 45.2139C27.0059 45.0142 27.4998 44.8144 28.0303 44.7872C28.5608 44.76 29.1279 44.9416 29.4389 45.3683C29.8504 45.9403 29.6675 46.7755 29.2559 47.3475C28.698 48.1192 27.8108 48.6004 26.8779 48.8093C25.2681 49.1633 23.5029 48.7003 22.2773 47.6017C22.5059 47.8106 20.576 48.9001 20.3931 48.9545C19.6157 49.2087 18.8291 49.472 18.0059 49.2723C17.1187 49.0544 16.3596 48.4733 15.8199 47.7379C13.9541 49.2178 11.0181 49.1543 9.22544 47.5927C7.48763 49.009 4.68885 48.9091 3.0608 47.3657C2.38397 47.629 1.53336 47.747 1.00287 47.2658C0.591289 46.8936 0.508973 46.2126 0.829095 45.7587C1.14922 45.3047 1.8169 45.1413 2.3108 45.3955C2.15531 44.7872 2.35653 44.1063 2.81385 43.6796C3.02421 43.4617 3.29861 43.3255 3.59129 43.2528Z" fill="white"/>
<path fill-rule="evenodd" clip-rule="evenodd" d="M19.8719 39.7121C19.9451 38.5136 19.7805 37.4332 18.8658 36.607C18.0884 35.9079 17.0549 35.5084 16.0122 35.4358C15.0701 35.3722 14.0823 35.5175 13.2683 36.0169C14.8689 35.7899 16.6341 35.8625 17.9146 36.8521C18.2439 37.1063 18.5274 37.406 18.7195 37.7691C18.939 38.1777 19.0305 38.6407 19.0213 39.1038C19.003 40.1751 18.4177 41.1919 17.5762 41.8547C16.7347 42.5175 15.6463 42.8443 14.5671 42.8625C15.6646 43.1167 16.8628 42.9351 17.8323 42.3722C18.811 41.8093 19.8079 40.8288 19.8719 39.7121ZM11.8323 38.3229C11.1555 37.7782 10.1128 37.8236 9.38108 38.3048C8.65852 38.786 8.22864 39.6303 8.09145 40.4838C7.99998 41.0558 8.56705 41.5551 9.07925 41.8275C9.60059 42.0999 10.2134 42.1634 10.7896 42.0817C10.2134 42.0272 9.75608 41.5642 9.52742 41.0376C9.24389 40.3657 9.29876 39.5486 9.71949 38.9494C10.1585 38.3593 11.128 38.1504 11.8323 38.3229Z" fill="#F7FBFD"/>
<path fill-rule="evenodd" clip-rule="evenodd" d="M4.56098 43.2801C4.25 43.1803 3.91158 43.1712 3.59146 43.2529C3.29878 43.3255 3.02439 43.4708 2.80488 43.6705C2.34756 44.0973 2.14634 44.7782 2.30183 45.3865C1.80793 45.1323 1.14024 45.2957 0.820123 45.7497C0.500001 46.2036 0.582317 46.8845 0.993903 47.2568C1.53354 47.738 2.38415 47.629 3.05183 47.3567C4.67988 48.9001 7.47866 49 9.21646 47.5836C11.0091 49.1452 13.9451 49.2088 15.811 47.7289C16.3415 48.4643 17.1098 49.0454 17.9969 49.2633C18.8201 49.463 19.6067 49.1997 20.3841 48.9455C20.5671 48.8819 22.497 47.7925 22.2683 47.5927C23.4939 48.6913 25.2591 49.1543 26.8689 48.8002C27.8018 48.6005 28.6982 48.1102 29.247 47.3385C29.6585 46.7574 29.8506 45.9312 29.4299 45.3593C29.1189 44.9325 28.5518 44.751 28.0213 44.7782C27.4909 44.8054 26.9878 45.0052 26.503 45.2049C26.7591 44.3696 26.0823 43.4708 25.25 43.1712C24.4177 42.8716 23.503 43.0168 22.6341 43.1984C22.9817 42.0181 22.7348 40.1569 21.3628 39.7302C21.0793 39.6394 20.7774 39.6213 20.4848 39.6303C20.686 40.6381 20.5854 41.7276 20.0091 42.572C19.4055 43.4617 18.1982 43.9883 17.1829 43.6161C16.1585 44.5331 14.7226 44.9779 13.3506 44.7964C11.9787 44.6148 10.7165 43.8067 9.97561 42.6446C9.20732 43.1621 8.05488 43.1076 7.42378 42.4267C6.78354 41.7185 7.09451 41.0013 7.45122 40.284C7.46037 40.2659 7.46951 40.2477 7.47866 40.2295C5.78658 39.7938 4.33232 41.5823 4.56098 43.2801Z" fill="#F6F9FC"/>
<path fill-rule="evenodd" clip-rule="evenodd" d="M3.59143 43.2529C3.91155 43.1712 4.24997 43.1803 4.56094 43.2801C4.34143 41.5733 5.7957 39.7938 7.47863 40.2296C6.83838 40.2659 6.22558 40.5837 5.81399 41.0739C5.41155 41.5642 5.20119 42.1997 5.1829 42.8353C5.1829 43.0804 5.20119 43.3346 5.3018 43.5616C5.54875 44.1699 6.19814 44.4968 6.81094 44.7328C6.23472 44.8599 5.64021 44.5603 5.1646 44.2062C4.68899 43.8521 4.1585 43.4073 3.59143 43.2529ZM22.2591 47.5927C23.4847 48.6913 25.25 49.1543 26.8597 48.8003C27.7927 48.6005 28.689 48.1102 29.2378 47.3385C29.6494 46.7575 29.8414 45.9312 29.4207 45.3593C29.4298 46.4851 28.3231 47.4293 27.2347 47.7289C26.1463 48.0376 24.9664 47.7743 23.942 47.284C23.4481 47.048 22.9725 46.7575 22.6341 46.3398C22.2957 45.9222 22.1036 45.3502 22.2408 44.8327C21.8475 45.6498 21.9939 46.7211 22.2591 47.5927Z" fill="#EBF4F8"/>
<path fill-rule="evenodd" clip-rule="evenodd" d="M15.8018 47.7289C13.936 49.2088 11 49.1453 9.20731 47.5836C7.46951 49 4.67072 48.9001 3.04267 47.3567C2.36584 47.62 1.51524 47.738 0.984747 47.2568C0.573162 46.8846 0.490845 46.2036 0.810967 45.7497C1.0945 46.6757 2.43902 47.0661 3.23475 46.4942C2.99694 46.1401 2.86889 45.7134 2.87804 45.2866C3.74694 46.2672 5.1189 46.7756 6.41768 46.594C7.71646 46.4215 8.90548 45.5681 9.4817 44.3969C9.51829 45.1595 9.40853 45.9313 9.16158 46.6576C10.8719 48.3735 13.6433 48.8184 15.8018 47.7289Z" fill="#EBF4F8"/>
<path fill-rule="evenodd" clip-rule="evenodd" d="M24.9572 12.2568C25.4603 12.1297 25.9907 12.1479 26.4755 12.3022C26.0822 9.30611 28.9999 6.14657 32.0365 7.92608C32.2468 6.58237 32.9145 5.25682 34.0578 4.49418C35.2011 3.73153 36.8383 3.6589 37.8993 4.51233C37.9359 3.03244 38.8779 1.66149 40.1493 0.889766C41.4206 0.108962 42.9664 -0.127095 44.4481 -0.0181459C46.0853 0.0998826 47.7042 0.726342 48.9298 1.82492C50.3657 3.11415 50.6218 4.82102 50.5121 6.7004C51.2895 6.54606 52.1035 6.50066 52.8627 6.72764C55.0121 7.39041 55.3962 10.3139 54.8566 12.166C56.2103 11.8937 57.6554 11.6576 58.9633 12.1297C60.2712 12.5927 61.3322 14 60.9298 15.3165C61.6981 15.0078 62.4846 14.69 63.317 14.6537C64.1493 14.6083 65.0365 14.8898 65.5212 15.5616C66.1706 16.4695 65.8779 17.7678 65.2285 18.6667C64.3596 19.8742 62.9511 20.6368 61.4877 20.9546C58.9633 21.5084 56.1828 20.773 54.2621 19.0571C54.6188 19.3748 51.5914 21.0908 51.2987 21.1816C50.0822 21.5811 48.8475 21.9987 47.5578 21.6809C46.1676 21.345 44.9694 20.4189 44.1279 19.275C41.2011 21.5992 36.6005 21.4994 33.7834 19.048C31.0578 21.2724 26.6584 21.118 24.1066 18.6939C23.0456 19.1116 21.7103 19.2931 20.8688 18.5305C20.2194 17.9494 20.1005 16.8781 20.6035 16.1608C21.1066 15.4527 22.1584 15.1894 22.9359 15.5889C22.6889 14.6356 23.009 13.5642 23.7316 12.9014C24.07 12.5927 24.4999 12.3658 24.9572 12.2568Z" fill="white"/>
<path fill-rule="evenodd" clip-rule="evenodd" d="M50.5121 6.7004C50.6219 4.82102 50.3658 3.11415 48.9298 1.82492C47.7042 0.726342 46.0853 0.0998826 44.4481 -0.0181459C42.9664 -0.127095 41.4115 0.108962 40.1493 0.889766C42.6646 0.526601 45.4359 0.644629 47.439 2.19716C47.9512 2.58756 48.3993 3.06875 48.7103 3.64074C49.0579 4.27628 49.2042 5.01169 49.1859 5.72894C49.1493 7.40857 48.2439 9.0065 46.9176 10.0506C45.5914 11.0947 43.881 11.594 42.1981 11.6394C43.9268 12.0389 45.7926 11.7575 47.3292 10.8768C48.8475 9.98704 50.4115 8.45267 50.5121 6.7004ZM37.8993 4.51233C36.8292 3.6589 35.192 3.73153 34.0579 4.49418C32.9146 5.25682 32.2469 6.57329 32.0365 7.92608C31.8993 8.82491 32.7774 9.60572 33.5914 10.0324C34.4054 10.4592 35.3658 10.559 36.2804 10.4228C35.3841 10.332 34.6524 9.60572 34.3048 8.77952C33.8567 7.72634 33.939 6.44619 34.6067 5.51104C35.2652 4.56681 36.7835 4.23996 37.8993 4.51233Z" fill="#F7FBFD"/>
<path fill-rule="evenodd" clip-rule="evenodd" d="M26.4756 12.3022C25.9908 12.1479 25.4512 12.1388 24.9573 12.2568C24.5 12.3658 24.0701 12.5927 23.7225 12.9105C23 13.5824 22.689 14.6537 22.9268 15.5979C22.1494 15.1984 21.0975 15.4617 20.5945 16.1699C20.0914 16.8781 20.2195 17.9494 20.8597 18.5396C21.7012 19.3022 23.0366 19.1206 24.0975 18.703C26.6494 21.118 31.0488 21.2815 33.7744 19.0571C36.5914 21.5084 41.1921 21.6174 44.1189 19.2841C44.9603 20.428 46.1585 21.3541 47.5488 21.69C48.8384 22.0078 50.0731 21.5901 51.2896 21.1907C51.5823 21.0999 54.6097 19.3839 54.253 19.0662C56.1738 20.7912 58.9542 21.5175 61.4786 20.9637C62.942 20.6459 64.3506 19.8833 65.2195 18.6758C65.8689 17.7678 66.1616 16.4695 65.5122 15.5616C65.0274 14.8898 64.1402 14.6083 63.3079 14.6537C62.4756 14.69 61.689 15.0078 60.9207 15.3165C61.3231 14 60.253 12.5927 58.9542 12.1297C57.6463 11.6667 56.2103 11.8937 54.8475 12.166C55.3872 10.3139 55.003 7.38133 52.8536 6.72763C52.4055 6.59145 51.939 6.55513 51.4725 6.57329C51.7835 8.14398 51.628 9.85993 50.7317 11.1855C49.7805 12.5837 47.8872 13.4099 46.2866 12.8197C44.6768 14.2633 42.4177 14.9533 40.2683 14.6719C38.1189 14.3813 36.125 13.1193 34.9634 11.3035C33.7561 12.1116 31.9451 12.0298 30.9664 10.9585C29.9512 9.84177 30.4542 8.71596 31.0122 7.59923C31.0305 7.57199 31.0396 7.54475 31.0488 7.51752C28.4146 6.83658 26.128 9.62387 26.4756 12.3022Z" fill="#F6F9FC"/>
<path fill-rule="evenodd" clip-rule="evenodd" d="M24.9573 12.2568C25.4603 12.1297 25.9908 12.1479 26.4756 12.3022C26.128 9.63296 28.4054 6.83659 31.0579 7.51753C30.0518 7.58108 29.0914 8.07135 28.4512 8.84308C27.8109 9.6148 27.4817 10.6135 27.4634 11.6122C27.4542 12.0026 27.5 12.393 27.6463 12.7562C28.0304 13.7095 29.0548 14.227 30.0152 14.5992C29.1006 14.8081 28.1859 14.3269 27.4359 13.773C26.6859 13.2011 25.8536 12.502 24.9573 12.2568ZM54.2621 19.0662C56.1829 20.7912 58.9634 21.5175 61.4878 20.9637C62.9512 20.6459 64.3597 19.8833 65.2286 18.6758C65.878 17.7679 66.1707 16.4695 65.5213 15.5707C65.5304 17.3321 63.8018 18.8119 62.0914 19.2931C60.3811 19.7743 58.5243 19.3567 56.9237 18.6031C56.1554 18.24 55.4054 17.786 54.875 17.1232C54.3445 16.4605 54.0426 15.5707 54.253 14.7536C53.6219 16.0247 53.8506 17.6952 54.2621 19.0662Z" fill="#EBF4F8"/>
<path fill-rule="evenodd" clip-rule="evenodd" d="M44.128 19.2841C41.2012 21.6083 36.6006 21.5084 33.7835 19.0571C31.0579 21.2815 26.6585 21.1271 24.1067 18.703C23.0457 19.1206 21.7103 19.3022 20.8689 18.5396C20.2195 17.9585 20.1006 16.8872 20.6036 16.1699C21.0426 17.6226 23.1554 18.2309 24.3993 17.3411C24.0152 16.7873 23.8231 16.1155 23.8414 15.4527C25.2042 16.987 27.3536 17.786 29.4024 17.5136C31.442 17.2413 33.3079 15.9066 34.2134 14.0636C34.2682 15.262 34.0945 16.4695 33.7103 17.6135C36.3902 20.2918 40.7439 20.9909 44.128 19.2841Z" fill="#EBF4F8"/>
</g>
<defs>
<clipPath id="clip0_5_521">
<rect width="120" height="140" fill="white" transform="translate(0.5)"/>
</clipPath>
</defs>
</svg>
