<svg width="80" height="80" viewBox="0 0 80 80" fill="none" xmlns="http://www.w3.org/2000/svg">
<g clip-path="url(#clip0_119_2379)">
<path d="M40.0278 65.5514C25.9214 65.5514 14.4486 54.0786 14.4486 39.9722C14.4486 27.0002 24.162 16.2769 36.6914 14.6354V10.1401C21.6797 11.8017 10 24.5157 10 39.9722C10 56.5565 23.4436 70 40.0278 70C55.4843 70 68.2006 58.3203 69.8599 43.3086H65.3646C63.7209 55.8358 52.9998 65.5514 40.0278 65.5514Z" fill="#1B1B1F"/>
<path d="M61.1583 38.8601H43.1594C42.9945 38.3942 42.7276 37.9711 42.3782 37.6217C42.0288 37.2722 41.6056 37.0053 41.1398 36.8404V18.8415H38.9155V36.8404C38.385 37.0272 37.9105 37.3455 37.5364 37.7655C37.1622 38.1854 36.9006 38.6933 36.776 39.2418C36.6514 39.7903 36.6679 40.3614 36.8239 40.9018C36.9799 41.4422 37.2703 41.9342 37.668 42.3319C38.0657 42.7296 38.5577 43.02 39.0981 43.176C39.6385 43.332 40.2096 43.3484 40.758 43.2238C41.3065 43.0992 41.8145 42.8376 42.2344 42.4635C42.6544 42.0893 42.9726 41.6148 43.1594 41.0843H61.1583V38.8601Z" fill="#1B1B1F"/>
<path opacity="0.25" d="M41.1953 14.4486V38.8601H65.6068C65.3321 32.4739 62.672 26.4231 58.1521 21.9033C53.6322 17.3834 47.5814 14.7233 41.1953 14.4486Z" fill="#1B1B1F"/>
<path d="M51.8323 17.3023L54.0654 13.4343C52.4195 12.5601 50.6845 11.8284 48.8695 11.2701L47.7173 15.5785C49.1498 16.03 50.5199 16.6172 51.8323 17.3023ZM65.5516 38.8601H70.0002C69.9361 36.9823 69.6963 35.1146 69.284 33.2816L64.9867 34.4337C65.3025 35.8662 65.4849 37.3475 65.5516 38.8601ZM57.284 21.1437L60.438 17.9896C59.0624 16.7111 57.5701 15.5643 55.9805 14.5642L53.7518 18.4211C55.0108 19.2263 56.1874 20.1405 57.284 21.1437ZM61.5746 26.2462L65.4337 24.0196C64.4335 22.4302 63.2867 20.9379 62.0083 19.5622L58.8543 22.7162C59.8597 23.8106 60.7716 24.9872 61.5746 26.2462ZM45.5642 15.0135L46.7142 10.7162C44.8826 10.3039 43.0164 10.0641 41.1401 10V14.4486C42.6526 14.5131 44.1318 14.6955 45.5642 15.0135ZM64.4217 32.2829L68.7279 31.1307C68.1721 29.3332 67.4467 27.5927 66.5615 25.9325L62.6957 28.1657C63.383 29.478 63.9702 30.8504 64.4217 32.2829Z" fill="#1B1B1F"/>
</g>
<defs>
<clipPath id="clip0_119_2379">
<rect width="60" height="60" fill="white" transform="translate(10 10)"/>
</clipPath>
</defs>
</svg>
