<svg width="81" height="80" viewBox="0 0 81 80" fill="none" xmlns="http://www.w3.org/2000/svg">
<g id="pending_icon 2">
<g id="Clip path group">
<mask id="mask0_195_12712" style="mask-type:luminance" maskUnits="userSpaceOnUse" x="10" y="10" width="61" height="60">
<g id="clip0_119_2379">
<path id="Vector" d="M70.5 10H10.5V70H70.5V10Z" fill="white"/>
</g>
</mask>
<g mask="url(#mask0_195_12712)">
<g id="Group">
<path id="Vector_2" d="M40.5278 65.5514C26.4214 65.5514 14.9486 54.0786 14.9486 39.9722C14.9486 27.0002 24.662 16.2769 37.1914 14.6354V10.1401C22.1797 11.8017 10.5 24.5157 10.5 39.9722C10.5 56.5565 23.9436 70 40.5278 70C55.9843 70 68.7006 58.3203 70.3599 43.3086H65.8646C64.2209 55.8358 53.4998 65.5514 40.5278 65.5514Z" fill="#145AE1"/>
<path id="Vector_3" d="M61.6583 38.8602H43.6594C43.4945 38.3943 43.2276 37.9712 42.8782 37.6218C42.5288 37.2723 42.1056 37.0054 41.6398 36.8405V18.8416H39.4155V36.8405C38.885 37.0273 38.4105 37.3456 38.0364 37.7656C37.6622 38.1855 37.4006 38.6934 37.276 39.2419C37.1514 39.7904 37.1679 40.3615 37.3239 40.9019C37.4799 41.4423 37.7703 41.9343 38.168 42.332C38.5657 42.7297 39.0577 43.0201 39.5981 43.1761C40.1385 43.3321 40.7096 43.3485 41.258 43.2239C41.8065 43.0993 42.3145 42.8377 42.7344 42.4636C43.1544 42.0894 43.4726 41.6149 43.6594 41.0844H61.6583V38.8602Z" fill="#145AE1"/>
<path id="Vector_4" opacity="0.25" d="M41.6953 14.4485V38.86H66.1068C65.8321 32.4738 63.172 26.423 58.6521 21.9032C54.1322 17.3833 48.0814 14.7232 41.6953 14.4485Z" fill="#145AE1"/>
<path id="Vector_5" d="M52.3323 17.3023L54.5654 13.4343C52.9195 12.5601 51.1845 11.8284 49.3695 11.2701L48.2173 15.5785C49.6498 16.03 51.0199 16.6172 52.3323 17.3023ZM66.0516 38.8601H70.5002C70.4361 36.9823 70.1963 35.1146 69.784 33.2816L65.4867 34.4337C65.8025 35.8662 65.9849 37.3475 66.0516 38.8601ZM57.784 21.1437L60.938 17.9896C59.5624 16.7111 58.0701 15.5643 56.4805 14.5642L54.2518 18.4211C55.5108 19.2263 56.6874 20.1405 57.784 21.1437ZM62.0746 26.2462L65.9337 24.0196C64.9335 22.4302 63.7867 20.9379 62.5083 19.5622L59.3543 22.7162C60.3597 23.8106 61.2716 24.9872 62.0746 26.2462ZM46.0642 15.0135L47.2142 10.7162C45.3826 10.3039 43.5164 10.0641 41.6401 10V14.4486C43.1526 14.5131 44.6318 14.6955 46.0642 15.0135ZM64.9217 32.2829L69.2279 31.1307C68.6721 29.3332 67.9467 27.5927 67.0615 25.9325L63.1957 28.1657C63.883 29.478 64.4702 30.8504 64.9217 32.2829Z" fill="#145AE1"/>
</g>
</g>
</g>
</g>
</svg>
