<svg width="54" height="49" viewBox="0 0 54 49" fill="none" xmlns="http://www.w3.org/2000/svg">
<path d="M4.34381 25.8072L3.61877 25.649L3.45371 24.9253C3.45093 24.9129 3.444 24.9018 3.43409 24.8939C3.42417 24.886 3.41185 24.8817 3.39915 24.8817C3.38639 24.8818 3.37403 24.8861 3.36403 24.894C3.35402 24.9019 3.34694 24.9129 3.3439 24.9253L3.17884 25.6524L2.45381 25.8243C2.44131 25.8273 2.4302 25.8345 2.42228 25.8447C2.41437 25.8548 2.41009 25.8673 2.41016 25.8802C2.41022 25.8929 2.41466 25.9052 2.42274 25.915C2.43082 25.9248 2.44203 25.9316 2.45449 25.9341L3.17952 26.0923L3.3439 26.816C3.34694 26.8284 3.35402 26.8394 3.36403 26.8473C3.37403 26.8552 3.38639 26.8596 3.39915 26.8596C3.41185 26.8596 3.42417 26.8553 3.43409 26.8474C3.444 26.8395 3.45093 26.8284 3.45371 26.816L3.61945 26.0889L4.34449 25.917C4.35723 25.9146 4.36873 25.9077 4.37699 25.8977C4.38525 25.8877 4.38977 25.8751 4.38977 25.8621C4.38977 25.8491 4.38525 25.8366 4.37699 25.8265C4.36873 25.8165 4.35723 25.8097 4.34449 25.8072H4.34381ZM22.6552 0.673197L22.1279 0.558611L22.0079 0.0320571C22.0059 0.0230305 22.0009 0.0149485 21.9937 0.00912734C21.9865 0.00330613 21.9776 8.86627e-05 21.9683 0C21.959 0.000174144 21.95 0.0034091 21.9428 0.00920436C21.9355 0.0149996 21.9303 0.0230319 21.9281 0.0320571L21.808 0.560657L21.2808 0.686156C21.2717 0.688185 21.2635 0.693285 21.2577 0.700608C21.2518 0.707932 21.2487 0.717035 21.2487 0.726398C21.249 0.735704 21.2523 0.744658 21.2583 0.75183C21.2642 0.759001 21.2724 0.763976 21.2815 0.765957L21.8087 0.880543L21.9281 1.4071C21.9303 1.41612 21.9355 1.42415 21.9428 1.42995C21.95 1.43574 21.959 1.43898 21.9683 1.43915C21.9776 1.43906 21.9865 1.43585 21.9937 1.43003C22.0009 1.42421 22.0059 1.41612 22.0079 1.4071L22.1286 0.878497L22.6558 0.752997C22.665 0.751072 22.6731 0.745977 22.6789 0.738612C22.6846 0.731247 22.6876 0.722088 22.6872 0.712756C22.6872 0.703477 22.6841 0.694471 22.6782 0.687262C22.6724 0.680052 22.6642 0.675084 22.6552 0.673197ZM36.8305 15.6445L37.5555 15.4862L37.7199 14.7626C37.7229 14.7502 37.73 14.7392 37.74 14.7313C37.75 14.7234 37.7624 14.719 37.7751 14.7189C37.7878 14.7189 37.8002 14.7232 37.8101 14.7312C37.82 14.7391 37.8269 14.7502 37.8297 14.7626L37.9954 15.4897L38.7205 15.6615C38.7332 15.664 38.7447 15.6708 38.753 15.6809C38.7612 15.6909 38.7657 15.7035 38.7657 15.7164C38.7657 15.7294 38.7612 15.742 38.753 15.752C38.7447 15.762 38.7332 15.7689 38.7205 15.7713L37.9954 15.9296L37.8304 16.6533C37.8276 16.6656 37.8207 16.6767 37.8107 16.6846C37.8008 16.6926 37.7885 16.6969 37.7758 16.6969C37.7631 16.6968 37.7507 16.6925 37.7407 16.6846C37.7307 16.6767 37.7236 16.6656 37.7206 16.6533L37.5555 15.9262L36.8305 15.7543C36.818 15.7512 36.8069 15.744 36.7989 15.7339C36.791 15.7238 36.7868 15.7112 36.7868 15.6984C36.7868 15.6857 36.7912 15.6735 36.7991 15.6637C36.8071 15.6539 36.8181 15.6471 36.8305 15.6445ZM39.8786 9.53524L40.2537 9.45339L40.3383 9.07894C40.3398 9.07241 40.3434 9.06657 40.3486 9.06238C40.3538 9.05819 40.3603 9.0559 40.367 9.0559C40.3737 9.0559 40.3801 9.05819 40.3853 9.06238C40.3906 9.06657 40.3942 9.07241 40.3956 9.07894L40.4809 9.45544L40.856 9.54411C40.8624 9.54575 40.868 9.54945 40.8721 9.55463C40.8762 9.5598 40.8784 9.56617 40.8785 9.57275C40.8785 9.57938 40.8761 9.58579 40.8719 9.59089C40.8677 9.59598 40.8618 9.59946 40.8553 9.60072L40.4802 9.68257L40.3956 10.057C40.3942 10.0636 40.3906 10.0694 40.3853 10.0736C40.3801 10.0778 40.3737 10.0801 40.367 10.0801C40.3603 10.0801 40.3538 10.0778 40.3486 10.0736C40.3434 10.0694 40.3398 10.0636 40.3383 10.057L40.2531 9.68052L39.8779 9.59185C39.8715 9.59031 39.8658 9.58665 39.8617 9.58145C39.8576 9.57625 39.8554 9.56982 39.8554 9.56321C39.8555 9.55658 39.8578 9.55018 39.862 9.54508C39.8662 9.53998 39.8721 9.5365 39.8786 9.53524Z" fill="#757680"/>
<path d="M15.8694 46.3522V23.9949C15.8694 23.388 16.1105 22.8059 16.5396 22.3768C16.9688 21.9476 17.5508 21.7065 18.1577 21.7065H25.1147C25.554 21.7066 25.984 21.8331 26.3533 22.0709C26.7227 22.3086 27.0158 22.6477 27.1978 23.0475L27.9426 24.6769C28.1244 25.0769 28.4175 25.416 28.7869 25.6539C29.1562 25.8918 29.5863 26.0184 30.0256 26.0185H40.9741C41.275 26.0181 41.573 26.077 41.8511 26.1919C42.1293 26.3068 42.382 26.4754 42.5949 26.6881C42.8077 26.9007 42.9766 27.1533 43.0917 27.4313C43.2068 27.7093 43.266 28.0073 43.2658 28.3082V46.3522C43.2656 46.959 43.0245 47.5409 42.5953 47.9699C42.1662 48.3989 41.5843 48.6399 40.9775 48.6399H18.1577C17.5509 48.6399 16.969 48.3989 16.5399 47.9699C16.1107 47.5409 15.8696 46.959 15.8694 46.3522Z" fill="#F6F6F7"/>
<path d="M40.9741 48.8445H18.1577C17.4969 48.8438 16.8633 48.581 16.396 48.1138C15.9287 47.6466 15.6657 47.0131 15.6648 46.3522V23.9949C15.6655 23.3339 15.9284 22.7003 16.3958 22.2329C16.8631 21.7656 17.4968 21.5027 18.1577 21.502H25.1148C25.5932 21.5027 26.0613 21.6408 26.4636 21.8998C26.8658 22.1588 27.1853 22.5278 27.384 22.9629L28.1261 24.5951C28.2919 24.959 28.5588 25.2675 28.8949 25.4841C29.2311 25.7007 29.6224 25.8161 30.0222 25.8167H40.9741C41.6354 25.8165 42.2698 26.0788 42.7378 26.546C43.2059 27.0131 43.4694 27.647 43.4705 28.3083V46.3522C43.4696 47.0137 43.2061 47.6477 42.7381 48.115C42.27 48.5823 41.6355 48.8447 40.9741 48.8445ZM18.1577 21.9098C17.6051 21.9105 17.0753 22.1305 16.6847 22.5214C16.294 22.9123 16.0744 23.4422 16.074 23.9949V46.3522C16.0748 46.9046 16.2945 47.4341 16.6852 47.8246C17.0758 48.2151 17.6054 48.4347 18.1577 48.4353H40.9741C41.5271 48.4356 42.0575 48.2164 42.4489 47.8258C42.8402 47.4352 43.0605 46.9052 43.0612 46.3522V28.3083C43.0605 27.7558 42.8407 27.2263 42.4501 26.8357C42.0595 26.445 41.5299 26.2253 40.9775 26.2246H30.0256C29.5471 26.2238 29.0789 26.0857 28.6766 25.8266C28.2744 25.5674 27.955 25.1983 27.7564 24.7629L27.015 23.1307C26.8489 22.767 26.5819 22.4586 26.2456 22.2422C25.9094 22.0257 25.5181 21.9104 25.1182 21.9098H18.1577Z" fill="#757680"/>
<path d="M39.7975 48.64C39.7975 48.64 37.117 48.5097 36.4629 45.1097L34.1166 31.8326C34.0232 31.3034 33.7465 30.8239 33.3349 30.4783C32.9233 30.1328 32.4032 29.9431 31.8658 29.9426H11.112C10.7754 29.9423 10.4428 30.0163 10.138 30.1592C9.83328 30.3022 9.5638 30.5106 9.34884 30.7697C9.13387 31.0288 8.97871 31.3321 8.89443 31.658C8.81014 31.9839 8.79879 32.3244 8.8612 32.6552L11.5294 46.7759C11.6285 47.3002 11.9077 47.7734 12.3187 48.1137C12.7297 48.4539 13.2467 48.6399 13.7802 48.6393L39.7975 48.64Z" fill="#757680"/>
<path d="M39.7974 48.8446H13.778C13.1973 48.8443 12.6349 48.6414 12.1878 48.2708C11.7407 47.9003 11.4369 47.3854 11.3287 46.8148L8.66255 32.6961C8.59443 32.3359 8.60661 31.9651 8.6982 31.6102C8.7898 31.2553 8.95857 30.9249 9.19248 30.6427C9.42639 30.3604 9.71968 30.1333 10.0514 29.9774C10.3832 29.8215 10.7453 29.7407 11.1118 29.7407H31.8629C32.4492 29.7398 33.0169 29.9458 33.4661 30.3225C33.9153 30.6992 34.2171 31.2224 34.3184 31.7999L36.6653 45.0769C37.2792 48.2785 39.7824 48.4374 39.8076 48.4388L39.7974 48.8446ZM11.1118 30.1472C10.8055 30.1474 10.5031 30.2151 10.2259 30.3456C9.94877 30.476 9.70379 30.6659 9.50841 30.9018C9.31304 31.1377 9.17206 31.4137 9.09553 31.7103C9.019 32.0069 9.0088 32.3167 9.06565 32.6177L11.7318 46.7364C11.8222 47.2131 12.0759 47.6435 12.4494 47.9532C12.8229 48.263 13.2928 48.4328 13.778 48.4333H38.4632C38.3998 48.3992 38.3343 48.3651 38.2689 48.3229C37.5472 47.8836 36.6135 46.9765 36.2622 45.1465L33.9152 31.8681C33.8303 31.3856 33.578 30.9485 33.2026 30.6338C32.8272 30.319 32.3528 30.1467 31.8629 30.1472H11.1118Z" fill="#757680"/>
<path d="M24.5641 9.15259L17.8962 11.8331L23.0608 13.8602C23.0608 13.8602 27.7023 12.5527 24.5641 9.15259Z" fill="#757680"/>
<path d="M0.636719 6.9951C0.636719 6.9951 0.636719 28.3737 23.7798 13.4024C23.7798 13.4024 18.223 14.448 15.8038 1.896L0.636719 6.9951Z" fill="#FDFAFE"/>
<path d="M10.0424 18.9307C8.42864 18.9307 6.99494 18.5897 5.74131 17.9076C3.56416 16.7235 1.95586 14.4571 1.08964 11.3543C0.691398 9.93403 0.470548 8.46987 0.432129 6.99528V6.84863L15.9607 1.62744L16.005 1.8573C17.2423 8.27892 19.3089 11.0229 20.8258 12.1953C22.4259 13.4319 23.7307 13.2048 23.7437 13.2021L24.7668 13.0097L23.8924 13.5751C18.3779 17.1403 13.7419 18.9307 10.0424 18.9307ZM0.841367 7.14192C0.89742 8.53366 1.11323 9.91435 1.48455 11.2568C2.06772 13.3405 3.31316 16.1247 5.9357 17.5502C9.82209 19.6619 15.5862 18.3339 23.0766 13.6072C22.4798 13.539 21.5761 13.2948 20.5714 12.5159C19.5667 11.737 18.6616 10.5829 17.8861 9.08171C16.9503 7.27015 16.1973 4.94295 15.6455 2.16218L0.841367 7.14192Z" fill="#757680"/>
<path d="M7.95255 17.0632L7.83455 16.6717C7.8823 16.6574 12.6451 15.2142 16.9626 13.2812L17.1297 13.6543C12.7877 15.5988 8.00302 17.0489 7.95255 17.0632ZM6.58024 15.298L6.46088 14.9065C6.50112 14.8943 10.5621 13.6434 15.4641 11.5794L15.6224 11.9566C10.7006 14.0287 6.62116 15.2851 6.58024 15.298ZM5.07629 13.3364L4.95693 12.9456C4.99581 12.934 8.8672 11.7479 13.9643 9.74742L14.1136 10.1287C9.00088 12.1346 5.11517 13.3248 5.07629 13.3364ZM4.02864 11.1797L3.91064 10.7876C3.9502 10.7753 7.90685 9.60486 9.7682 8.77002L9.93599 9.14379C8.05213 9.98955 4.06888 11.1682 4.02864 11.1797Z" fill="#757680"/>
<path d="M43.123 32.3232L44.7272 31.3123L47.9339 36.4005L46.3298 37.4115L43.123 32.3232Z" fill="#757680"/>
<path d="M40.7514 33.9155C44.6871 33.9155 47.8776 30.725 47.8776 26.7893C47.8776 22.8536 44.6871 19.6631 40.7514 19.6631C36.8158 19.6631 33.6252 22.8536 33.6252 26.7893C33.6252 30.725 36.8158 33.9155 40.7514 33.9155Z" fill="#757680"/>
<path d="M40.7659 34.1221C40.2151 34.122 39.666 34.0603 39.1289 33.938C37.3133 33.522 35.7256 32.427 34.6916 30.8776C33.6576 29.3283 33.2557 27.4419 33.5683 25.6056C33.8809 23.7693 34.8843 22.1223 36.3727 21.0023C37.8612 19.8823 39.7217 19.3744 41.5728 19.5826C43.4238 19.7908 45.125 20.6995 46.3274 22.1222C47.5297 23.5449 48.1421 25.3737 48.0389 27.2336C47.9357 29.0934 47.1247 30.8433 45.7723 32.1242C44.4199 33.4051 42.6286 34.12 40.7659 34.1221ZM40.7407 19.867C39.2064 19.8698 37.7166 20.3824 36.5055 21.3242C35.2944 22.2661 34.4306 23.5837 34.05 25.07C33.6694 26.5563 33.7936 28.1269 34.403 29.5349C35.0124 30.9429 36.0724 32.1085 37.4165 32.8483C38.7605 33.5882 40.3123 33.8604 41.828 33.6221C43.3436 33.3838 44.737 32.6486 45.7892 31.532C46.8414 30.4154 47.4926 28.9808 47.6406 27.4537C47.7885 25.9266 47.4247 24.3937 46.6064 23.0959C45.9848 22.103 45.1197 21.2855 44.0934 20.7209C43.067 20.1563 41.9134 19.8633 40.742 19.8697L40.7407 19.867Z" fill="#757680"/>
<path d="M40.7516 32.2239C43.7531 32.2239 46.1863 29.7907 46.1863 26.7892C46.1863 23.7877 43.7531 21.3545 40.7516 21.3545C37.7501 21.3545 35.3169 23.7877 35.3169 26.7892C35.3169 29.7907 37.7501 32.2239 40.7516 32.2239Z" fill="#FDFAFE"/>
<path d="M40.761 32.4265C39.7802 32.4279 38.8161 32.1735 37.9637 31.6884C37.1113 31.2032 36.4003 30.5041 35.9008 29.66C35.4013 28.816 35.1306 27.8563 35.1154 26.8756C35.1003 25.895 35.3412 24.9273 35.8144 24.0683C36.2876 23.2092 36.9768 22.4885 37.8137 21.9772C38.6507 21.466 39.6066 21.1819 40.5869 21.1531C41.5672 21.1242 42.5381 21.3516 43.4037 21.8128C44.2693 22.274 44.9996 22.953 45.5225 23.7827C46.0601 24.635 46.3594 25.6158 46.3892 26.623C46.4191 27.6302 46.1784 28.6269 45.6922 29.5095C45.206 30.3921 44.4921 31.1283 43.6249 31.6413C42.7576 32.1543 41.7687 32.4254 40.761 32.4265ZM40.7419 21.5571C39.5818 21.5585 38.455 21.9454 37.5388 22.657C36.6226 23.3686 35.9688 24.3645 35.6803 25.4882C35.3918 26.6119 35.485 27.7995 35.9451 28.8645C36.4053 29.9295 37.2063 30.8113 38.2223 31.3713C39.2383 31.9314 40.4116 32.1378 41.5577 31.9583C42.7039 31.7788 43.7578 31.2234 44.5539 30.3796C45.35 29.5357 45.843 28.4512 45.9555 27.2966C46.068 26.1419 45.7936 24.9826 45.1753 24.001C44.8106 23.4186 44.334 22.9144 43.7731 22.5175C43.2122 22.1206 42.5781 21.8389 41.9076 21.6888C41.5251 21.6016 41.1341 21.5575 40.7419 21.5571Z" fill="#757680"/>
<path d="M48.8475 36.7714C48.3529 35.9736 47.3051 35.7278 46.5073 36.2225C45.7095 36.7172 45.4637 37.7649 45.9584 38.5627L49.7826 44.7305C50.2773 45.5283 51.325 45.7741 52.1228 45.2794C52.9207 44.7848 53.1664 43.737 52.6717 42.9392L48.8475 36.7714Z" fill="#757680"/>
<path d="M51.1858 45.2971C50.8637 45.2978 50.5467 45.2168 50.2644 45.0617C49.982 44.9067 49.7436 44.6826 49.5714 44.4104L45.7027 38.2718C45.4331 37.8443 45.3444 37.3271 45.456 36.8342C45.5677 36.3412 45.8706 35.9128 46.2982 35.6432C46.7257 35.3735 47.2429 35.2848 47.7358 35.3965C48.2288 35.5081 48.6572 35.8111 48.9268 36.2386L52.7962 42.3772C52.9777 42.665 53.0788 42.9963 53.0889 43.3364C53.099 43.6766 53.0177 44.0133 52.8534 44.3114C52.6892 44.6094 52.4481 44.858 52.1551 45.0313C51.8622 45.2045 51.5282 45.2961 51.1879 45.2964L51.1858 45.2971ZM47.311 35.7584C47.0438 35.759 46.7817 35.8311 46.5518 35.9673C46.3219 36.1034 46.1326 36.2987 46.0038 36.5328C45.8749 36.7669 45.8111 37.0312 45.8189 37.2983C45.8268 37.5653 45.9061 37.8255 46.0485 38.0515L49.9179 44.1901C50.0226 44.3562 50.159 44.5001 50.3193 44.6134C50.4796 44.7268 50.6607 44.8075 50.8522 44.851C51.0436 44.8944 51.2418 44.8997 51.4354 44.8665C51.6289 44.8333 51.814 44.7624 51.9801 44.6576C52.1462 44.5529 52.2901 44.4165 52.4035 44.2562C52.5168 44.0959 52.5976 43.9149 52.641 43.7234C52.6844 43.5319 52.6897 43.3337 52.6565 43.1402C52.6233 42.9466 52.5524 42.7615 52.4477 42.5954L48.5783 36.4569C48.4742 36.2902 48.338 36.1459 48.1778 36.0322C48.0175 35.9185 47.8363 35.8378 47.6446 35.7946C47.5351 35.7701 47.4232 35.758 47.311 35.7584Z" fill="#757680"/>
</svg>
