<svg width="61" height="60" viewBox="0 0 61 60" fill="none" xmlns="http://www.w3.org/2000/svg">
<g clip-path="url(#clip0_8310_71674)">
<g clip-path="url(#clip1_8310_71674)">
<path d="M3.5 8H50.6154C51.1152 8 51.5946 8.17744 51.948 8.49329C52.3014 8.80914 52.5 9.23753 52.5 9.68421V38.3158C52.5 38.7625 52.3014 39.1909 51.948 39.5067C51.5946 39.8226 51.1152 40 50.6154 40H5.38462C4.88478 40 4.40542 39.8226 4.05199 39.5067C3.69856 39.1909 3.5 38.7625 3.5 38.3158V8Z" fill="#6794C9"/>
<path d="M26.1154 8.04545H3.5V3H22.3462L26.1154 8.04545ZM33.6538 13.0909L29.8846 18.1364H3.5V38.3182C3.5 38.7642 3.69856 39.192 4.05199 39.5074C4.40542 39.8228 4.88478 40 5.38462 40H50.6154C51.1152 40 51.5946 39.8228 51.948 39.5074C52.3014 39.192 52.5 38.7642 52.5 38.3182V13.0909H33.6538Z" fill="#9CB9DD"/>
<path d="M45.3922 40.125H24.0453C23.6638 38.5142 23.6518 36.8379 24.0103 35.2217C24.3687 33.6056 25.0883 32.0916 26.1152 30.7931C27.142 29.4947 28.4494 28.4455 29.9394 27.7242C31.4294 27.0029 33.0633 26.6282 34.7188 26.6282C36.3742 26.6282 38.0081 27.0029 39.4981 27.7242C40.9881 28.4455 42.2955 29.4947 43.3223 30.7931C44.3492 32.0916 45.0688 33.6056 45.4272 35.2217C45.7857 36.8379 45.7737 38.5142 45.3922 40.125Z" fill="#5095D9"/>
<path d="M36.4063 26.625C34.2368 26.625 32.1161 27.2683 30.3123 28.4736C28.5085 29.6788 27.1026 31.3919 26.2725 33.3962C25.4423 35.4005 25.225 37.6059 25.6483 39.7336C26.0715 41.8614 27.1162 43.8158 28.6502 45.3498C30.1842 46.8838 32.1386 47.9285 34.2664 48.3517C36.3941 48.775 38.5995 48.5578 40.6038 47.7276C42.6081 46.8974 44.3212 45.4915 45.5264 43.6877C46.7317 41.8839 47.375 39.7632 47.375 37.5937C47.375 34.6847 46.2194 31.8947 44.1623 29.8377C42.1053 27.7806 39.3153 26.625 36.4063 26.625ZM36.4063 46.875C34.5706 46.875 32.7762 46.3307 31.2499 45.3108C29.7236 44.291 28.534 42.8415 27.8315 41.1455C27.129 39.4496 26.9452 37.5835 27.3033 35.7831C27.6615 33.9827 28.5454 32.3289 29.8434 31.0309C31.1414 29.7329 32.7952 28.849 34.5956 28.4908C36.396 28.1327 38.2621 28.3165 39.958 29.019C41.654 29.7215 43.1035 30.9111 44.1233 32.4374C45.1432 33.9637 45.6875 35.7581 45.6875 37.5937C45.6875 38.8126 45.4474 40.0195 44.981 41.1455C44.5146 42.2716 43.8309 43.2947 42.9691 44.1566C42.1072 45.0184 41.0841 45.7021 39.958 46.1685C38.832 46.6349 37.6251 46.875 36.4063 46.875Z" fill="#DC9B32"/>
<path d="M45.687 47.7187C45.223 47.7187 45.3242 47.7187 42.5567 44.9428C42.3979 44.7839 42.3086 44.5684 42.3086 44.3437C42.3086 44.119 42.3979 43.9035 42.5567 43.7447C42.7156 43.5858 42.9311 43.4965 43.1558 43.4965C43.3805 43.4965 43.596 43.5858 43.7549 43.7447L46.2861 46.2759C46.4051 46.3939 46.4863 46.5447 46.5192 46.709C46.5522 46.8733 46.5355 47.0438 46.4712 47.1985C46.4069 47.3533 46.298 47.4855 46.1584 47.5781C46.0187 47.6707 45.8546 47.7197 45.687 47.7187Z" fill="#DC9B32"/>
<path d="M36.4062 46.875C41.5321 46.875 45.6875 42.7196 45.6875 37.5938C45.6875 32.4679 41.5321 28.3125 36.4062 28.3125C31.2804 28.3125 27.125 32.4679 27.125 37.5938C27.125 42.7196 31.2804 46.875 36.4062 46.875Z" fill="#F3F3F3"/>
<path d="M28.8129 37.5938C28.8138 35.2789 29.6797 33.048 31.2407 31.3387C32.8017 29.6294 34.9451 28.5652 37.2504 28.3547C35.9818 28.269 34.7091 28.4449 33.5112 28.8715C32.3134 29.2981 31.216 29.9663 30.2871 30.8345C29.3582 31.7028 28.6177 32.7527 28.1113 33.919C27.605 35.0854 27.3438 36.3434 27.3438 37.6149C27.3438 38.8864 27.605 40.1443 28.1113 41.3107C28.6177 42.477 29.3582 43.5269 30.2871 44.3952C31.216 45.2635 32.3134 45.9316 33.5112 46.3582C34.7091 46.7848 35.9818 46.9607 37.2504 46.875C34.9379 46.6639 32.7885 45.5937 31.2265 43.8754C29.6645 42.1572 28.8033 39.9159 28.8129 37.5938Z" fill="#D9D9D9"/>
<path d="M55.8128 54.6122C55.8144 55.1027 55.666 55.5819 55.3874 55.9856C55.1089 56.3893 54.7136 56.6982 54.2545 56.8708C53.7954 57.0434 53.2945 57.0715 52.819 56.9513C52.3434 56.8312 51.916 56.5685 51.5941 56.1984L44.5572 49.1616C44.4781 49.0831 44.4153 48.9898 44.3725 48.887C44.3297 48.7842 44.3076 48.6739 44.3076 48.5625C44.3076 48.4511 44.3297 48.3408 44.3725 48.238C44.4153 48.1352 44.4781 48.0419 44.5572 47.9634L46.7341 45.7866C46.8125 45.7075 46.9058 45.6447 47.0086 45.6019C47.1115 45.559 47.2218 45.537 47.3331 45.537C47.4445 45.537 47.5548 45.559 47.6576 45.6019C47.7604 45.6447 47.8538 45.7075 47.9322 45.7866L55.0703 52.9247C55.2997 53.1427 55.4835 53.4042 55.611 53.6939C55.7385 53.9836 55.8071 54.2957 55.8128 54.6122Z" fill="#274673"/>
</g>
</g>
<defs>
<clipPath id="clip0_8310_71674">
<rect width="54" height="54" fill="white" transform="translate(3.5 3)"/>
</clipPath>
<clipPath id="clip1_8310_71674">
<rect width="54" height="54" fill="white" transform="translate(3.5 3)"/>
</clipPath>
</defs>
</svg>
