<svg width="317" height="200" viewBox="0 0 317 200" fill="none" xmlns="http://www.w3.org/2000/svg">
<rect width="317" height="200" rx="15" fill="url(#paint0_radial_512_5347)"/>
<g clip-path="url(#clip0_512_5347)">
<path d="M283.219 41.953H270.78V20.0451H283.219V41.953Z" fill="#FF5F00"/>
<path d="M271.57 31C271.568 28.8903 272.056 26.8078 272.997 24.9101C273.938 23.0125 275.307 21.3495 277 20.047C274.903 18.4318 272.384 17.4274 269.732 17.1486C267.08 16.8697 264.402 17.3277 262.003 18.4701C259.604 19.6126 257.581 21.3934 256.166 23.6091C254.751 25.8248 254 28.386 254 31C254.001 33.6137 254.751 36.1745 256.166 38.3899C257.581 40.6052 259.604 42.3858 262.002 43.5282C264.401 44.6706 267.079 45.1287 269.731 44.8501C272.383 44.5716 274.901 43.5676 276.998 41.953C275.305 40.6501 273.937 38.987 272.996 37.0894C272.056 35.1919 271.568 33.1096 271.57 31Z" fill="#EB001B"/>
<path d="M300 31C300 33.614 299.249 36.1752 297.834 38.3909C296.419 40.6066 294.396 42.3874 291.997 43.5299C289.598 44.6723 286.92 45.1303 284.268 44.8515C281.616 44.5726 279.097 43.5682 277 41.953C280.306 39.4021 282.43 35.4443 282.43 31C282.43 26.5557 280.306 22.5979 277 20.047C279.097 18.4318 281.616 17.4274 284.268 17.1486C286.92 16.8697 289.598 17.3277 291.997 18.4701C294.396 19.6126 296.419 21.3934 297.834 23.6091C299.249 25.8248 300 28.386 300 31Z" fill="#F79E1B"/>
</g>
<defs>
<radialGradient id="paint0_radial_512_5347" cx="0" cy="0" r="1" gradientUnits="userSpaceOnUse" gradientTransform="translate(-78.5 -74) rotate(37.3325) scale(569.719 903.004)">
<stop stop-color="#868686"/>
<stop offset="1"/>
</radialGradient>
<clipPath id="clip0_512_5347">
<rect width="46" height="28" fill="white" transform="translate(254 17)"/>
</clipPath>
</defs>
</svg>
